<svg xmlns="http://www.w3.org/2000/svg" xmlns:xlink="http://www.w3.org/1999/xlink" width="1080" zoomAndPan="magnify" viewBox="0 0 810 225" height="300" preserveAspectRatio="xMidYMid meet" version="1.0"><defs><g/></defs><g fill="#ffffff" fill-opacity="1"><g transform="translate(24.350104, 175.031363)"><g><path d="M 18.765625 -124.296875 C 24.929688 -124.296875 29.695312 -122.097656 33.0625 -117.703125 L 33.59375 -117.703125 C 41.269531 -121.472656 47.238281 -123.359375 51.5 -123.359375 L 53.03125 -122.890625 L 57.15625 -123.359375 L 57.15625 -122.890625 L 58.6875 -123.359375 C 65.519531 -123.359375 73.191406 -119.453125 81.703125 -111.640625 C 87.867188 -105.035156 90.953125 -97.519531 90.953125 -89.09375 L 91.484375 -89.09375 C 93.441406 -89.09375 95.148438 -86.117188 96.609375 -80.171875 L 96.609375 -77.84375 C 96.609375 -75.894531 95.742188 -73.390625 94.015625 -70.328125 C 103.242188 -49.304688 107.859375 -32.40625 107.859375 -19.625 C 107.859375 -16.5625 105.304688 -12.328125 100.203125 -6.921875 C 95.941406 -2.265625 90.992188 0.0625 85.359375 0.0625 L 82.765625 0.0625 C 71.898438 0.0625 64.382812 -1.953125 60.21875 -5.984375 C 52.894531 -0.046875 45.90625 2.921875 39.25 2.921875 L 36.125 2.921875 C 21.84375 2.921875 10.929688 -2.707031 3.390625 -13.96875 C 0.679688 -18.09375 -0.671875 -22.953125 -0.671875 -28.546875 L -1.203125 -30.875 L -0.671875 -31.34375 L -0.671875 -31.796875 L -1.203125 -32.265625 C -0.847656 -38.523438 1.347656 -46.203125 5.390625 -55.296875 L 6.453125 -59.015625 C 3.304688 -59.015625 0.601562 -61.519531 -1.65625 -66.53125 L -2.265625 -71.71875 L -2.265625 -72.65625 C -2.265625 -80.644531 -0.203125 -86.28125 3.921875 -89.5625 L 3.921875 -92.359375 C 3.921875 -95.992188 5.097656 -99.117188 7.453125 -101.734375 C 4.742188 -101.734375 2.367188 -105.191406 0.328125 -112.109375 C 2.765625 -119.609375 6.847656 -123.359375 12.578125 -123.359375 Z M 19.765625 -87.6875 L 20.234375 -87.234375 L 20.234375 -86.765625 L 16.171875 -62.8125 L 8.515625 -38.859375 C 8.515625 -22.222656 12.109375 -12.039062 19.296875 -8.3125 C 25.328125 -5.519531 31.113281 -4.125 36.65625 -4.125 L 37.1875 -4.59375 L 37.65625 -4.59375 L 39.25 -4.125 C 48.789062 -5.59375 53.5625 -7.941406 53.5625 -11.171875 C 54.800781 -11.171875 56 -13.832031 57.15625 -19.15625 C 57.15625 -30.820312 53.5625 -40.207031 46.375 -47.3125 C 46.59375 -49.175781 47.125 -50.109375 47.96875 -50.109375 L 47.4375 -50.5625 L 47.4375 -51.96875 C 47.4375 -53.113281 53.226562 -54.222656 64.8125 -55.296875 L 66.34375 -55.296875 C 69 -55.296875 70.703125 -54.519531 71.453125 -52.96875 L 71.453125 -50.109375 C 72.472656 -50.109375 72.984375 -49.328125 72.984375 -47.765625 L 57.625 -45.4375 C 62.769531 -37.5 65.34375 -29.828125 65.34375 -22.421875 L 65.34375 -21.03125 L 63.8125 -13.96875 C 63.8125 -11.351562 70.128906 -9.46875 82.765625 -8.3125 C 91.640625 -10.394531 96.078125 -13.679688 96.078125 -18.171875 C 97.097656 -20.203125 97.609375 -22.707031 97.609375 -25.6875 L 97.609375 -26.609375 C 97.609375 -32.335938 93.171875 -46.753906 84.296875 -69.859375 L 81.234375 -97.078125 C 80.753906 -97.078125 80.066406 -99.582031 79.171875 -104.59375 C 75.140625 -110.226562 71.550781 -113.046875 68.40625 -113.046875 C 65.5625 -114.910156 62.320312 -115.84375 58.6875 -115.84375 C 46.570312 -115.84375 34.972656 -111.78125 23.890625 -103.65625 C 21.140625 -97.363281 19.765625 -92.039062 19.765625 -87.6875 Z M 55.625 -85.296875 C 58.019531 -84.898438 59.21875 -84.28125 59.21875 -83.4375 L 58.6875 -82.03125 L 59.21875 -79.25 L 56.15625 -76.390625 L 61.28125 -69.390625 L 61.28125 -67.46875 C 61.28125 -66.84375 60.0625 -66.375 57.625 -66.0625 L 57.15625 -66.53125 L 56.625 -66.53125 L 56.15625 -66.0625 L 55.625 -66.0625 C 54.507812 -66.195312 52.957031 -67.304688 50.96875 -69.390625 C 48.75 -67.484375 46.882812 -66.53125 45.375 -66.53125 L 42.78125 -68.859375 L 42.78125 -69.390625 L 47.96875 -76.390625 L 44.84375 -81.109375 C 45.195312 -83.585938 45.707031 -84.828125 46.375 -84.828125 L 49.4375 -84.828125 L 52.03125 -82.5 C 52.875 -83.875 54.070312 -84.804688 55.625 -85.296875 Z M 15.640625 -42.125 L 17.234375 -40.71875 L 17.234375 -36.53125 C 17.234375 -29.5625 19.097656 -22.972656 22.828125 -16.765625 L 22.828125 -16.296875 C 22.828125 -15.453125 20.960938 -14.832031 17.234375 -14.4375 C 13.816406 -19.226562 12.109375 -23.773438 12.109375 -28.078125 L 12.109375 -29.46875 C 12.148438 -36.75 13.328125 -40.96875 15.640625 -42.125 Z M 24.890625 -14.4375 L 25.953125 -13.046875 L 25.953125 -11.171875 L 23.359375 -9.25 L 21.296875 -9.25 L 20.234375 -10.25 L 20.765625 -11.640625 L 19.765625 -12.578125 C 19.765625 -13.503906 21.472656 -14.125 24.890625 -14.4375 Z M 24.890625 -14.4375 "/></g></g></g><g fill="#ffffff" fill-opacity="1"><g transform="translate(124.087489, 175.031363)"><g><path d="M 70.265625 -123.75 C 81.796875 -123.75 89.359375 -116.695312 92.953125 -102.59375 L 92.953125 -100.203125 C 96.984375 -100.203125 99.953125 -97.539062 101.859375 -92.21875 L 101.859375 -87.09375 L 100.671875 -82.375 C 103.066406 -81 104.265625 -78.335938 104.265625 -74.390625 C 104.265625 -71.015625 102.664062 -68.039062 99.46875 -65.46875 C 104.613281 -57 107.1875 -51.035156 107.1875 -47.578125 L 107.1875 -40.984375 C 103.632812 -30.203125 100.863281 -23.304688 98.875 -20.296875 C 99.800781 -20.296875 100.796875 -18.097656 101.859375 -13.703125 L 100.671875 -11.84375 L 101.265625 -11.375 L 101.265625 -10.90625 C 99.179688 -5.582031 95.8125 -2.921875 91.15625 -2.921875 L 90.5625 -2.921875 L 82.765625 -3.859375 C 82.765625 -2.441406 75.625 -0.269531 61.34375 2.65625 L 52.4375 3.65625 L 50.640625 3.65625 L 22.625 -1.53125 C 9.488281 -1.53125 2.921875 -6.234375 2.921875 -15.640625 L 0.59375 -22.6875 C 1.394531 -34.351562 2.375 -43.269531 3.53125 -49.4375 C 3.53125 -52.9375 1.15625 -63.296875 -3.59375 -80.515625 L -4.1875 -86.15625 C -4.1875 -99.070312 0.976562 -108.144531 11.3125 -113.375 L 63.734375 -123.296875 L 64.34375 -122.828125 L 64.9375 -122.828125 Z M 5.328125 -88.03125 C 5.328125 -82.082031 6.921875 -73.453125 10.109375 -62.140625 L 11.3125 -49.90625 L 9.515625 -33.9375 L 10.71875 -29.734375 L 10.109375 -29.28125 C 10.109375 -25.019531 13.28125 -19.519531 19.625 -12.78125 C 20.914062 -11.226562 24.085938 -10.453125 29.140625 -10.453125 L 53.625 -4.796875 L 55.953125 -4.796875 C 65.671875 -4.796875 76.207031 -8.71875 87.5625 -16.5625 C 94.300781 -25.34375 97.671875 -33.019531 97.671875 -39.59375 C 97.671875 -55.113281 92.503906 -64.828125 82.171875 -68.734375 L 68.46875 -70.59375 C 60.96875 -70.59375 52.03125 -66.046875 41.65625 -56.953125 L 39.328125 -52.296875 L 39.921875 -48.03125 C 38.410156 -45.6875 37.015625 -44.289062 35.734375 -43.84375 L 35.125 -43.84375 C 31.53125 -44.375 29.734375 -44.992188 29.734375 -45.703125 L 29.734375 -51.359375 C 29.734375 -60.503906 39.070312 -68.957031 57.75 -76.71875 C 64.269531 -78.53125 70.035156 -79.640625 75.046875 -80.046875 C 78.773438 -86.117188 81.347656 -91.285156 82.765625 -95.546875 L 82.171875 -96.015625 L 82.765625 -97.875 C 82.765625 -106.613281 79.59375 -112.269531 73.25 -114.84375 L 67.328125 -114.84375 C 59.703125 -114.84375 45 -112.160156 23.21875 -106.796875 C 14.832031 -106.796875 9.46875 -103.046875 7.125 -95.546875 C 6.1875 -95.273438 5.585938 -92.769531 5.328125 -88.03125 Z M 54.234375 -103.53125 L 56.5625 -103.53125 L 58.953125 -101.671875 L 58.953125 -99.734375 L 55.359375 -93.21875 C 60.148438 -89.800781 62.546875 -87.269531 62.546875 -85.625 L 62.546875 -83.765625 C 62.191406 -82.796875 59.992188 -81.710938 55.953125 -80.515625 C 55.023438 -80.515625 53.050781 -81.910156 50.03125 -84.703125 C 48.039062 -81.460938 46.242188 -79.597656 44.640625 -79.109375 L 44.046875 -79.109375 C 41.828125 -79.109375 40.453125 -79.882812 39.921875 -81.4375 L 45.25 -91.28125 L 39.921875 -95.546875 L 39.921875 -96.484375 C 39.921875 -98.515625 41.695312 -99.753906 45.25 -100.203125 L 49.4375 -98.34375 C 50.988281 -101.226562 52.585938 -102.957031 54.234375 -103.53125 Z M 64.9375 -66.875 C 79.039062 -66.875 87.78125 -63.253906 91.15625 -56.015625 L 91.75 -51.359375 C 89.664062 -49.765625 87.867188 -48.96875 86.359375 -48.96875 C 85.472656 -48.96875 84.273438 -51.804688 82.765625 -57.484375 C 77.359375 -62.191406 70.414062 -64.546875 61.9375 -64.546875 L 61.9375 -65.46875 C 61.9375 -66.175781 62.9375 -66.644531 64.9375 -66.875 Z M 60.15625 -49.90625 C 62.945312 -47.332031 64.34375 -45.3125 64.34375 -43.84375 C 66.738281 -46.632812 69.109375 -48.03125 71.453125 -48.03125 L 75.046875 -44.78125 L 75.046875 -43.84375 C 75.046875 -42.820312 73.25 -39.984375 69.65625 -35.328125 L 69.65625 -34.859375 C 69.65625 -33.617188 71.054688 -31.269531 73.859375 -27.8125 L 73.859375 -26.875 C 73.859375 -26.207031 71.859375 -25.125 67.859375 -23.625 C 66.617188 -23.625 65.046875 -24.242188 63.140625 -25.484375 C 59.992188 -22.992188 57.800781 -21.75 56.5625 -21.75 C 53.8125 -23.570312 52.4375 -25.4375 52.4375 -27.34375 L 57.75 -34.859375 L 53.03125 -47.109375 L 53.03125 -47.578125 C 54.664062 -49.128906 57.039062 -49.90625 60.15625 -49.90625 Z M 95.28125 -48.96875 L 96.484375 -48.96875 L 96.484375 -48.5 C 96.078125 -44.113281 93.503906 -41.921875 88.765625 -41.921875 L 88.15625 -41.921875 L 86.359375 -43.375 L 86.359375 -43.84375 C 87.609375 -46.945312 89.007812 -48.5 90.5625 -48.5 Z M 95.28125 -48.96875 "/></g></g></g><g fill="#ffffff" fill-opacity="1"><g transform="translate(225.02252, 175.031363)"><g><path d="M 87.765625 -123.15625 L 89.359375 -123.15625 C 94.816406 -123.15625 98.1875 -120.847656 99.46875 -116.234375 L 100 -113.046875 C 97.34375 -108.785156 94.328125 -106.65625 90.953125 -106.65625 C 84.566406 -108.382812 81.375 -111.398438 81.375 -115.703125 C 82.082031 -120.671875 84.210938 -123.15625 87.765625 -123.15625 Z M 42.046875 -122.625 C 52.609375 -122.625 62.878906 -119.609375 72.859375 -113.578125 C 82.441406 -111.316406 87.234375 -107.945312 87.234375 -103.46875 L 87.765625 -102.9375 L 87.765625 -102.40625 L 89.359375 -102.40625 C 95.035156 -102.40625 97.875 -96.015625 97.875 -83.234375 C 97.875 -80.703125 96.988281 -78.570312 95.21875 -76.84375 C 97.34375 -69 98.40625 -61.925781 98.40625 -55.625 L 98.40625 -54.03125 C 98.40625 -41.382812 95.742188 -31.09375 90.421875 -23.15625 C 92.367188 -20.71875 93.429688 -17.878906 93.609375 -14.640625 C 90.640625 -6.828125 86.382812 -2.921875 80.84375 -2.921875 C 78.3125 -2.921875 75.296875 -4.519531 71.796875 -7.71875 C 60.523438 -2.613281 49.898438 0.929688 39.921875 2.921875 C 24.972656 2.921875 12.90625 -4.523438 3.71875 -19.421875 C 1.238281 -26.785156 0 -33.707031 0 -40.1875 L 0 -43.375 L -0.53125 -45.515625 L 2.125 -65.140625 C 1.195312 -65.140625 0.488281 -66.734375 0 -69.921875 L 0.53125 -75.78125 C -1.101562 -75.78125 -2.878906 -79.332031 -4.796875 -86.4375 L -4.796875 -89.09375 C -4.796875 -95.125 -0.710938 -101.507812 7.453125 -108.25 C 10.335938 -108.875 13.882812 -111.003906 18.09375 -114.640625 C 26.34375 -119.960938 34.328125 -122.625 42.046875 -122.625 Z M 11.703125 -89.09375 L 12.78125 -82.703125 L 17.03125 -82.703125 C 18.09375 -82.484375 18.625 -81.066406 18.625 -78.453125 C 11.175781 -68.953125 7.453125 -57.257812 7.453125 -43.375 C 7.453125 -26.789062 12.421875 -15.96875 22.359375 -10.90625 C 26.523438 -6.289062 32.734375 -3.984375 40.984375 -3.984375 C 63.210938 -9.972656 77.382812 -17.425781 83.5 -26.34375 C 88.113281 -33.664062 90.421875 -43.070312 90.421875 -54.5625 C 90.421875 -67.738281 85.453125 -82.796875 75.515625 -99.734375 C 66.203125 -110.734375 55.046875 -116.234375 42.046875 -116.234375 C 26.785156 -116.234375 16.851562 -109.316406 12.25 -95.484375 Z M 56.890625 -73.65625 L 56.890625 -73.125 L 57.421875 -73.65625 L 57.953125 -73.65625 C 60.078125 -73.65625 61.140625 -72.234375 61.140625 -69.390625 L 53.6875 -52.4375 L 53.6875 -51.890625 C 53.6875 -50.566406 55.992188 -47.019531 60.609375 -41.25 L 60.609375 -40.1875 C 59.285156 -37.34375 57.515625 -35.921875 55.296875 -35.921875 C 52.722656 -35.921875 50.414062 -38.40625 48.375 -43.375 C 45.445312 -39.125 42.984375 -37 40.984375 -37 C 39.390625 -37 38.148438 -38.59375 37.265625 -41.78125 L 36.734375 -42.3125 L 36.734375 -43.90625 C 38.546875 -46.257812 40.316406 -49.8125 42.046875 -54.5625 L 38.859375 -63.546875 L 38.859375 -68.328125 C 41.828125 -71.171875 44.664062 -72.59375 47.375 -72.59375 L 48.90625 -69.921875 L 49.4375 -69.921875 C 51.34375 -72.410156 53.828125 -73.65625 56.890625 -73.65625 Z M 17.03125 -49.234375 L 18.09375 -49.234375 C 20.226562 -49.015625 21.296875 -48.484375 21.296875 -47.640625 L 21.296875 -46.578125 C 21.296875 -45.378906 18.632812 -44.488281 13.3125 -43.90625 C 11.53125 -44.132812 10.640625 -44.671875 10.640625 -45.515625 L 10.640625 -46.046875 C 11.929688 -48.171875 14.0625 -49.234375 17.03125 -49.234375 Z M 18.09375 -42.3125 C 18.800781 -42.132812 19.515625 -41.25 20.234375 -39.65625 L 19.6875 -39.125 L 19.6875 -38.59375 C 21.550781 -27.238281 23.328125 -21.5625 25.015625 -21.5625 L 31.9375 -13.578125 C 31.9375 -12.503906 30.515625 -11.789062 27.671875 -11.4375 L 19.6875 -16.234375 C 14.007812 -21.953125 11.171875 -26.921875 11.171875 -31.140625 L 11.171875 -33.265625 C 11.171875 -38.585938 12.59375 -41.25 15.4375 -41.25 C 15.4375 -41.875 16.320312 -42.226562 18.09375 -42.3125 Z M 18.09375 -42.3125 "/></g></g></g><g fill="#ffffff" fill-opacity="1"><g transform="translate(319.370493, 175.031363)"><g><path d="M 35 -124.359375 C 45.195312 -124.359375 53.335938 -121.695312 59.421875 -116.375 C 63.722656 -120.71875 68.488281 -122.890625 73.71875 -122.890625 L 79.375 -124.015625 C 86.382812 -123.265625 91.882812 -121.9375 95.875 -120.03125 C 103.414062 -115.019531 107.1875 -110.160156 107.1875 -105.453125 C 107.675781 -105.453125 108.054688 -101.816406 108.328125 -94.546875 C 108.328125 -86.742188 105.953125 -77.671875 101.203125 -67.328125 L 101.53125 -67 C 103.53125 -65.664062 104.53125 -63.226562 104.53125 -59.6875 C 104.53125 -57.0625 103.664062 -53.800781 101.9375 -49.90625 C 105.4375 -45.46875 107.1875 -39.546875 107.1875 -32.140625 L 106.796875 -32.140625 L 107.1875 -31.734375 L 107.1875 -26.6875 L 106.796875 -26.28125 L 107.1875 -25.953125 C 107.1875 -19.296875 104.171875 -14.570312 98.140625 -11.78125 C 94.941406 -10.582031 90.816406 -9.738281 85.765625 -9.25 L 85.359375 -9.25 C 83.015625 -9.25 80.507812 -9.957031 77.84375 -11.375 C 71.8125 -7.519531 60.65625 -3.773438 44.375 -0.140625 C 40.875 0.796875 37.613281 1.394531 34.59375 1.65625 L 34.59375 1.265625 L 34.203125 1.65625 C 26.617188 1.65625 19.097656 -1.359375 11.640625 -7.390625 C 7.648438 -12.359375 5.65625 -17.210938 5.65625 -21.953125 C 6.40625 -30.648438 7.535156 -36.328125 9.046875 -38.984375 C 6.035156 -42.046875 4.53125 -44.597656 4.53125 -46.640625 L 4.53125 -49.5625 C 4.53125 -51.382812 5.394531 -54.535156 7.125 -59.015625 L 7.125 -59.34375 C 2.019531 -64.050781 -1.109375 -68.890625 -2.265625 -73.859375 C -2.835938 -73.859375 -3.59375 -77.25 -4.53125 -84.03125 C -2.925781 -95.914062 -1.304688 -101.859375 0.328125 -101.859375 C 3.128906 -106.609375 6.769531 -110.847656 11.25 -114.578125 C 21.539062 -121.097656 29.457031 -124.359375 35 -124.359375 Z M 4.859375 -84.03125 L 5.25 -83.703125 L 5.25 -83.296875 L 4.859375 -82.96875 C 4.859375 -74.851562 7.875 -68.664062 13.90625 -64.40625 C 16.789062 -64.40625 18.429688 -63.695312 18.828125 -62.28125 C 21.046875 -61.613281 22.15625 -60.75 22.15625 -59.6875 L 24.09375 -57.890625 L 24.09375 -55.6875 C 21.289062 -52.5 19.890625 -48.753906 19.890625 -44.453125 C 17.410156 -36.503906 15.550781 -31.664062 14.3125 -29.9375 C 14.3125 -28.476562 14.039062 -27.503906 13.5 -27.015625 L 13.5 -23.015625 C 13.5 -15.878906 17.515625 -10.671875 25.546875 -7.390625 L 33.46875 -5.984375 C 47.53125 -5.984375 62.832031 -11.550781 79.375 -22.6875 C 85.363281 -27.75 88.359375 -33.070312 88.359375 -38.65625 L 88.765625 -41.921875 L 86.5 -56.09375 C 88.757812 -63.5 91.773438 -71.835938 95.546875 -81.109375 C 98.554688 -90.109375 100.0625 -95.207031 100.0625 -96.40625 L 100.0625 -98.9375 C 100.0625 -108.25 95.40625 -114.171875 86.09375 -116.703125 L 83.109375 -117.109375 C 76.054688 -117.109375 70.046875 -114.929688 65.078125 -110.578125 L 65.078125 -110.1875 C 67.066406 -102.332031 68.0625 -97.117188 68.0625 -94.546875 L 68.0625 -87.6875 C 66.332031 -77.09375 63.207031 -66.070312 58.6875 -54.625 L 54.15625 -44.84375 L 55.6875 -44.84375 L 60.953125 -46.25 L 61.28125 -45.90625 L 61.671875 -45.90625 L 62.8125 -46.25 C 63.914062 -46.25 65.15625 -45.535156 66.53125 -44.109375 L 66.53125 -42.25 C 66.53125 -40.738281 61.410156 -39.164062 51.171875 -37.53125 L 45.90625 -35.734375 L 44.375 -35.734375 C 42.875 -35.734375 41.878906 -36.460938 41.390625 -37.921875 C 41.390625 -38.765625 43.140625 -42.269531 46.640625 -48.4375 C 54.671875 -62.40625 58.6875 -74.648438 58.6875 -85.171875 C 58.6875 -102.160156 54.671875 -112.425781 46.640625 -115.96875 C 46.191406 -116.632812 43.796875 -117.367188 39.453125 -118.171875 L 35.328125 -118.171875 C 30.273438 -118.171875 23.507812 -115.15625 15.03125 -109.125 C 8.25 -98.957031 4.859375 -90.59375 4.859375 -84.03125 Z M 20.6875 -110.578125 L 22.5625 -110.578125 C 25.84375 -108.710938 27.484375 -106.894531 27.484375 -105.125 L 26.34375 -104 C 22.53125 -104 20.132812 -105.328125 19.15625 -107.984375 C 19.507812 -109.710938 20.019531 -110.578125 20.6875 -110.578125 Z M 16.171875 -106.59375 C 19.410156 -105.613281 21.03125 -104.632812 21.03125 -103.65625 L 21.03125 -101.859375 C 14.507812 -96.410156 11.25 -89.625 11.25 -81.5 L 11.25 -81.109375 L 10.109375 -80.046875 L 8.25 -80.046875 C 7.675781 -80.046875 7.1875 -81.375 6.78125 -84.03125 C 7.3125 -90.6875 8.421875 -95.898438 10.109375 -99.671875 C 12.679688 -104.066406 14.703125 -106.375 16.171875 -106.59375 Z M 16.171875 -106.59375 "/></g></g></g><g fill="#ffffff" fill-opacity="1"><g transform="translate(422.035482, 175.031363)"><g><path d="M 66.46875 -124.296875 L 68.796875 -123.890625 L 71.125 -123.890625 L 71.53125 -123.5625 L 71.859375 -123.890625 C 80.816406 -123.890625 89.625 -120.273438 98.28125 -113.046875 C 103.6875 -106.566406 106.390625 -99.9375 106.390625 -93.15625 C 106.390625 -84.144531 101.351562 -76.023438 91.28125 -68.796875 L 87.359375 -66.53125 C 88.691406 -64.757812 89.359375 -62.519531 89.359375 -59.8125 C 88.554688 -56.09375 87.78125 -54.234375 87.03125 -54.234375 L 87.03125 -53.828125 L 87.359375 -53.828125 C 88.773438 -54.847656 90.59375 -55.359375 92.8125 -55.359375 L 94.34375 -55.359375 C 97.320312 -55.359375 99.007812 -53.472656 99.40625 -49.703125 C 99.40625 -47.265625 97.078125 -45.023438 92.421875 -42.984375 C 90.109375 -43.203125 88.046875 -43.820312 86.234375 -44.84375 L 86.234375 -44.453125 C 91.421875 -36.203125 94.015625 -29.082031 94.015625 -23.09375 L 94.015625 -20.828125 C 92.910156 -15.234375 90.957031 -11.109375 88.15625 -8.453125 C 82.082031 -2.953125 76.785156 -0.203125 72.265625 -0.203125 C 65.296875 1.523438 59.613281 2.390625 55.21875 2.390625 L 53.296875 2.390625 C 37.816406 2.390625 27.59375 -3.484375 22.625 -15.234375 L 21.890625 -21.21875 C 21.890625 -25.75 23.039062 -30.253906 25.34375 -34.734375 L 25.34375 -35.859375 C 21.976562 -37.460938 20.296875 -39.703125 20.296875 -42.578125 L 20.296875 -43.3125 C 20.296875 -45.976562 21.203125 -48.351562 23.015625 -50.4375 L 23.015625 -50.828125 C 20.265625 -52.910156 18.46875 -55.53125 17.625 -58.6875 C 3.65625 -62.539062 -3.328125 -70.546875 -3.328125 -82.703125 C -3.328125 -93.921875 -1.394531 -101.796875 2.46875 -106.328125 C 7.425781 -114.796875 14.8125 -119.03125 24.625 -119.03125 L 26.15625 -119.03125 C 27.039062 -119.78125 28.59375 -120.15625 30.8125 -120.15625 L 35.46875 -120.15625 C 38.789062 -120.15625 41.117188 -120.398438 42.453125 -120.890625 L 44.375 -120.5625 C 50.894531 -121.050781 58.257812 -122.296875 66.46875 -124.296875 Z M 56.359375 -114.578125 L 56.359375 -114.90625 L 56.015625 -114.578125 L 55.625 -114.578125 L 54.03125 -114.90625 C 52.519531 -114.15625 46.066406 -113.535156 34.671875 -113.046875 L 31.9375 -113.4375 C 30.070312 -112.726562 26.457031 -112.085938 21.09375 -111.515625 C 16.65625 -110.535156 12.640625 -107.914062 9.046875 -103.65625 C 6.390625 -101.039062 4.328125 -93.789062 2.859375 -81.90625 L 2.859375 -81.171875 C 3.972656 -74.160156 5.257812 -70.65625 6.71875 -70.65625 C 8.488281 -67.90625 12.632812 -65.664062 19.15625 -63.9375 L 22.625 -63.9375 C 26.96875 -63.9375 31.113281 -67.066406 35.0625 -73.328125 L 38.921875 -74.046875 C 41.273438 -72.546875 42.453125 -69.3125 42.453125 -64.34375 L 42.78125 -63.9375 C 42.78125 -57.238281 40.472656 -48.125 35.859375 -36.59375 C 31.421875 -31.050781 29.203125 -25.550781 29.203125 -20.09375 C 29.203125 -10.738281 35.925781 -5.238281 49.375 -3.59375 L 51.703125 -3.1875 C 70.328125 -5.050781 79.640625 -7.445312 79.640625 -10.375 C 84.296875 -13.394531 86.625 -17.632812 86.625 -23.09375 L 86.625 -26.484375 C 86.625 -30.296875 81.96875 -38.898438 72.65625 -52.296875 C 71.90625 -52.429688 69.707031 -55.828125 66.0625 -62.484375 C 63.976562 -63.410156 62.9375 -64.648438 62.9375 -66.203125 L 63.34375 -66.203125 C 62.851562 -67.046875 62.476562 -69.039062 62.21875 -72.1875 C 62.21875 -73.519531 63.632812 -74.382812 66.46875 -74.78125 C 67.9375 -73.5 70.644531 -72.503906 74.59375 -71.796875 C 84.832031 -71.796875 91.945312 -76.050781 95.9375 -84.5625 C 96.34375 -84.5625 96.988281 -86.800781 97.875 -91.28125 L 97.875 -92.8125 C 97.875 -103.59375 94.257812 -109.957031 87.03125 -111.90625 C 79.570312 -114.789062 73.363281 -116.300781 68.40625 -116.4375 Z M 30.8125 -110.453125 C 32.84375 -109.390625 33.859375 -108.257812 33.859375 -107.0625 C 33.640625 -103.0625 32.863281 -101.0625 31.53125 -101.0625 L 29.609375 -101.0625 C 28.585938 -101.0625 27.941406 -102.925781 27.671875 -106.65625 L 28.078125 -106.65625 L 27.671875 -107.0625 L 27.671875 -108.921875 C 27.671875 -109.671875 28.71875 -110.179688 30.8125 -110.453125 Z M 23.421875 -108.921875 C 25.148438 -108.921875 26.300781 -107.675781 26.875 -105.1875 L 27.28125 -104.796875 C 27.007812 -102.535156 25.851562 -101.40625 23.8125 -101.40625 L 14.90625 -95.8125 C 14.90625 -95.320312 13.992188 -94.191406 12.171875 -92.421875 C 10.929688 -88.910156 9.113281 -87.15625 6.71875 -87.15625 C 5.5625 -87.644531 4.921875 -88.15625 4.796875 -88.6875 L 4.796875 -90.15625 C 5.015625 -93.789062 7.609375 -98.179688 12.578125 -103.328125 C 16.484375 -106.296875 20.097656 -108.160156 23.421875 -108.921875 Z M 84.703125 -50.828125 L 83.5 -48.96875 C 84.125 -47.457031 84.65625 -46.703125 85.09375 -46.703125 L 85.4375 -49.296875 L 85.4375 -50.828125 Z M 84.703125 -50.828125 "/></g></g></g><g fill="#ffffff" fill-opacity="1"><g transform="translate(521.040971, 175.031363)"><g/></g></g><g fill="#ffffff" fill-opacity="1"><g transform="translate(558.899948, 175.031363)"><g><path d="M 101.734375 -125.15625 L 102.59375 -125.15625 C 108.9375 -125.15625 113.019531 -121.425781 114.84375 -113.96875 L 115.3125 -108.390625 L 115.3125 -106.390625 C 121.207031 -102.578125 124.15625 -98.519531 124.15625 -94.21875 L 124.15625 -92.15625 L 123.359375 -86.5625 C 125.304688 -79.59375 126.859375 -72.492188 128.015625 -65.265625 L 128.015625 -62.75 L 126.75 -47.5 C 130.125 -43.726562 131.8125 -38.296875 131.8125 -31.203125 C 131.8125 -23.835938 127.441406 -17.25 118.703125 -11.4375 L 111.515625 -6.859375 L 92.421875 -0.265625 L 89.890625 0.203125 C 84.296875 0.203125 78.796875 -1.640625 73.390625 -5.328125 L 72.921875 -5.328125 C 70.484375 -3.328125 68.378906 -2.328125 66.609375 -2.328125 L 64.46875 -2.328125 C 60.257812 -3.523438 58.15625 -5.546875 58.15625 -8.390625 L 58.15625 -13.4375 L 55.5625 -13.4375 C 55.5625 -9.625 52.320312 -5.234375 45.84375 -0.265625 C 41.539062 2.441406 35.460938 3.796875 27.609375 3.796875 C 21.617188 3.085938 15.410156 0.046875 8.984375 -5.328125 C 1.660156 -14.992188 -2 -23.972656 -2 -32.265625 L -2 -39.859375 C -2 -47.085938 -0.3125 -57.910156 3.0625 -72.328125 C -0.3125 -74.367188 -2 -78.445312 -2 -84.5625 L -2 -89.09375 C -2 -94.28125 1.660156 -99.691406 8.984375 -105.328125 C 13.421875 -107.722656 16.679688 -108.921875 18.765625 -108.921875 L 22.5625 -108.921875 C 28.769531 -115.660156 34.554688 -119.03125 39.921875 -119.03125 L 45.84375 -119.03125 C 48.457031 -119.03125 51.5625 -117.523438 55.15625 -114.515625 L 61.546875 -110.921875 C 64.742188 -116.015625 68.820312 -119.226562 73.78125 -120.5625 C 77.195312 -121.9375 80.726562 -122.625 84.375 -122.625 L 93.28125 -121.625 C 97.226562 -123.976562 100.046875 -125.15625 101.734375 -125.15625 Z M 65.34375 -105.328125 C 68.175781 -99.160156 69.59375 -90.019531 69.59375 -77.90625 C 68.175781 -62.34375 65.207031 -54.5625 60.6875 -54.5625 L 59.421875 -54.5625 C 57.421875 -55.757812 56.421875 -57.46875 56.421875 -59.6875 L 58.953125 -78.984375 L 58.546875 -79.4375 L 58.546875 -79.96875 L 58.953125 -80.515625 C 58.109375 -97.054688 54.738281 -106.859375 48.84375 -109.921875 L 40.328125 -111.984375 L 38.65625 -111.984375 C 30.9375 -111.984375 21.753906 -100.296875 11.109375 -76.921875 C 8.003906 -65.921875 6.453125 -57.289062 6.453125 -51.03125 C 6.453125 -34.800781 9.289062 -21.9375 14.96875 -12.4375 C 19.132812 -7.03125 24.898438 -4.328125 32.265625 -4.328125 C 40.691406 -4.328125 46.21875 -7.539062 48.84375 -13.96875 L 49.234375 -16.03125 C 41.023438 -21.664062 36.921875 -29.273438 36.921875 -38.859375 L 36.921875 -43.453125 C 37.546875 -57.285156 40.234375 -64.203125 44.984375 -64.203125 L 46.25 -64.203125 L 48.375 -60.6875 C 45 -53.539062 43.3125 -46.597656 43.3125 -39.859375 C 43.976562 -33.597656 46.375 -28.1875 50.5 -23.625 C 54.625 -21.582031 58.4375 -20.5625 61.9375 -20.5625 C 65.84375 -20.5625 70.503906 -23.265625 75.921875 -28.671875 C 78.753906 -34.347656 80.171875 -38.585938 80.171875 -41.390625 L 80.171875 -48.5 L 76.3125 -67.265625 L 75.921875 -68.796875 C 76.585938 -70.835938 77.582031 -71.859375 78.90625 -71.859375 C 81.613281 -71.859375 86.40625 -66.445312 93.28125 -55.625 C 97.5 -49.851562 99.609375 -45.796875 99.609375 -43.453125 C 99.023438 -41.410156 98.46875 -40.390625 97.9375 -40.390625 L 97.546875 -40.859375 L 95.40625 -39.859375 C 94.695312 -39.859375 92.859375 -41.894531 89.890625 -45.96875 L 89.484375 -45.96875 L 89.890625 -45.4375 L 89.890625 -44.90625 C 88.203125 -35.550781 85.519531 -28.125 81.84375 -22.625 C 79.488281 -19.5625 77.9375 -18.03125 77.1875 -18.03125 C 78.15625 -14.394531 85.070312 -12.195312 97.9375 -11.4375 L 99.203125 -11.4375 C 100.492188 -11.4375 104.863281 -16.847656 112.3125 -27.671875 C 116.570312 -36.722656 118.703125 -46.375 118.703125 -56.625 C 118.703125 -69.3125 113.890625 -85.054688 104.265625 -103.859375 C 98.140625 -110.515625 92.503906 -114.21875 87.359375 -114.96875 L 80.96875 -114.96875 C 76.664062 -114.96875 72.164062 -112.109375 67.46875 -106.390625 Z M 12.84375 -44.90625 L 13.640625 -44.90625 L 15.765625 -41.921875 L 15.765625 -35.328125 C 18.429688 -23.441406 21.40625 -17.5 24.6875 -17.5 L 25.078125 -17.03125 L 25.078125 -15.5 C 23.796875 -12.789062 22.242188 -11.4375 20.421875 -11.4375 L 20.03125 -11.4375 C 13.820312 -17.070312 10.71875 -24.859375 10.71875 -34.796875 L 11.109375 -43.453125 Z M 29.34375 -15.5 L 30.203125 -15.5 L 31.46875 -13.96875 L 31.46875 -12.4375 C 29.957031 -9.375 27.273438 -7.84375 23.421875 -7.84375 L 22.15625 -9.90625 C 24.550781 -13.632812 26.945312 -15.5 29.34375 -15.5 Z M 29.34375 -15.5 "/></g></g></g><g fill="#ffffff" fill-opacity="1"><g transform="translate(683.854456, 175.031363)"><g><path d="M 46.640625 -122.890625 C 46.640625 -122.359375 47.082031 -122.09375 47.96875 -122.09375 L 65.265625 -122.890625 C 77.421875 -122.890625 88.664062 -117.164062 99 -105.71875 C 100.15625 -104.394531 101.3125 -103.734375 102.46875 -103.734375 C 103.613281 -103.734375 105.765625 -97.742188 108.921875 -85.765625 L 108.515625 -85.359375 L 108.921875 -81.234375 L 108.921875 -80.4375 C 108.921875 -67.039062 107.34375 -56.707031 104.1875 -49.4375 C 104.1875 -48.144531 103.898438 -47.191406 103.328125 -46.578125 L 103.328125 -45.78125 C 105.054688 -42.09375 105.921875 -38.410156 105.921875 -34.734375 L 105.453125 -31.875 C 106.921875 -28.457031 107.65625 -26.148438 107.65625 -24.953125 L 107.65625 -24.15625 C 107.65625 -21.175781 105.769531 -18.867188 102 -17.234375 L 102 -16.375 C 102.882812 -15.394531 103.75 -13.351562 104.59375 -10.25 L 104.1875 -9.84375 L 104.1875 -9.453125 L 104.59375 -7.84375 C 102.59375 -3.457031 98.554688 -1.265625 92.484375 -1.265625 L 90.359375 -1.265625 C 89.023438 -1.265625 85.695312 -2.375 80.375 -4.59375 C 75.269531 -1.3125 68.347656 0.859375 59.609375 1.921875 C 59.609375 2.460938 56.726562 2.882812 50.96875 3.1875 C 44.800781 3.1875 40.1875 2.632812 37.125 1.53125 L 36.734375 1.921875 L 24.625 -4.125 C 24.53125 -4.613281 23.375 -5.4375 21.15625 -6.59375 L 17.234375 -5.390625 C 12.128906 -6.453125 8.820312 -7.539062 7.3125 -8.65625 C 3.28125 -11.882812 1.265625 -15.410156 1.265625 -19.234375 L 1.265625 -21.296875 C 2.191406 -25.910156 3.054688 -28.21875 3.859375 -28.21875 C -0.929688 -38.28125 -3.523438 -48.082031 -3.921875 -57.625 L -3.53125 -58.015625 L -3.53125 -58.421875 L -3.921875 -64.546875 C -3.742188 -66.984375 -3.457031 -68.203125 -3.0625 -68.203125 L -3.53125 -68.59375 L -3.53125 -69 C -2.945312 -69.976562 -2.503906 -71.882812 -2.203125 -74.71875 C -6.546875 -77.644531 -8.71875 -83.5 -8.71875 -92.28125 C -8.71875 -96.226562 -5.96875 -100.3125 -0.46875 -104.53125 L 6.859375 -107.390625 C 9.203125 -116.921875 13.96875 -121.6875 21.15625 -121.6875 L 21.5625 -121.6875 C 25.550781 -121.6875 28.429688 -119.914062 30.203125 -116.375 C 37.921875 -120.71875 43.398438 -122.890625 46.640625 -122.890625 Z M 1.65625 -121.234375 C 6.007812 -121.234375 8.1875 -119.476562 8.1875 -115.96875 L 7.71875 -115.96875 L 8.1875 -114.703125 C 8.1875 -112.046875 7.03125 -110.007812 4.71875 -108.59375 L 1.265625 -108.59375 C -2.503906 -109.300781 -4.390625 -110.804688 -4.390625 -113.109375 L -4.390625 -114.3125 C -3.460938 -118.65625 -2.019531 -120.828125 -0.0625 -120.828125 Z M 7.71875 -68.203125 L 7.71875 -61.671875 C 8.289062 -56.085938 9.441406 -49.96875 11.171875 -43.3125 C 11.578125 -39.632812 13.019531 -36.375 15.5 -33.53125 C 16.125 -33.488281 17.566406 -30.492188 19.828125 -24.546875 L 24.15625 -18.828125 L 26.34375 -14.765625 C 34.195312 -10.691406 41.117188 -8.65625 47.109375 -8.65625 L 48.375 -8.65625 C 56.757812 -8.65625 67.425781 -11.515625 80.375 -17.234375 C 86.539062 -20.421875 90.578125 -24.898438 92.484375 -30.671875 L 93.8125 -37.1875 L 93.8125 -39.65625 L 93.34375 -39.65625 C 91.257812 -38.539062 87.800781 -37.984375 82.96875 -37.984375 L 82.578125 -37.984375 C 77.960938 -37.984375 70.882812 -40.582031 61.34375 -45.78125 L 55.75 -50.234375 L 54.890625 -36.796875 C 54.140625 -35.148438 53.117188 -34.328125 51.828125 -34.328125 L 50.109375 -35.125 L 49.703125 -34.734375 L 49.234375 -34.734375 C 46.660156 -34.734375 45.375 -37.59375 45.375 -43.3125 C 45.375 -50.457031 44.644531 -58.085938 43.1875 -66.203125 L 43.640625 -66.203125 L 43.1875 -66.609375 L 43.1875 -67 C 43.1875 -69.082031 44.78125 -70.300781 47.96875 -70.65625 L 48.375 -70.265625 L 48.84375 -70.265625 L 52.296875 -71.0625 C 56.335938 -67.550781 58.359375 -64.15625 58.359375 -60.875 C 65.453125 -51.875 71.503906 -47.375 76.515625 -47.375 C 85.878906 -48.476562 91.359375 -51.335938 92.953125 -55.953125 C 95.835938 -63.054688 97.28125 -71.773438 97.28125 -82.109375 L 97.28125 -84.96875 C 97.28125 -92.375 94.679688 -97.539062 89.484375 -100.46875 C 82.566406 -107.03125 75.207031 -110.976562 67.40625 -112.3125 L 58.75 -113.515625 C 52.757812 -113.515625 44.6875 -110.648438 34.53125 -104.921875 C 20.25 -91.222656 12.910156 -82.796875 12.515625 -79.640625 C 9.316406 -74.097656 7.71875 -70.285156 7.71875 -68.203125 Z M 71.71875 -95.546875 L 75.1875 -91.09375 C 77.050781 -92.414062 78.644531 -93.078125 79.96875 -93.078125 L 81.703125 -91.484375 L 81.703125 -90.21875 L 78.640625 -83.296875 L 84.703125 -70.65625 C 84.703125 -69.769531 83.546875 -68.6875 81.234375 -67.40625 C 78.398438 -67.40625 76.382812 -69.175781 75.1875 -72.71875 L 74.78125 -72.71875 C 73.851562 -68.90625 72.257812 -67 70 -67 C 68.800781 -67.351562 67.9375 -68.019531 67.40625 -69 C 67.40625 -70.6875 68.269531 -74.632812 70 -80.84375 C 66.84375 -87.09375 64.820312 -90.640625 63.9375 -91.484375 L 63.9375 -92.28125 C 66.070312 -94.457031 68.664062 -95.546875 71.71875 -95.546875 Z M 15.109375 -49.828125 L 16.375 -49.828125 C 17.125 -49.035156 18.273438 -48.640625 19.828125 -48.640625 C 25.546875 -36.929688 29.582031 -30.675781 31.9375 -29.875 C 34.414062 -26.0625 37.742188 -23.46875 41.921875 -22.09375 C 42.492188 -22.09375 42.78125 -21.691406 42.78125 -20.890625 L 43.640625 -20.890625 C 43.773438 -21.953125 44.195312 -22.484375 44.90625 -22.484375 L 46.640625 -22.484375 L 48.84375 -20.5 C 47.820312 -15.832031 46.800781 -13.5 45.78125 -13.5 L 43.1875 -13.5 C 42.519531 -13.5 42.097656 -14.457031 41.921875 -16.375 L 42.3125 -16.828125 L 41.921875 -16.828125 C 40.316406 -15.453125 38.585938 -14.765625 36.734375 -14.765625 C 28.484375 -20.398438 23.132812 -26.101562 20.6875 -31.875 C 18.03125 -36.394531 16.015625 -41.847656 14.640625 -48.234375 Z M 42.3125 -20.5 L 42.3125 -18.4375 L 42.78125 -18.4375 L 43.1875 -20.5 Z M 42.3125 -20.5 "/></g></g></g></svg>