<svg xmlns="http://www.w3.org/2000/svg" xmlns:xlink="http://www.w3.org/1999/xlink" width="1080" zoomAndPan="magnify" viewBox="0 0 810 225" height="300" preserveAspectRatio="xMidYMid meet" version="1.0"><defs><g/></defs><g fill="#ffffff" fill-opacity="1"><g transform="translate(104.38769, 166.105389)"><g><path d="M 18.421875 -101.921875 C 23.191406 -99.234375 28.78125 -97.550781 35.1875 -96.875 L 35.1875 -97.421875 L 35.828125 -96.875 L 36.484375 -96.78125 L 46.65625 -96.328125 C 53.375 -81.109375 63.207031 -64.820312 76.15625 -47.46875 L 87.15625 -36.65625 C 99.195312 -28.164062 107.265625 -23.675781 111.359375 -23.1875 L 111.265625 -21.90625 C 107.722656 -22.269531 101.003906 -21.503906 91.109375 -19.609375 C 81.390625 -21.929688 70.507812 -28.472656 58.46875 -39.234375 C 50.101562 -48.941406 43.140625 -59.722656 37.578125 -71.578125 C 34.210938 -75.972656 32.59375 -78.722656 32.71875 -79.828125 L 31.4375 -79.921875 L 30.703125 -72.953125 L 27.765625 -57.28125 L 38.671875 -57.375 L 39.234375 -57.28125 C 42.410156 -56.914062 45.738281 -54.015625 49.21875 -48.578125 L 49.859375 -48.390625 L 49.671875 -45.921875 C 31.710938 -46.347656 22.425781 -43.6875 21.8125 -37.9375 L 15.3125 -24.5625 L 16.859375 -21.8125 L 15.953125 -19.984375 L 8.53125 -21.453125 L 7.796875 -21.53125 L -13.9375 -22.546875 L -13.75 -23.828125 C -7.820312 -30.054688 -3.023438 -36.804688 0.640625 -44.078125 L 0.1875 -52.515625 L 5.59375 -54.4375 L 13.75 -81.84375 L 13.109375 -81.84375 L 13.75 -82.484375 L 15.390625 -97.703125 L 15.03125 -101 Z M 18.421875 -101.921875 "/></g></g></g><g fill="#ffffff" fill-opacity="1"><g transform="translate(181.740295, 166.105389)"><g><path d="M 25.203125 -82.578125 C 25.390625 -81.234375 25.570312 -79.828125 25.75 -78.359375 C 28.070312 -69.566406 29.601562 -59.578125 30.34375 -48.390625 L 45.640625 -47.9375 C 53.335938 -48.664062 57.769531 -50.40625 58.9375 -53.15625 C 59.476562 -58.351562 56.023438 -62.691406 48.578125 -66.171875 C 48.640625 -66.847656 46.625 -68.128906 42.53125 -70.015625 C 35.320312 -74.597656 29.546875 -78.785156 25.203125 -82.578125 Z M 78 -44.453125 C 79.09375 -44.328125 80.5 -44.144531 82.21875 -43.90625 L 91.5625 -39.046875 C 95.65625 -36.171875 98.066406 -33.296875 98.796875 -30.421875 C 101.484375 -25.898438 101.394531 -21.046875 98.53125 -15.859375 C 97 -7.609375 78.757812 3.9375 43.8125 18.78125 C 41.675781 19.882812 40.421875 21.078125 40.046875 22.359375 C 31.492188 18.578125 27.398438 16.101562 27.765625 14.9375 L 28.234375 13.296875 C 34.160156 3.941406 37.828125 -3.054688 39.234375 -7.703125 C 42.285156 -18.023438 40.390625 -24.195312 33.546875 -26.21875 L 33.09375 -27.765625 C 41.457031 -28.742188 46.222656 -29.050781 47.390625 -28.6875 C 55.203125 -24.78125 57.707031 -18.085938 54.90625 -8.609375 L 53.25 -3.03125 C 52.570312 -0.882812 51.992188 0.21875 51.515625 0.28125 L 51.421875 0.734375 C 53.003906 1.222656 56.332031 -0.488281 61.40625 -4.40625 L 68.734375 -7.875 C 73.566406 -11 77.171875 -15.15625 79.546875 -20.34375 C 79.984375 -23.644531 79.710938 -25.445312 78.734375 -25.75 C 76.585938 -32.226562 69.53125 -37.148438 57.5625 -40.515625 C 57.25 -40.453125 56.972656 -40.421875 56.734375 -40.421875 L 37.671875 -40.609375 L 30.703125 -39.6875 C 31.253906 -26.300781 31.101562 -13.894531 30.25 -2.46875 L 23.09375 -4.40625 L 14.015625 -4.40625 L 14.109375 -19.25 C 15.640625 -46.070312 10.816406 -73.660156 -0.359375 -102.015625 L -0.359375 -102.46875 C -2.679688 -108.269531 -4.640625 -112.671875 -6.234375 -115.671875 L -6.140625 -116.953125 C -5.648438 -121.046875 0.796875 -123.125 13.203125 -123.1875 C 17.296875 -122.75 19.921875 -119.234375 21.078125 -112.640625 L 21.90625 -112.546875 C 31.738281 -96.109375 50.007812 -79.179688 76.71875 -61.765625 C 80.988281 -58.410156 83.859375 -55.113281 85.328125 -51.875 C 84.960938 -48.820312 82.519531 -46.347656 78 -44.453125 Z M 78 -44.453125 "/></g></g></g><g fill="#ffffff" fill-opacity="1"><g transform="translate(277.9728, 166.105389)"><g><path d="M 37.203125 -35.5625 C 32.140625 -31.644531 26.429688 -30.332031 20.078125 -31.625 C 11.460938 -32.539062 5.078125 -38.800781 0.921875 -50.40625 C -0.0546875 -53.34375 -0.300781 -56.976562 0.1875 -61.3125 C 0.851562 -67.238281 4.179688 -72.492188 10.171875 -77.078125 L 10.8125 -76.890625 C 17.65625 -73.109375 20.957031 -69.78125 20.71875 -66.90625 L 15.671875 -56.453125 C 15.054688 -50.460938 17.742188 -45.484375 23.734375 -41.515625 C 27.222656 -43.109375 28.535156 -47.265625 27.671875 -53.984375 C 25.171875 -64.859375 20.863281 -72.800781 14.75 -77.8125 C 9.007812 -80.132812 6.203125 -81.722656 6.328125 -82.578125 C 6.390625 -83.253906 12.316406 -84.722656 24.109375 -86.984375 L 25.390625 -86.890625 C 37.117188 -79.796875 43.929688 -71.609375 45.828125 -62.328125 L 46.5625 -57.09375 L 45.921875 -57.09375 C 46.710938 -48.664062 43.804688 -41.488281 37.203125 -35.5625 Z M 11 -90.453125 L 14.84375 -90 L 15.390625 -89.265625 L 16.125 -89.8125 L 17.96875 -89.640625 L 18.609375 -89 L 19.25 -88.90625 L 19.890625 -89.359375 L 20.4375 -88.8125 L 20.34375 -88.171875 L 3.9375 -84.140625 L -0.546875 -85.234375 L -5.5 -85.78125 L -5.40625 -86.984375 Z M 11 -90.453125 "/></g></g></g><g fill="#ffffff" fill-opacity="1"><g transform="translate(330.671571, 166.105389)"><g><path d="M 55.90625 -73.6875 C 54.5 -59.332031 51.445312 -46.710938 46.75 -35.828125 C 40.144531 -25.566406 34.003906 -20.679688 28.328125 -21.171875 L 22.453125 -21.71875 C 17.140625 -22.207031 11.609375 -28.410156 5.859375 -40.328125 C 1.765625 -52.796875 0.0546875 -62.753906 0.734375 -70.203125 L 0.828125 -71.484375 C 1.128906 -74.546875 4.335938 -75.800781 10.453125 -75.25 L 20.4375 -77.53125 L 21.078125 -76.890625 L 19.703125 -62.59375 C 18.972656 -54.34375 21.691406 -45.789062 27.859375 -36.9375 L 29.6875 -36.109375 C 32.132812 -38.429688 34.582031 -43.441406 37.03125 -51.140625 L 38.21875 -64.15625 C 39.007812 -72.582031 37.695312 -82.082031 34.28125 -92.65625 L 34.375 -93.9375 C 36.320312 -98.15625 41.515625 -99.898438 49.953125 -99.171875 L 55.078125 -98.625 C 57.035156 -96.351562 57.3125 -88.039062 55.90625 -73.6875 Z M 55.90625 -73.6875 "/></g></g></g><g fill="#ffffff" fill-opacity="1"><g transform="translate(391.710463, 166.105389)"><g><path d="M 4.578125 -98.625 C 17.347656 -98.132812 23.796875 -98.5 23.921875 -99.71875 C 25.691406 -106.863281 27.769531 -110.285156 30.15625 -109.984375 L 48.9375 -111.171875 L 48.84375 -110.53125 L 45.28125 -100.640625 L 45.828125 -100.640625 C 61.773438 -101.921875 75.921875 -104.023438 88.265625 -106.953125 L 88.265625 -106.40625 L 113.375 -113.921875 L 114.015625 -113.1875 L 113.921875 -112.640625 C 110.191406 -104.023438 106.953125 -99.867188 104.203125 -100.171875 C 86.734375 -93.691406 67.914062 -89.476562 47.75 -87.53125 C 41.695312 -87.707031 38.519531 -85.9375 38.21875 -82.21875 L 30.609375 -65.625 C 28.410156 -57.070312 26.703125 -49.375 25.484375 -42.53125 L 25.84375 -32.8125 L 27.03125 -32.71875 L 27.125 -34 L 44.8125 -30.703125 L 44.71875 -30.15625 C 41.113281 -26.300781 38.304688 -22.113281 36.296875 -17.59375 L 33.171875 -17.875 C 29.390625 -18.300781 23.707031 -17.203125 16.125 -14.578125 C 12.03125 -15.066406 9.160156 -22.210938 7.515625 -36.015625 L 7.328125 -46.375 L 8.0625 -46.921875 L 7.703125 -50.140625 L 7.875 -51.421875 L 8.609375 -51.96875 L 8.0625 -52.703125 L 9.890625 -64.703125 L 9.984375 -65.34375 L 15.390625 -85.875 L 11.734375 -86.984375 L 9.171875 -87.25 L 5.859375 -86.984375 L 4.578125 -87.0625 L 4.125 -87.796875 L -0.640625 -87.53125 L -4.484375 -89 L -4.765625 -93.765625 C -3.484375 -97.429688 -0.367188 -99.050781 4.578125 -98.625 Z M 4.578125 -98.625 "/></g></g></g><g fill="#ffffff" fill-opacity="1"><g transform="translate(436.893933, 166.105389)"><g/></g></g><g fill="#ffffff" fill-opacity="1"><g transform="translate(519.562249, 166.105389)"><g><path d="M 51.59375 -119.875 C 67.726562 -114.625 75.671875 -110.988281 75.421875 -108.96875 C 78.660156 -91.988281 84.648438 -74.023438 93.390625 -55.078125 C 99.316406 -43.648438 106.128906 -33.265625 113.828125 -23.921875 C 127.765625 -8.765625 139.648438 0.1875 149.484375 2.9375 L 149.390625 3.578125 L 148.65625 4.21875 L 148.109375 3.484375 L 143.53125 3.578125 L 141.046875 3.390625 L 128.3125 2.65625 C 117.070312 0.207031 105.3125 -7.914062 93.03125 -21.71875 C 81.050781 -38.15625 73.535156 -51.8125 70.484375 -62.6875 C 67.734375 -68.863281 66.421875 -72.835938 66.546875 -74.609375 L 65.890625 -74.703125 L 65.8125 -73.40625 C 67.332031 -63.570312 67.546875 -53.492188 66.453125 -43.171875 C 65.535156 -35.046875 63.734375 -28.382812 61.046875 -23.1875 L 40.609375 -23.546875 C 36.078125 -31.984375 29.875 -42.035156 22 -53.703125 L 22.265625 -50.5 L 21.078125 -39.140625 C 20.648438 -35.285156 19.304688 -30.488281 17.046875 -24.75 L 17.59375 -24.65625 C 16.988281 -23.007812 16.070312 -22.242188 14.84375 -22.359375 L -1.46875 -26.765625 L -2.109375 -26.765625 L -2.015625 -27.5 L 3.390625 -48.03125 L 3.109375 -50.59375 L 3.9375 -52.515625 L 3.484375 -54.4375 L 3.578125 -55.71875 L 4.21875 -55.625 L 4.671875 -77.453125 L 5.21875 -77.359375 C 4.613281 -79.734375 4.523438 -82.726562 4.953125 -86.34375 L 5.59375 -86.25 C 15.425781 -88.195312 21.71875 -89.019531 24.46875 -88.71875 C 26.851562 -79.851562 33.578125 -68.640625 44.640625 -55.078125 L 45.828125 -53.703125 L 47.015625 -53.609375 L 49.3125 -62.96875 C 50.34375 -72.375 48.660156 -88.625 44.265625 -111.71875 L 43.625 -111.71875 C 47.414062 -116.550781 50.070312 -119.269531 51.59375 -119.875 Z M 51.59375 -119.875 "/></g></g></g><g fill="#ffffff" fill-opacity="1"><g transform="translate(621.568699, 166.105389)"><g><path d="M 97.96875 -48.84375 C 76.707031 -46.039062 57.738281 -38.679688 41.0625 -26.765625 L 31.796875 -18.78125 L 15.21875 -20.53125 C 14.414062 -20.59375 14.078125 -21.296875 14.203125 -22.640625 L 14.9375 -23.09375 C 15.914062 -38.863281 14.847656 -46.898438 11.734375 -47.203125 L 6.421875 -51.59375 L 6.5 -52.328125 C 6.5625 -52.941406 8.367188 -53.800781 11.921875 -54.90625 L 12 -56.1875 C 12.1875 -57.46875 10.507812 -61.710938 6.96875 -68.921875 L 0.453125 -68.28125 L -0.453125 -71.671875 L 0.28125 -72.125 L 0.359375 -72.859375 L 0.28125 -78.640625 L 0.359375 -79.1875 L 1.828125 -80.375 L 2.390625 -79.640625 C 9.410156 -78.847656 23.367188 -81.203125 44.265625 -86.703125 C 62.535156 -93.117188 72.648438 -97.820312 74.609375 -100.8125 L 81.109375 -89.8125 L 81.015625 -88.53125 C 64.035156 -78.394531 44.546875 -72.378906 22.546875 -70.484375 L 22.453125 -69.109375 L 26.671875 -61.046875 L 27.953125 -60.859375 C 49.953125 -68.796875 63.425781 -72.492188 68.375 -71.953125 L 74.609375 -64.890625 L 74.609375 -64.25 C 74.179688 -63.570312 67.796875 -62.132812 55.453125 -59.9375 L 29.609375 -52.328125 C 30.035156 -48.722656 31.070312 -44.570312 32.71875 -39.875 C 46.832031 -48.300781 66.320312 -54.316406 91.1875 -57.921875 L 101.546875 -59.390625 C 105.890625 -58.347656 107.539062 -55.289062 106.5 -50.21875 L 101.546875 -49.125 Z M 97.96875 -48.84375 "/></g></g></g></svg>