<svg xmlns="http://www.w3.org/2000/svg" xmlns:xlink="http://www.w3.org/1999/xlink" width="377" zoomAndPan="magnify" viewBox="0 0 283.5 283.500005" height="377" preserveAspectRatio="xMidYMid meet" version="1.0"><defs><g/></defs><g fill="#000000" fill-opacity="1"><g transform="translate(96.009044, 121.579838)"><g><path d="M 2.8125 -6.515625 C 2.894531 -6.191406 2.957031 -5.757812 3 -5.21875 L 3.1875 -2.46875 L 2.828125 -2 L 1.453125 -2.03125 C 1.390625 -3.84375 1.273438 -5.363281 1.109375 -6.59375 L 0.828125 -8.203125 C 0.378906 -9.890625 -0.078125 -11.078125 -0.546875 -11.765625 L -0.53125 -12.046875 C -0.289062 -12.546875 0.109375 -12.785156 0.671875 -12.765625 C 1.097656 -12.742188 1.425781 -12.238281 1.65625 -11.25 C 1.925781 -10.800781 2.222656 -9.816406 2.546875 -8.296875 L 2.59375 -7.96875 C 3.695312 -8.363281 4.3125 -8.582031 4.4375 -8.625 C 5.570312 -8.164062 6.125 -7.828125 6.09375 -7.609375 C 5.988281 -5.492188 6.289062 -3.554688 7 -1.796875 C 7.613281 -0.523438 8.6875 0.570312 10.21875 1.5 L 10.203125 1.5625 L 10.109375 1.625 L 10.0625 1.53125 L 9.46875 1.59375 L 9.203125 1.5625 L 8.109375 1.484375 C 7.171875 1.304688 6.289062 0.425781 5.46875 -1.15625 C 4.863281 -2.21875 4.507812 -3.945312 4.40625 -6.34375 L 3.921875 -6.75 C 3.492188 -6.75 3.125 -6.671875 2.8125 -6.515625 Z M 2.8125 -6.515625 "/></g></g></g><g fill="#000000" fill-opacity="1"><g transform="translate(102.869875, 121.579838)"><g><path d="M 10.875 -5.421875 C 8.519531 -5.109375 6.414062 -4.289062 4.5625 -2.96875 L 3.53125 -2.09375 L 1.6875 -2.28125 C 1.601562 -2.289062 1.566406 -2.367188 1.578125 -2.515625 L 1.65625 -2.5625 C 1.769531 -4.3125 1.648438 -5.203125 1.296875 -5.234375 L 0.71875 -5.734375 L 0.71875 -5.8125 C 0.726562 -5.875 0.929688 -5.96875 1.328125 -6.09375 L 1.328125 -6.234375 C 1.347656 -6.378906 1.164062 -6.851562 0.78125 -7.65625 L 0.046875 -7.578125 L -0.046875 -7.953125 L 0.03125 -8.015625 L 0.046875 -8.09375 L 0.03125 -8.734375 L 0.046875 -8.796875 L 0.203125 -8.921875 L 0.265625 -8.84375 C 1.046875 -8.757812 2.597656 -9.019531 4.921875 -9.625 C 6.941406 -10.34375 8.0625 -10.867188 8.28125 -11.203125 L 9 -9.96875 L 9 -9.828125 C 7.113281 -8.703125 4.945312 -8.035156 2.5 -7.828125 L 2.5 -7.671875 L 2.96875 -6.78125 L 3.109375 -6.765625 C 5.546875 -7.640625 7.039062 -8.046875 7.59375 -7.984375 L 8.28125 -7.203125 L 8.28125 -7.140625 C 8.238281 -7.054688 7.53125 -6.894531 6.15625 -6.65625 L 3.28125 -5.8125 C 3.332031 -5.414062 3.453125 -4.953125 3.640625 -4.421875 C 5.203125 -5.359375 7.363281 -6.03125 10.125 -6.4375 L 11.28125 -6.59375 C 11.757812 -6.476562 11.941406 -6.140625 11.828125 -5.578125 L 11.28125 -5.453125 Z M 10.875 -5.421875 "/></g></g></g><g fill="#000000" fill-opacity="1"><g transform="translate(112.204271, 121.579838)"><g><path d="M 3.890625 -3.4375 C 3.910156 -3.25 3.929688 -3.03125 3.953125 -2.78125 L 3.984375 -2.703125 C 4.171875 -1.585938 4.441406 -0.722656 4.796875 -0.109375 L 4.625 0.296875 L 2.75 -0.015625 L 2.375 -1.640625 L 2.015625 -3.9375 C 1.742188 -4.195312 1.46875 -4.550781 1.1875 -5 C 0.65625 -6.207031 0.3125 -7.609375 0.15625 -9.203125 C 0 -10.796875 0.03125 -11.71875 0.25 -11.96875 L 0.828125 -12.03125 C 1.765625 -12.113281 2.335938 -11.921875 2.546875 -11.453125 L 2.5625 -11.3125 C 2.1875 -10.132812 2.039062 -9.078125 2.125 -8.140625 L 2.265625 -6.703125 C 2.535156 -5.847656 2.804688 -5.289062 3.078125 -5.03125 L 3.28125 -5.125 C 3.96875 -6.101562 4.269531 -7.050781 4.1875 -7.96875 L 4.03125 -9.5625 L 4.109375 -9.625 L 5.21875 -9.375 C 5.894531 -9.4375 6.25 -9.296875 6.28125 -8.953125 L 6.296875 -8.8125 C 6.367188 -7.988281 6.175781 -6.882812 5.71875 -5.5 C 5.082031 -4.175781 4.472656 -3.488281 3.890625 -3.4375 Z M 3.890625 -3.4375 "/></g></g></g><g fill="#000000" fill-opacity="1"><g transform="translate(118.484885, 121.579838)"><g/></g></g><g fill="#000000" fill-opacity="1"><g transform="translate(127.66659, 121.579838)"><g><path d="M 2.4375 -7.21875 C 2.457031 -6.238281 2.507812 -5.363281 2.59375 -4.59375 L 2.921875 -3.578125 L 3.046875 -3.609375 L 3.015625 -3.734375 L 5.015625 -3.921875 L 5.015625 -3.859375 C 4.753906 -3.335938 4.582031 -2.804688 4.5 -2.265625 L 4.15625 -2.203125 C 3.738281 -2.128906 3.164062 -1.835938 2.4375 -1.328125 C 1.976562 -1.253906 1.453125 -1.9375 0.859375 -3.375 L 0.546875 -4.46875 L 0.59375 -4.546875 L 0.453125 -4.875 L 0.4375 -5.015625 L 0.515625 -5.09375 L 0.421875 -5.15625 L 0.25 -6.5 L 0.25 -6.578125 L 0.234375 -7.921875 L 2.65625 -8.421875 Z M 1.765625 -9.28125 C 0.765625 -9.15625 0.203125 -9.515625 0.078125 -10.359375 C -0.140625 -11.035156 0.128906 -11.398438 0.890625 -11.453125 L 1.34375 -11.40625 C 1.851562 -11.53125 2.207031 -11.175781 2.40625 -10.34375 C 2.46875 -9.726562 2.253906 -9.375 1.765625 -9.28125 Z M 1.765625 -9.28125 "/></g></g></g><g fill="#000000" fill-opacity="1"><g transform="translate(132.084395, 121.579838)"><g><path d="M 4.65625 -9.125 C 2.78125 -10.757812 1.410156 -11.679688 0.546875 -11.890625 C -1.117188 -12.742188 -2.519531 -13.234375 -3.65625 -13.359375 L -3.75 -13.640625 C -3.0625 -14.328125 -2.320312 -14.625 -1.53125 -14.53125 C -0.175781 -14.394531 2 -13.34375 5 -11.375 C 6.050781 -10.519531 6.828125 -9.597656 7.328125 -8.609375 L 7.3125 -8.421875 C 7.289062 -8.242188 6.707031 -8.085938 5.5625 -7.953125 C 5.09375 -8.460938 4.789062 -8.851562 4.65625 -9.125 Z M 4.65625 -9.125 "/></g></g></g><g fill="#000000" fill-opacity="1"><g transform="translate(138.48716, 121.579838)"><g><path d="M 5.734375 -13.3125 C 7.523438 -12.726562 8.40625 -12.320312 8.375 -12.09375 C 8.738281 -10.207031 9.40625 -8.210938 10.375 -6.109375 C 11.03125 -4.847656 11.785156 -3.695312 12.640625 -2.65625 C 14.191406 -0.96875 15.507812 0.0234375 16.59375 0.328125 L 16.59375 0.390625 L 16.515625 0.46875 L 16.453125 0.390625 L 15.9375 0.390625 L 14.25 0.296875 C 13 0.0234375 11.691406 -0.875 10.328125 -2.40625 C 8.992188 -4.238281 8.160156 -5.757812 7.828125 -6.96875 C 7.523438 -7.644531 7.378906 -8.082031 7.390625 -8.28125 L 7.3125 -8.296875 L 7.3125 -8.15625 C 7.476562 -7.0625 7.5 -5.941406 7.375 -4.796875 C 7.269531 -3.890625 7.070312 -3.148438 6.78125 -2.578125 L 4.515625 -2.609375 C 4.003906 -3.546875 3.3125 -4.664062 2.4375 -5.96875 L 2.46875 -5.609375 L 2.34375 -4.34375 C 2.289062 -3.914062 2.140625 -3.382812 1.890625 -2.75 L 1.953125 -2.734375 C 1.890625 -2.554688 1.789062 -2.472656 1.65625 -2.484375 L -0.15625 -2.96875 L -0.234375 -2.96875 L -0.21875 -3.046875 L 0.375 -5.328125 L 0.34375 -5.625 L 0.4375 -5.828125 L 0.390625 -6.046875 L 0.390625 -6.1875 L 0.46875 -6.171875 L 0.515625 -8.59375 L 0.578125 -8.59375 C 0.515625 -8.851562 0.503906 -9.1875 0.546875 -9.59375 L 0.625 -9.578125 C 1.71875 -9.796875 2.414062 -9.890625 2.71875 -9.859375 C 2.976562 -8.867188 3.722656 -7.617188 4.953125 -6.109375 L 5.09375 -5.96875 L 5.21875 -5.953125 L 5.46875 -6.984375 C 5.59375 -8.035156 5.410156 -9.84375 4.921875 -12.40625 L 4.84375 -12.40625 C 5.257812 -12.9375 5.554688 -13.238281 5.734375 -13.3125 Z M 5.734375 -13.3125 "/></g></g></g><g fill="#000000" fill-opacity="1"><g transform="translate(149.816691, 121.579838)"><g/></g></g><g fill="#000000" fill-opacity="1"><g transform="translate(158.9984, 121.579838)"><g><path d="M 0.515625 -10.953125 C 1.929688 -10.898438 2.644531 -10.941406 2.65625 -11.078125 C 2.851562 -11.867188 3.082031 -12.25 3.34375 -12.21875 L 5.4375 -12.34375 L 5.421875 -12.28125 L 5.03125 -11.171875 L 5.09375 -11.171875 C 6.863281 -11.316406 8.429688 -11.550781 9.796875 -11.875 L 9.796875 -11.8125 L 12.59375 -12.65625 L 12.65625 -12.5625 L 12.65625 -12.515625 C 12.238281 -11.554688 11.878906 -11.09375 11.578125 -11.125 C 9.628906 -10.40625 7.535156 -9.9375 5.296875 -9.71875 C 4.628906 -9.738281 4.28125 -9.539062 4.25 -9.125 L 3.40625 -7.28125 C 3.15625 -6.332031 2.960938 -5.476562 2.828125 -4.71875 L 2.875 -3.640625 L 3 -3.640625 L 3.015625 -3.78125 L 4.984375 -3.40625 L 4.96875 -3.34375 C 4.5625 -2.914062 4.25 -2.453125 4.03125 -1.953125 L 3.6875 -1.984375 C 3.257812 -2.035156 2.628906 -1.914062 1.796875 -1.625 C 1.335938 -1.675781 1.015625 -2.46875 0.828125 -4 L 0.8125 -5.15625 L 0.890625 -5.21875 L 0.859375 -5.5625 L 0.875 -5.703125 L 0.953125 -5.765625 L 0.890625 -5.859375 L 1.09375 -7.1875 L 1.109375 -7.25 L 1.703125 -9.53125 L 1.296875 -9.65625 L 1.015625 -9.6875 L 0.65625 -9.65625 L 0.515625 -9.671875 L 0.453125 -9.75 L -0.078125 -9.71875 L -0.5 -9.875 L -0.53125 -10.40625 C -0.382812 -10.8125 -0.0351562 -10.992188 0.515625 -10.953125 Z M 0.515625 -10.953125 "/></g></g></g><g fill="#000000" fill-opacity="1"><g transform="translate(164.01678, 121.579838)"><g><path d="M 10.875 -5.421875 C 8.519531 -5.109375 6.414062 -4.289062 4.5625 -2.96875 L 3.53125 -2.09375 L 1.6875 -2.28125 C 1.601562 -2.289062 1.566406 -2.367188 1.578125 -2.515625 L 1.65625 -2.5625 C 1.769531 -4.3125 1.648438 -5.203125 1.296875 -5.234375 L 0.71875 -5.734375 L 0.71875 -5.8125 C 0.726562 -5.875 0.929688 -5.96875 1.328125 -6.09375 L 1.328125 -6.234375 C 1.347656 -6.378906 1.164062 -6.851562 0.78125 -7.65625 L 0.046875 -7.578125 L -0.046875 -7.953125 L 0.03125 -8.015625 L 0.046875 -8.09375 L 0.03125 -8.734375 L 0.046875 -8.796875 L 0.203125 -8.921875 L 0.265625 -8.84375 C 1.046875 -8.757812 2.597656 -9.019531 4.921875 -9.625 C 6.941406 -10.34375 8.0625 -10.867188 8.28125 -11.203125 L 9 -9.96875 L 9 -9.828125 C 7.113281 -8.703125 4.945312 -8.035156 2.5 -7.828125 L 2.5 -7.671875 L 2.96875 -6.78125 L 3.109375 -6.765625 C 5.546875 -7.640625 7.039062 -8.046875 7.59375 -7.984375 L 8.28125 -7.203125 L 8.28125 -7.140625 C 8.238281 -7.054688 7.53125 -6.894531 6.15625 -6.65625 L 3.28125 -5.8125 C 3.332031 -5.414062 3.453125 -4.953125 3.640625 -4.421875 C 5.203125 -5.359375 7.363281 -6.03125 10.125 -6.4375 L 11.28125 -6.59375 C 11.757812 -6.476562 11.941406 -6.140625 11.828125 -5.578125 L 11.28125 -5.453125 Z M 10.875 -5.421875 "/></g></g></g><g fill="#000000" fill-opacity="1"><g transform="translate(173.351173, 121.579838)"><g><path d="M 2.046875 -11.3125 C 2.578125 -11.019531 3.195312 -10.832031 3.90625 -10.75 L 3.90625 -10.8125 L 3.984375 -10.75 L 4.046875 -10.75 L 5.1875 -10.703125 C 5.925781 -9.003906 7.015625 -7.191406 8.453125 -5.265625 L 9.671875 -4.078125 C 11.015625 -3.128906 11.910156 -2.628906 12.359375 -2.578125 L 12.359375 -2.4375 C 11.960938 -2.476562 11.210938 -2.390625 10.109375 -2.171875 C 9.035156 -2.429688 7.832031 -3.160156 6.5 -4.359375 C 5.5625 -5.429688 4.785156 -6.628906 4.171875 -7.953125 C 3.796875 -8.441406 3.617188 -8.742188 3.640625 -8.859375 L 3.484375 -8.875 L 3.40625 -8.09375 L 3.078125 -6.359375 L 4.296875 -6.375 L 4.359375 -6.359375 C 4.710938 -6.316406 5.082031 -5.992188 5.46875 -5.390625 L 5.53125 -5.375 L 5.515625 -5.09375 C 3.523438 -5.144531 2.492188 -4.851562 2.421875 -4.21875 L 1.703125 -2.734375 L 1.875 -2.421875 L 1.765625 -2.21875 L 0.953125 -2.375 L 0.859375 -2.390625 L -1.546875 -2.5 L -1.53125 -2.640625 C -0.875 -3.335938 -0.335938 -4.085938 0.078125 -4.890625 L 0.015625 -5.828125 L 0.625 -6.046875 L 1.53125 -9.09375 L 1.453125 -9.09375 L 1.53125 -9.15625 L 1.703125 -10.84375 L 1.671875 -11.21875 Z M 2.046875 -11.3125 "/></g></g></g><g fill="#000000" fill-opacity="1"><g transform="translate(181.942481, 121.579838)"><g><path d="M 3.671875 -4.84375 C 2.703125 -4.925781 2.21875 -5.019531 2.21875 -5.125 C 0.945312 -7.46875 0.238281 -9.816406 0.09375 -12.171875 L 0.09375 -13.625 L 0.4375 -15.90625 C 1.394531 -15.96875 1.988281 -16.0625 2.21875 -16.1875 L 2.359375 -16.046875 L 2.359375 -15.625 L 2.03125 -13.890625 L 2.328125 -10.9375 C 2.492188 -9.6875 2.941406 -7.679688 3.671875 -4.921875 Z M 3.640625 -1.203125 C 2.628906 -1.078125 2.0625 -1.4375 1.9375 -2.28125 C 1.726562 -2.957031 2 -3.320312 2.75 -3.375 L 3.203125 -3.328125 C 3.710938 -3.453125 4.070312 -3.097656 4.28125 -2.265625 C 4.332031 -1.640625 4.117188 -1.285156 3.640625 -1.203125 Z M 3.640625 -1.203125 "/></g></g></g><g fill="#000000" fill-opacity="1"><g transform="translate(17.752035, 150.642009)"><g/></g></g><g fill="#000000" fill-opacity="1"><g transform="translate(26.932404, 150.642009)"><g><path d="M 2.4375 -7.21875 C 2.457031 -6.238281 2.507812 -5.363281 2.59375 -4.59375 L 2.921875 -3.578125 L 3.046875 -3.609375 L 3.015625 -3.734375 L 5.015625 -3.921875 L 5.015625 -3.859375 C 4.753906 -3.335938 4.582031 -2.804688 4.5 -2.265625 L 4.15625 -2.203125 C 3.738281 -2.128906 3.164062 -1.835938 2.4375 -1.328125 C 1.976562 -1.253906 1.453125 -1.9375 0.859375 -3.375 L 0.546875 -4.46875 L 0.59375 -4.546875 L 0.453125 -4.875 L 0.4375 -5.015625 L 0.515625 -5.09375 L 0.421875 -5.15625 L 0.25 -6.5 L 0.25 -6.578125 L 0.234375 -7.921875 L 2.65625 -8.421875 Z M 1.765625 -9.28125 C 0.765625 -9.15625 0.203125 -9.515625 0.078125 -10.359375 C -0.140625 -11.035156 0.128906 -11.398438 0.890625 -11.453125 L 1.34375 -11.40625 C 1.851562 -11.53125 2.207031 -11.175781 2.40625 -10.34375 C 2.46875 -9.726562 2.253906 -9.375 1.765625 -9.28125 Z M 1.765625 -9.28125 "/></g></g></g><g fill="#000000" fill-opacity="1"><g transform="translate(31.350209, 150.642009)"><g/></g></g><g fill="#000000" fill-opacity="1"><g transform="translate(40.531914, 150.642009)"><g><path d="M 10.375 -12.203125 C 11.53125 -10.203125 12.019531 -8.367188 11.84375 -6.703125 L 11.84375 -6.625 L 11.90625 -6.546875 L 11.828125 -6.484375 L 11.78125 -6.0625 C 11.632812 -4.726562 11.273438 -3.554688 10.703125 -2.546875 L 9.90625 -2.625 L 9.859375 -2.703125 L 9.78125 -2.703125 L 9.765625 -2.640625 L 9.703125 -2.71875 L 7.71875 -2.78125 L 5.90625 -5.828125 C 5.832031 -5.085938 5.273438 -4.082031 4.234375 -2.8125 C 3.890625 -2.46875 3.328125 -2.335938 2.546875 -2.421875 C 1.460938 -2.535156 0.695312 -3.804688 0.25 -6.234375 C 0.132812 -6.972656 0.0859375 -7.664062 0.109375 -8.3125 L 2.359375 -8.640625 L 2.421875 -8.5625 L 2.40625 -8.34375 L 2.265625 -7.71875 L 2.3125 -7.515625 L 2.234375 -7.453125 L 2.234375 -7.375 C 2.335938 -5.550781 2.539062 -4.625 2.84375 -4.59375 C 2.832031 -4.445312 2.957031 -4.269531 3.21875 -4.0625 C 3.726562 -4.832031 4.03125 -5.628906 4.125 -6.453125 L 4.171875 -6.953125 C 4.273438 -7.953125 4.132812 -9.0625 3.75 -10.28125 L 3.765625 -10.40625 C 4.035156 -10.8125 4.523438 -10.976562 5.234375 -10.90625 L 6.234375 -10.859375 L 7.640625 -7.28125 C 8.242188 -5.914062 8.648438 -5.085938 8.859375 -4.796875 L 8.984375 -4.640625 C 9.171875 -5.097656 9.375 -5.863281 9.59375 -6.9375 L 9.53125 -7.171875 L 9.625 -7.21875 C 9.675781 -8.269531 9.382812 -9.5625 8.75 -11.09375 L 8.140625 -12.09375 L 8.15625 -12.15625 Z M 10.375 -12.203125 "/></g></g></g><g fill="#000000" fill-opacity="1"><g transform="translate(52.757224, 150.642009)"><g><path d="M 2.046875 -11.3125 C 2.578125 -11.019531 3.195312 -10.832031 3.90625 -10.75 L 3.90625 -10.8125 L 3.984375 -10.75 L 4.046875 -10.75 L 5.1875 -10.703125 C 5.925781 -9.003906 7.015625 -7.191406 8.453125 -5.265625 L 9.671875 -4.078125 C 11.015625 -3.128906 11.910156 -2.628906 12.359375 -2.578125 L 12.359375 -2.4375 C 11.960938 -2.476562 11.210938 -2.390625 10.109375 -2.171875 C 9.035156 -2.429688 7.832031 -3.160156 6.5 -4.359375 C 5.5625 -5.429688 4.785156 -6.628906 4.171875 -7.953125 C 3.796875 -8.441406 3.617188 -8.742188 3.640625 -8.859375 L 3.484375 -8.875 L 3.40625 -8.09375 L 3.078125 -6.359375 L 4.296875 -6.375 L 4.359375 -6.359375 C 4.710938 -6.316406 5.082031 -5.992188 5.46875 -5.390625 L 5.53125 -5.375 L 5.515625 -5.09375 C 3.523438 -5.144531 2.492188 -4.851562 2.421875 -4.21875 L 1.703125 -2.734375 L 1.875 -2.421875 L 1.765625 -2.21875 L 0.953125 -2.375 L 0.859375 -2.390625 L -1.546875 -2.5 L -1.53125 -2.640625 C -0.875 -3.335938 -0.335938 -4.085938 0.078125 -4.890625 L 0.015625 -5.828125 L 0.625 -6.046875 L 1.53125 -9.09375 L 1.453125 -9.09375 L 1.53125 -9.15625 L 1.703125 -10.84375 L 1.671875 -11.21875 Z M 2.046875 -11.3125 "/></g></g></g><g fill="#000000" fill-opacity="1"><g transform="translate(61.348532, 150.642009)"><g><path d="M 12.1875 -12.1875 L 10.671875 -9.359375 L 9.5625 -7.5625 L 6.734375 -7.28125 L 6.6875 -7.359375 L 6.703125 -7.5 C 7.421875 -8.113281 8.144531 -9.128906 8.875 -10.546875 L 8.953125 -10.609375 C 9.296875 -11.421875 9.5625 -11.914062 9.75 -12.09375 Z M 12.515625 1.953125 C 11.203125 2.648438 10.476562 3.21875 10.34375 3.65625 L 10.203125 3.640625 L 8.1875 3.0625 L 8.21875 2.9375 L 8.1875 2.5 C 8.863281 1.0625 9.257812 -0.175781 9.375 -1.21875 C 9.445312 -1.945312 9.265625 -2.6875 8.828125 -3.4375 L 8 -3.71875 L 8 -3.65625 L 7.796875 -3.75 L 7.8125 -3.953125 C 7.820312 -4.035156 8.582031 -4.238281 10.09375 -4.5625 C 10.84375 -4.28125 11.382812 -3.796875 11.71875 -3.109375 C 11.832031 -2.492188 11.859375 -1.875 11.796875 -1.25 C 11.703125 -0.445312 11.394531 0.398438 10.875 1.296875 C 11.726562 0.828125 12.75 -0.015625 13.9375 -1.234375 C 16 -3.179688 17.171875 -4.601562 17.453125 -5.5 L 17.46875 -5.5625 C 17.425781 -5.757812 17.222656 -5.875 16.859375 -5.90625 L 16.515625 -5.953125 L 16.078125 -5.9375 L 16.015625 -6 L 15.953125 -6.015625 C 12.847656 -5.734375 10.046875 -5.300781 7.546875 -4.71875 C 2.929688 -3.0625 0.0664062 -2.289062 -1.046875 -2.40625 C -1.453125 -2.457031 -1.722656 -2.609375 -1.859375 -2.859375 L -1.9375 -2.875 L -1.859375 -3.578125 L -1.671875 -3.984375 C -1.515625 -4.460938 -1.164062 -5.019531 -0.625 -5.65625 C -0.539062 -6.007812 0.46875 -7.039062 2.40625 -8.75 C 4.84375 -10.863281 6.144531 -11.910156 6.3125 -11.890625 L 8.890625 -12.046875 L 8.875 -11.828125 C 8.414062 -11.753906 6.882812 -10.757812 4.28125 -8.84375 C 2.164062 -7.09375 0.8125 -5.804688 0.21875 -4.984375 L 0.21875 -4.84375 C 0.238281 -4.695312 0.363281 -4.613281 0.59375 -4.59375 C 1.507812 -4.5 2.523438 -4.601562 3.640625 -4.90625 L 3.6875 -4.828125 L 3.765625 -4.828125 C 9.015625 -5.878906 12.703125 -6.550781 14.828125 -6.84375 L 17.234375 -6.796875 L 17.59375 -6.765625 L 18.640625 -6.515625 C 19.347656 -6.085938 19.710938 -5.5 19.734375 -4.75 C 19.523438 -3.53125 17.117188 -1.296875 12.515625 1.953125 Z M 12.515625 1.953125 "/></g></g></g><g fill="#000000" fill-opacity="1"><g transform="translate(78.408995, 150.642009)"><g/></g></g><g fill="#000000" fill-opacity="1"><g transform="translate(87.590701, 150.642009)"><g><path d="M 2.796875 -9.171875 C 2.816406 -9.023438 2.835938 -8.867188 2.859375 -8.703125 C 3.117188 -7.722656 3.289062 -6.613281 3.375 -5.375 L 5.0625 -5.328125 C 5.914062 -5.398438 6.410156 -5.59375 6.546875 -5.90625 C 6.609375 -6.476562 6.222656 -6.957031 5.390625 -7.34375 C 5.398438 -7.414062 5.175781 -7.5625 4.71875 -7.78125 C 3.914062 -8.28125 3.273438 -8.742188 2.796875 -9.171875 Z M 8.65625 -4.9375 C 8.78125 -4.925781 8.9375 -4.90625 9.125 -4.875 L 10.171875 -4.328125 C 10.617188 -4.015625 10.882812 -3.695312 10.96875 -3.375 C 11.269531 -2.875 11.257812 -2.335938 10.9375 -1.765625 C 10.769531 -0.847656 8.742188 0.4375 4.859375 2.09375 C 4.628906 2.207031 4.492188 2.335938 4.453125 2.484375 C 3.492188 2.066406 3.035156 1.789062 3.078125 1.65625 L 3.140625 1.46875 C 3.796875 0.4375 4.203125 -0.335938 4.359375 -0.859375 C 4.691406 -2.003906 4.476562 -2.6875 3.71875 -2.90625 L 3.671875 -3.078125 C 4.597656 -3.191406 5.128906 -3.226562 5.265625 -3.1875 C 6.128906 -2.75 6.40625 -2.003906 6.09375 -0.953125 L 5.90625 -0.328125 C 5.832031 -0.0976562 5.769531 0.0195312 5.71875 0.03125 L 5.703125 0.078125 C 5.878906 0.128906 6.25 -0.0546875 6.8125 -0.484375 L 7.640625 -0.875 C 8.171875 -1.21875 8.566406 -1.679688 8.828125 -2.265625 C 8.878906 -2.628906 8.851562 -2.828125 8.75 -2.859375 C 8.507812 -3.578125 7.722656 -4.125 6.390625 -4.5 C 6.359375 -4.488281 6.328125 -4.484375 6.296875 -4.484375 L 4.1875 -4.515625 L 3.40625 -4.40625 C 3.46875 -2.914062 3.453125 -1.539062 3.359375 -0.28125 L 2.5625 -0.484375 L 1.5625 -0.484375 L 1.5625 -2.140625 C 1.738281 -5.117188 1.203125 -8.179688 -0.046875 -11.328125 L -0.046875 -11.375 C -0.296875 -12.019531 -0.507812 -12.507812 -0.6875 -12.84375 L -0.6875 -12.984375 C -0.625 -13.441406 0.09375 -13.671875 1.46875 -13.671875 C 1.914062 -13.628906 2.207031 -13.242188 2.34375 -12.515625 L 2.4375 -12.5 C 3.53125 -10.675781 5.554688 -8.796875 8.515625 -6.859375 C 8.992188 -6.484375 9.3125 -6.117188 9.46875 -5.765625 C 9.4375 -5.421875 9.164062 -5.144531 8.65625 -4.9375 Z M 8.65625 -4.9375 "/></g></g></g><g fill="#000000" fill-opacity="1"><g transform="translate(98.278942, 150.642009)"><g><path d="M 4.125 -3.953125 C 3.5625 -3.515625 2.929688 -3.367188 2.234375 -3.515625 C 1.273438 -3.609375 0.566406 -4.300781 0.109375 -5.59375 C -0.00390625 -5.925781 -0.0351562 -6.332031 0.015625 -6.8125 C 0.0859375 -7.46875 0.457031 -8.050781 1.125 -8.5625 L 1.203125 -8.53125 C 1.960938 -8.113281 2.328125 -7.742188 2.296875 -7.421875 L 1.734375 -6.265625 C 1.671875 -5.597656 1.972656 -5.046875 2.640625 -4.609375 C 3.023438 -4.785156 3.171875 -5.25 3.078125 -6 C 2.796875 -7.207031 2.316406 -8.085938 1.640625 -8.640625 C 1.003906 -8.898438 0.691406 -9.078125 0.703125 -9.171875 C 0.710938 -9.242188 1.367188 -9.40625 2.671875 -9.65625 L 2.8125 -9.640625 C 4.113281 -8.859375 4.875 -7.953125 5.09375 -6.921875 L 5.171875 -6.34375 L 5.09375 -6.34375 C 5.1875 -5.40625 4.863281 -4.609375 4.125 -3.953125 Z M 1.21875 -10.046875 L 1.65625 -10 L 1.703125 -9.90625 L 1.796875 -9.96875 L 2 -9.953125 L 2.0625 -9.875 L 2.140625 -9.875 L 2.203125 -9.921875 L 2.265625 -9.859375 L 2.265625 -9.796875 L 0.4375 -9.34375 L -0.0625 -9.46875 L -0.609375 -9.53125 L -0.59375 -9.65625 Z M 1.21875 -10.046875 "/></g></g></g><g fill="#000000" fill-opacity="1"><g transform="translate(104.132026, 150.642009)"><g><path d="M 2.796875 -9.171875 C 2.816406 -9.023438 2.835938 -8.867188 2.859375 -8.703125 C 3.117188 -7.722656 3.289062 -6.613281 3.375 -5.375 L 5.0625 -5.328125 C 5.914062 -5.398438 6.410156 -5.59375 6.546875 -5.90625 C 6.609375 -6.476562 6.222656 -6.957031 5.390625 -7.34375 C 5.398438 -7.414062 5.175781 -7.5625 4.71875 -7.78125 C 3.914062 -8.28125 3.273438 -8.742188 2.796875 -9.171875 Z M 3.40625 -4.40625 C 3.4375 -3.320312 3.40625 -2.148438 3.3125 -0.890625 L 2.515625 -1.09375 L 1.5 -1.09375 L 1.515625 -2.75 C 1.722656 -5.320312 1.203125 -8.179688 -0.046875 -11.328125 L -0.046875 -11.375 C -0.296875 -12.019531 -0.507812 -12.507812 -0.6875 -12.84375 L -0.6875 -12.984375 C -0.625 -13.441406 0.09375 -13.671875 1.46875 -13.671875 C 1.914062 -13.628906 2.207031 -13.242188 2.34375 -12.515625 L 2.4375 -12.5 C 3.53125 -10.675781 5.554688 -8.796875 8.515625 -6.859375 C 8.992188 -6.484375 9.3125 -6.117188 9.46875 -5.765625 C 9.394531 -5.066406 8.335938 -4.640625 6.296875 -4.484375 C 6.554688 -3.804688 6.847656 -3.117188 7.171875 -2.421875 C 7.828125 -1.148438 8.582031 0 9.4375 1.03125 C 10.976562 2.71875 12.296875 3.710938 13.390625 4.015625 L 13.390625 4.09375 L 13.296875 4.15625 L 13.234375 4.078125 L 12.734375 4.09375 L 12.453125 4.078125 L 11.046875 3.984375 C 9.796875 3.710938 8.488281 2.8125 7.125 1.28125 C 5.789062 -0.539062 4.957031 -2.054688 4.625 -3.265625 C 4.351562 -3.859375 4.207031 -4.273438 4.1875 -4.515625 Z M 3.40625 -4.40625 "/></g></g></g><g fill="#000000" fill-opacity="1"><g transform="translate(113.955031, 150.642009)"><g><path d="M 10.546875 -9.734375 C 10.253906 -8.796875 9.894531 -7.023438 9.46875 -4.421875 L 9.53125 -4.21875 L 9.4375 -4.15625 L 9.4375 -4.078125 L 9.46875 -3.640625 L 9.390625 -3.59375 L 9.421875 -3.21875 L 9.296875 -2.171875 L 9.21875 -2.09375 L 9.21875 -2.03125 C 8.988281 -2.195312 8.578125 -2.363281 7.984375 -2.53125 L 7.90625 -2.453125 L 7.84375 -2.46875 L 7.21875 -2.609375 L 7.140625 -2.53125 L 7.140625 -2.609375 L 6.28125 -2.5625 C 5.0625 -4.78125 3.75 -6.253906 2.34375 -6.984375 L 2.265625 -6.984375 L 2.265625 -6.921875 C 2.753906 -6.617188 2.992188 -6.425781 2.984375 -6.34375 L 2.96875 -6.125 C 2.875 -5.363281 2.617188 -4.5625 2.203125 -3.71875 L 2.125 -3.71875 C 1.28125 -4.382812 0.785156 -4.867188 0.640625 -5.171875 L 0.59375 -5.390625 L 0.671875 -5.4375 C 0.753906 -6.125 0.46875 -7.203125 -0.1875 -8.671875 L -1.234375 -10.203125 C 0.242188 -10.242188 0.988281 -10.3125 1 -10.40625 C 3.1875 -9.257812 4.910156 -7.882812 6.171875 -6.28125 L 7.1875 -4.953125 L 7.25 -4.953125 L 7.265625 -5.03125 L 7.234375 -5.453125 L 7.3125 -5.515625 L 7.3125 -5.59375 L 7.28125 -5.953125 L 7.390625 -6.21875 L 7.3125 -6.234375 L 7.40625 -6.4375 C 7.65625 -8.726562 8.566406 -11.195312 10.140625 -13.84375 C 10.160156 -14.164062 10.691406 -14.296875 11.734375 -14.234375 L 12.53125 -14.296875 L 12.53125 -14.234375 C 12.144531 -13.773438 11.628906 -12.710938 10.984375 -11.046875 Z M 10.546875 -9.734375 "/></g></g></g><g fill="#000000" fill-opacity="1"><g transform="translate(124.398963, 150.642009)"><g/></g></g><g fill="#000000" fill-opacity="1"><g transform="translate(133.580672, 150.642009)"><g><path d="M 2.046875 -11.3125 C 2.578125 -11.019531 3.195312 -10.832031 3.90625 -10.75 L 3.90625 -10.8125 L 3.984375 -10.75 L 4.046875 -10.75 L 5.1875 -10.703125 C 5.925781 -9.003906 7.015625 -7.191406 8.453125 -5.265625 L 9.671875 -4.078125 C 11.015625 -3.128906 11.910156 -2.628906 12.359375 -2.578125 L 12.359375 -2.4375 C 11.960938 -2.476562 11.210938 -2.390625 10.109375 -2.171875 C 9.035156 -2.429688 7.832031 -3.160156 6.5 -4.359375 C 5.5625 -5.429688 4.785156 -6.628906 4.171875 -7.953125 C 3.796875 -8.441406 3.617188 -8.742188 3.640625 -8.859375 L 3.484375 -8.875 L 3.40625 -8.09375 L 3.078125 -6.359375 L 4.296875 -6.375 L 4.359375 -6.359375 C 4.710938 -6.316406 5.082031 -5.992188 5.46875 -5.390625 L 5.53125 -5.375 L 5.515625 -5.09375 C 3.523438 -5.144531 2.492188 -4.851562 2.421875 -4.21875 L 1.703125 -2.734375 L 1.875 -2.421875 L 1.765625 -2.21875 L 0.953125 -2.375 L 0.859375 -2.390625 L -1.546875 -2.5 L -1.53125 -2.640625 C -0.875 -3.335938 -0.335938 -4.085938 0.078125 -4.890625 L 0.015625 -5.828125 L 0.625 -6.046875 L 1.53125 -9.09375 L 1.453125 -9.09375 L 1.53125 -9.15625 L 1.703125 -10.84375 L 1.671875 -11.21875 Z M 2.046875 -11.3125 "/></g></g></g><g fill="#000000" fill-opacity="1"><g transform="translate(142.171973, 150.642009)"><g><path d="M 10.546875 -9.734375 C 10.253906 -8.796875 9.894531 -7.023438 9.46875 -4.421875 L 9.53125 -4.21875 L 9.4375 -4.15625 L 9.4375 -4.078125 L 9.46875 -3.640625 L 9.390625 -3.59375 L 9.421875 -3.21875 L 9.296875 -2.171875 L 9.21875 -2.09375 L 9.21875 -2.03125 C 8.988281 -2.195312 8.578125 -2.363281 7.984375 -2.53125 L 7.90625 -2.453125 L 7.84375 -2.46875 L 7.21875 -2.609375 L 7.140625 -2.53125 L 7.140625 -2.609375 L 6.28125 -2.5625 C 5.0625 -4.78125 3.75 -6.253906 2.34375 -6.984375 L 2.265625 -6.984375 L 2.265625 -6.921875 C 2.753906 -6.617188 2.992188 -6.425781 2.984375 -6.34375 L 2.96875 -6.125 C 2.875 -5.363281 2.617188 -4.5625 2.203125 -3.71875 L 2.125 -3.71875 C 1.28125 -4.382812 0.785156 -4.867188 0.640625 -5.171875 L 0.59375 -5.390625 L 0.671875 -5.4375 C 0.753906 -6.125 0.46875 -7.203125 -0.1875 -8.671875 L -1.234375 -10.203125 C 0.242188 -10.242188 0.988281 -10.3125 1 -10.40625 C 3.1875 -9.257812 4.910156 -7.882812 6.171875 -6.28125 L 7.1875 -4.953125 L 7.25 -4.953125 L 7.265625 -5.03125 L 7.234375 -5.453125 L 7.3125 -5.515625 L 7.3125 -5.59375 L 7.28125 -5.953125 L 7.390625 -6.21875 L 7.3125 -6.234375 L 7.40625 -6.4375 C 7.65625 -8.726562 8.566406 -11.195312 10.140625 -13.84375 C 10.160156 -14.164062 10.691406 -14.296875 11.734375 -14.234375 L 12.53125 -14.296875 L 12.53125 -14.234375 C 12.144531 -13.773438 11.628906 -12.710938 10.984375 -11.046875 Z M 10.546875 -9.734375 "/></g></g></g><g fill="#000000" fill-opacity="1"><g transform="translate(152.615905, 150.642009)"><g><path d="M 1.4375 -7.421875 L 1.453125 -7.6875 L 1.46875 -8.40625 L 1.53125 -8.390625 C 1.519531 -10.035156 1.269531 -11.65625 0.78125 -13.25 C 0.269531 -14.644531 -0.320312 -15.992188 -1 -17.296875 L -0.984375 -17.4375 C -0.929688 -17.894531 -0.21875 -18.128906 1.15625 -18.140625 C 1.613281 -18.085938 1.90625 -17.695312 2.03125 -16.96875 L 2.703125 -15.828125 C 4.253906 -13.804688 5.515625 -12.484375 6.484375 -11.859375 C 7.960938 -10.503906 10.472656 -8.90625 14.015625 -7.0625 C 14.492188 -6.6875 14.8125 -6.320312 14.96875 -5.96875 C 14.863281 -5.070312 12.425781 -4.734375 7.65625 -4.953125 C 5.613281 -4.765625 4.132812 -4.5 3.21875 -4.15625 C 2.65625 -4.40625 2.238281 -4.546875 1.96875 -4.578125 L 0.640625 -4.71875 L 0.65625 -4.78125 L 0.9375 -5.46875 L 1.265625 -6.640625 Z M 1.828125 -13.640625 L 1.796875 -13.578125 C 2.609375 -12.828125 3.039062 -12.1875 3.09375 -11.65625 C 3.601562 -10.1875 3.765625 -8.578125 3.578125 -6.828125 L 3.546875 -6.46875 C 4.367188 -7.050781 5.21875 -7.410156 6.09375 -7.546875 L 7.4375 -6.84375 L 7.40625 -6.640625 C 7.070312 -6.660156 6.085938 -6.3125 4.453125 -5.59375 L 4.4375 -5.53125 L 4.515625 -5.515625 L 7.75 -5.875 L 7.75 -5.8125 L 9.265625 -5.9375 L 9.25 -5.859375 C 10.570312 -5.859375 11.367188 -5.984375 11.640625 -6.234375 C 11.703125 -6.816406 10.15625 -7.890625 7 -9.453125 C 7.007812 -9.523438 6.785156 -9.664062 6.328125 -9.875 C 4.921875 -10.78125 3.550781 -11.953125 2.21875 -13.390625 Z M 6.953125 -7.671875 L 8.3125 -7.03125 L 8.28125 -6.8125 L 8.078125 -6.84375 L 7.78125 -6.8125 L 6.34375 -7.453125 L 6.375 -7.671875 Z M 6.953125 -7.671875 "/></g></g></g><g fill="#000000" fill-opacity="1"><g transform="translate(167.182455, 150.642009)"><g/></g></g><g fill="#000000" fill-opacity="1"><g transform="translate(176.364163, 150.642009)"><g><path d="M 2.796875 -9.171875 C 2.816406 -9.023438 2.835938 -8.867188 2.859375 -8.703125 C 3.117188 -7.722656 3.289062 -6.613281 3.375 -5.375 L 5.0625 -5.328125 C 5.914062 -5.398438 6.410156 -5.59375 6.546875 -5.90625 C 6.609375 -6.476562 6.222656 -6.957031 5.390625 -7.34375 C 5.398438 -7.414062 5.175781 -7.5625 4.71875 -7.78125 C 3.914062 -8.28125 3.273438 -8.742188 2.796875 -9.171875 Z M 3.40625 -4.40625 C 3.4375 -3.320312 3.40625 -2.148438 3.3125 -0.890625 L 2.515625 -1.09375 L 1.5 -1.09375 L 1.515625 -2.75 C 1.722656 -5.320312 1.203125 -8.179688 -0.046875 -11.328125 L -0.046875 -11.375 C -0.296875 -12.019531 -0.507812 -12.507812 -0.6875 -12.84375 L -0.6875 -12.984375 C -0.625 -13.441406 0.09375 -13.671875 1.46875 -13.671875 C 1.914062 -13.628906 2.207031 -13.242188 2.34375 -12.515625 L 2.4375 -12.5 C 3.53125 -10.675781 5.554688 -8.796875 8.515625 -6.859375 C 8.992188 -6.484375 9.3125 -6.117188 9.46875 -5.765625 C 9.394531 -5.066406 8.335938 -4.640625 6.296875 -4.484375 C 6.554688 -3.804688 6.847656 -3.117188 7.171875 -2.421875 C 7.828125 -1.148438 8.582031 0 9.4375 1.03125 C 10.976562 2.71875 12.296875 3.710938 13.390625 4.015625 L 13.390625 4.09375 L 13.296875 4.15625 L 13.234375 4.078125 L 12.734375 4.09375 L 12.453125 4.078125 L 11.046875 3.984375 C 9.796875 3.710938 8.488281 2.8125 7.125 1.28125 C 5.789062 -0.539062 4.957031 -2.054688 4.625 -3.265625 C 4.351562 -3.859375 4.207031 -4.273438 4.1875 -4.515625 Z M 3.40625 -4.40625 "/></g></g></g><g fill="#000000" fill-opacity="1"><g transform="translate(186.187161, 150.642009)"><g><path d="M 2.046875 -11.3125 C 2.578125 -11.019531 3.195312 -10.832031 3.90625 -10.75 L 3.90625 -10.8125 L 3.984375 -10.75 L 4.046875 -10.75 L 5.1875 -10.703125 C 5.925781 -9.003906 7.015625 -7.191406 8.453125 -5.265625 L 9.671875 -4.078125 C 11.015625 -3.128906 11.910156 -2.628906 12.359375 -2.578125 L 12.359375 -2.4375 C 11.960938 -2.476562 11.210938 -2.390625 10.109375 -2.171875 C 9.035156 -2.429688 7.832031 -3.160156 6.5 -4.359375 C 5.5625 -5.429688 4.785156 -6.628906 4.171875 -7.953125 C 3.796875 -8.441406 3.617188 -8.742188 3.640625 -8.859375 L 3.484375 -8.875 L 3.40625 -8.09375 L 3.078125 -6.359375 L 4.296875 -6.375 L 4.359375 -6.359375 C 4.710938 -6.316406 5.082031 -5.992188 5.46875 -5.390625 L 5.53125 -5.375 L 5.515625 -5.09375 C 3.523438 -5.144531 2.492188 -4.851562 2.421875 -4.21875 L 1.703125 -2.734375 L 1.875 -2.421875 L 1.765625 -2.21875 L 0.953125 -2.375 L 0.859375 -2.390625 L -1.546875 -2.5 L -1.53125 -2.640625 C -0.875 -3.335938 -0.335938 -4.085938 0.078125 -4.890625 L 0.015625 -5.828125 L 0.625 -6.046875 L 1.53125 -9.09375 L 1.453125 -9.09375 L 1.53125 -9.15625 L 1.703125 -10.84375 L 1.671875 -11.21875 Z M 2.046875 -11.3125 "/></g></g></g><g fill="#000000" fill-opacity="1"><g transform="translate(194.778463, 150.642009)"><g><path d="M 2.4375 -7.21875 C 2.457031 -6.238281 2.507812 -5.363281 2.59375 -4.59375 L 2.921875 -3.578125 L 3.046875 -3.609375 L 3.015625 -3.734375 L 5.015625 -3.921875 L 5.015625 -3.859375 C 4.753906 -3.335938 4.582031 -2.804688 4.5 -2.265625 L 4.15625 -2.203125 C 3.738281 -2.128906 3.164062 -1.835938 2.4375 -1.328125 C 1.976562 -1.253906 1.453125 -1.9375 0.859375 -3.375 L 0.546875 -4.46875 L 0.59375 -4.546875 L 0.453125 -4.875 L 0.4375 -5.015625 L 0.515625 -5.09375 L 0.421875 -5.15625 L 0.25 -6.5 L 0.25 -6.578125 L 0.234375 -7.921875 L 2.65625 -8.421875 Z M 1.765625 -9.28125 C 0.765625 -9.15625 0.203125 -9.515625 0.078125 -10.359375 C -0.140625 -11.035156 0.128906 -11.398438 0.890625 -11.453125 L 1.34375 -11.40625 C 1.851562 -11.53125 2.207031 -11.175781 2.40625 -10.34375 C 2.46875 -9.726562 2.253906 -9.375 1.765625 -9.28125 Z M 1.765625 -9.28125 "/></g></g></g><g fill="#000000" fill-opacity="1"><g transform="translate(199.196264, 150.642009)"><g><path d="M 12.1875 -12.1875 L 10.671875 -9.359375 L 9.5625 -7.5625 L 6.734375 -7.28125 L 6.6875 -7.359375 L 6.703125 -7.5 C 7.421875 -8.113281 8.144531 -9.128906 8.875 -10.546875 L 8.953125 -10.609375 C 9.296875 -11.421875 9.5625 -11.914062 9.75 -12.09375 Z M 12.515625 1.953125 C 11.203125 2.648438 10.476562 3.21875 10.34375 3.65625 L 10.203125 3.640625 L 8.1875 3.0625 L 8.21875 2.9375 L 8.1875 2.5 C 8.863281 1.0625 9.257812 -0.175781 9.375 -1.21875 C 9.445312 -1.945312 9.265625 -2.6875 8.828125 -3.4375 L 8 -3.71875 L 8 -3.65625 L 7.796875 -3.75 L 7.8125 -3.953125 C 7.820312 -4.035156 8.582031 -4.238281 10.09375 -4.5625 C 10.84375 -4.28125 11.382812 -3.796875 11.71875 -3.109375 C 11.832031 -2.492188 11.859375 -1.875 11.796875 -1.25 C 11.703125 -0.445312 11.394531 0.398438 10.875 1.296875 C 11.726562 0.828125 12.75 -0.015625 13.9375 -1.234375 C 16 -3.179688 17.171875 -4.601562 17.453125 -5.5 L 17.46875 -5.5625 C 17.425781 -5.757812 17.222656 -5.875 16.859375 -5.90625 L 16.515625 -5.953125 L 16.078125 -5.9375 L 16.015625 -6 L 15.953125 -6.015625 C 12.847656 -5.734375 10.046875 -5.300781 7.546875 -4.71875 C 2.929688 -3.0625 0.0664062 -2.289062 -1.046875 -2.40625 C -1.453125 -2.457031 -1.722656 -2.609375 -1.859375 -2.859375 L -1.9375 -2.875 L -1.859375 -3.578125 L -1.671875 -3.984375 C -1.515625 -4.460938 -1.164062 -5.019531 -0.625 -5.65625 C -0.539062 -6.007812 0.46875 -7.039062 2.40625 -8.75 C 4.84375 -10.863281 6.144531 -11.910156 6.3125 -11.890625 L 8.890625 -12.046875 L 8.875 -11.828125 C 8.414062 -11.753906 6.882812 -10.757812 4.28125 -8.84375 C 2.164062 -7.09375 0.8125 -5.804688 0.21875 -4.984375 L 0.21875 -4.84375 C 0.238281 -4.695312 0.363281 -4.613281 0.59375 -4.59375 C 1.507812 -4.5 2.523438 -4.601562 3.640625 -4.90625 L 3.6875 -4.828125 L 3.765625 -4.828125 C 9.015625 -5.878906 12.703125 -6.550781 14.828125 -6.84375 L 17.234375 -6.796875 L 17.59375 -6.765625 L 18.640625 -6.515625 C 19.347656 -6.085938 19.710938 -5.5 19.734375 -4.75 C 19.523438 -3.53125 17.117188 -1.296875 12.515625 1.953125 Z M 12.515625 1.953125 "/></g></g></g><g fill="#000000" fill-opacity="1"><g transform="translate(216.256722, 150.642009)"><g><path d="M 10.875 -5.421875 C 8.519531 -5.109375 6.414062 -4.289062 4.5625 -2.96875 L 3.53125 -2.09375 L 1.6875 -2.28125 C 1.601562 -2.289062 1.566406 -2.367188 1.578125 -2.515625 L 1.65625 -2.5625 C 1.769531 -4.3125 1.648438 -5.203125 1.296875 -5.234375 L 0.71875 -5.734375 L 0.71875 -5.8125 C 0.726562 -5.875 0.929688 -5.96875 1.328125 -6.09375 L 1.328125 -6.234375 C 1.347656 -6.378906 1.164062 -6.851562 0.78125 -7.65625 L 0.046875 -7.578125 L -0.046875 -7.953125 L 0.03125 -8.015625 L 0.046875 -8.09375 L 0.03125 -8.734375 L 0.046875 -8.796875 L 0.203125 -8.921875 L 0.265625 -8.84375 C 1.046875 -8.757812 2.597656 -9.019531 4.921875 -9.625 C 6.941406 -10.34375 8.0625 -10.867188 8.28125 -11.203125 L 9 -9.96875 L 9 -9.828125 C 7.113281 -8.703125 4.945312 -8.035156 2.5 -7.828125 L 2.5 -7.671875 L 2.96875 -6.78125 L 3.109375 -6.765625 C 5.546875 -7.640625 7.039062 -8.046875 7.59375 -7.984375 L 8.28125 -7.203125 L 8.28125 -7.140625 C 8.238281 -7.054688 7.53125 -6.894531 6.15625 -6.65625 L 3.28125 -5.8125 C 3.332031 -5.414062 3.453125 -4.953125 3.640625 -4.421875 C 5.203125 -5.359375 7.363281 -6.03125 10.125 -6.4375 L 11.28125 -6.59375 C 11.757812 -6.476562 11.941406 -6.140625 11.828125 -5.578125 L 11.28125 -5.453125 Z M 10.875 -5.421875 "/></g></g></g><g fill="#000000" fill-opacity="1"><g transform="translate(225.591115, 150.642009)"><g><path d="M 1.4375 -7.421875 L 1.453125 -7.6875 L 1.46875 -8.40625 L 1.53125 -8.390625 C 1.519531 -10.035156 1.269531 -11.65625 0.78125 -13.25 C 0.269531 -14.644531 -0.320312 -15.992188 -1 -17.296875 L -0.984375 -17.4375 C -0.929688 -17.894531 -0.21875 -18.128906 1.15625 -18.140625 C 1.613281 -18.085938 1.90625 -17.695312 2.03125 -16.96875 L 2.703125 -15.828125 C 4.253906 -13.804688 5.515625 -12.484375 6.484375 -11.859375 C 7.960938 -10.503906 10.472656 -8.90625 14.015625 -7.0625 C 14.492188 -6.6875 14.8125 -6.320312 14.96875 -5.96875 C 14.863281 -5.070312 12.425781 -4.734375 7.65625 -4.953125 C 5.613281 -4.765625 4.132812 -4.5 3.21875 -4.15625 C 2.65625 -4.40625 2.238281 -4.546875 1.96875 -4.578125 L 0.640625 -4.71875 L 0.65625 -4.78125 L 0.9375 -5.46875 L 1.265625 -6.640625 Z M 1.828125 -13.640625 L 1.796875 -13.578125 C 2.609375 -12.828125 3.039062 -12.1875 3.09375 -11.65625 C 3.601562 -10.1875 3.765625 -8.578125 3.578125 -6.828125 L 3.546875 -6.46875 C 4.367188 -7.050781 5.21875 -7.410156 6.09375 -7.546875 L 7.4375 -6.84375 L 7.40625 -6.640625 C 7.070312 -6.660156 6.085938 -6.3125 4.453125 -5.59375 L 4.4375 -5.53125 L 4.515625 -5.515625 L 7.75 -5.875 L 7.75 -5.8125 L 9.265625 -5.9375 L 9.25 -5.859375 C 10.570312 -5.859375 11.367188 -5.984375 11.640625 -6.234375 C 11.703125 -6.816406 10.15625 -7.890625 7 -9.453125 C 7.007812 -9.523438 6.785156 -9.664062 6.328125 -9.875 C 4.921875 -10.78125 3.550781 -11.953125 2.21875 -13.390625 Z M 6.953125 -7.671875 L 8.3125 -7.03125 L 8.28125 -6.8125 L 8.078125 -6.84375 L 7.78125 -6.8125 L 6.34375 -7.453125 L 6.375 -7.671875 Z M 6.953125 -7.671875 "/></g></g></g><g fill="#000000" fill-opacity="1"><g transform="translate(240.157665, 150.642009)"><g/></g></g><g fill="#000000" fill-opacity="1"><g transform="translate(249.339373, 150.642009)"><g><path d="M 2.4375 -7.21875 C 2.457031 -6.238281 2.507812 -5.363281 2.59375 -4.59375 L 2.921875 -3.578125 L 3.046875 -3.609375 L 3.015625 -3.734375 L 5.015625 -3.921875 L 5.015625 -3.859375 C 4.753906 -3.335938 4.582031 -2.804688 4.5 -2.265625 L 4.15625 -2.203125 C 3.738281 -2.128906 3.164062 -1.835938 2.4375 -1.328125 C 1.976562 -1.253906 1.453125 -1.9375 0.859375 -3.375 L 0.546875 -4.46875 L 0.59375 -4.546875 L 0.453125 -4.875 L 0.4375 -5.015625 L 0.515625 -5.09375 L 0.421875 -5.15625 L 0.25 -6.5 L 0.25 -6.578125 L 0.234375 -7.921875 L 2.65625 -8.421875 Z M 1.765625 -9.28125 C 0.765625 -9.15625 0.203125 -9.515625 0.078125 -10.359375 C -0.140625 -11.035156 0.128906 -11.398438 0.890625 -11.453125 L 1.34375 -11.40625 C 1.851562 -11.53125 2.207031 -11.175781 2.40625 -10.34375 C 2.46875 -9.726562 2.253906 -9.375 1.765625 -9.28125 Z M 1.765625 -9.28125 "/></g></g></g><g fill="#000000" fill-opacity="1"><g transform="translate(253.757188, 150.642009)"><g><path d="M 10.546875 -9.734375 C 10.253906 -8.796875 9.894531 -7.023438 9.46875 -4.421875 L 9.53125 -4.21875 L 9.4375 -4.15625 L 9.4375 -4.078125 L 9.46875 -3.640625 L 9.390625 -3.59375 L 9.421875 -3.21875 L 9.296875 -2.171875 L 9.21875 -2.09375 L 9.21875 -2.03125 C 8.988281 -2.195312 8.578125 -2.363281 7.984375 -2.53125 L 7.90625 -2.453125 L 7.84375 -2.46875 L 7.21875 -2.609375 L 7.140625 -2.53125 L 7.140625 -2.609375 L 6.28125 -2.5625 C 5.0625 -4.78125 3.75 -6.253906 2.34375 -6.984375 L 2.265625 -6.984375 L 2.265625 -6.921875 C 2.753906 -6.617188 2.992188 -6.425781 2.984375 -6.34375 L 2.96875 -6.125 C 2.875 -5.363281 2.617188 -4.5625 2.203125 -3.71875 L 2.125 -3.71875 C 1.28125 -4.382812 0.785156 -4.867188 0.640625 -5.171875 L 0.59375 -5.390625 L 0.671875 -5.4375 C 0.753906 -6.125 0.46875 -7.203125 -0.1875 -8.671875 L -1.234375 -10.203125 C 0.242188 -10.242188 0.988281 -10.3125 1 -10.40625 C 3.1875 -9.257812 4.910156 -7.882812 6.171875 -6.28125 L 7.1875 -4.953125 L 7.25 -4.953125 L 7.265625 -5.03125 L 7.234375 -5.453125 L 7.3125 -5.515625 L 7.3125 -5.59375 L 7.28125 -5.953125 L 7.390625 -6.21875 L 7.3125 -6.234375 L 7.40625 -6.4375 C 7.65625 -8.726562 8.566406 -11.195312 10.140625 -13.84375 C 10.160156 -14.164062 10.691406 -14.296875 11.734375 -14.234375 L 12.53125 -14.296875 L 12.53125 -14.234375 C 12.144531 -13.773438 11.628906 -12.710938 10.984375 -11.046875 Z M 10.546875 -9.734375 "/></g></g></g><g fill="#000000" fill-opacity="1"><g transform="translate(87.968679, 179.70418)"><g><path d="M 3.296875 -4.4375 L 3.3125 -3.859375 L 3.3125 -2.578125 L 2.703125 -2.546875 L 2.640625 -2.53125 L 2.546875 -2.609375 C 1.960938 -2.441406 1.554688 -2.273438 1.328125 -2.109375 L 1.328125 -2.171875 L 1.234375 -2.25 L 1.125 -3.3125 L 1.15625 -3.671875 L 1.078125 -3.71875 L 1.09375 -4.15625 L 1.09375 -4.234375 L 1.015625 -4.296875 L 1.0625 -4.515625 C 1.019531 -4.921875 0.976562 -5.316406 0.9375 -5.703125 L 0.421875 -9.125 C 0.285156 -9.820312 0.140625 -10.476562 -0.015625 -11.09375 C -0.359375 -12.84375 -0.71875 -13.945312 -1.09375 -14.40625 L -1.109375 -14.46875 L -0.3125 -14.40625 C 0.726562 -14.46875 1.265625 -14.335938 1.296875 -14.015625 C 1.992188 -12.066406 2.507812 -10.226562 2.84375 -8.5 L 2.84375 -8.53125 C 4.144531 -9.726562 5.003906 -10.476562 5.421875 -10.78125 C 5.773438 -10.695312 6.191406 -10.375 6.671875 -9.8125 C 6.648438 -9.613281 6.640625 -9.40625 6.640625 -9.1875 C 5.703125 -8.582031 4.742188 -7.851562 3.765625 -7 C 4.234375 -6.257812 4.867188 -5.40625 5.671875 -4.4375 C 6.546875 -3.351562 7.347656 -2.488281 8.078125 -1.84375 C 8.054688 -1.632812 8 -1.421875 7.90625 -1.203125 L 5.640625 -1.234375 C 5.046875 -2.128906 4.265625 -3.195312 3.296875 -4.4375 Z M 3.296875 -4.4375 "/></g></g></g><g fill="#000000" fill-opacity="1"><g transform="translate(95.236681, 179.70418)"><g><path d="M 2.046875 -11.3125 C 2.578125 -11.019531 3.195312 -10.832031 3.90625 -10.75 L 3.90625 -10.8125 L 3.984375 -10.75 L 4.046875 -10.75 L 5.1875 -10.703125 C 5.925781 -9.003906 7.015625 -7.191406 8.453125 -5.265625 L 9.671875 -4.078125 C 11.015625 -3.128906 11.910156 -2.628906 12.359375 -2.578125 L 12.359375 -2.4375 C 11.960938 -2.476562 11.210938 -2.390625 10.109375 -2.171875 C 9.035156 -2.429688 7.832031 -3.160156 6.5 -4.359375 C 5.5625 -5.429688 4.785156 -6.628906 4.171875 -7.953125 C 3.796875 -8.441406 3.617188 -8.742188 3.640625 -8.859375 L 3.484375 -8.875 L 3.40625 -8.09375 L 3.078125 -6.359375 L 4.296875 -6.375 L 4.359375 -6.359375 C 4.710938 -6.316406 5.082031 -5.992188 5.46875 -5.390625 L 5.53125 -5.375 L 5.515625 -5.09375 C 3.523438 -5.144531 2.492188 -4.851562 2.421875 -4.21875 L 1.703125 -2.734375 L 1.875 -2.421875 L 1.765625 -2.21875 L 0.953125 -2.375 L 0.859375 -2.390625 L -1.546875 -2.5 L -1.53125 -2.640625 C -0.875 -3.335938 -0.335938 -4.085938 0.078125 -4.890625 L 0.015625 -5.828125 L 0.625 -6.046875 L 1.53125 -9.09375 L 1.453125 -9.09375 L 1.53125 -9.15625 L 1.703125 -10.84375 L 1.671875 -11.21875 Z M 2.046875 -11.3125 "/></g></g></g><g fill="#000000" fill-opacity="1"><g transform="translate(103.827989, 179.70418)"><g><path d="M 10.546875 -9.734375 C 10.253906 -8.796875 9.894531 -7.023438 9.46875 -4.421875 L 9.53125 -4.21875 L 9.4375 -4.15625 L 9.4375 -4.078125 L 9.46875 -3.640625 L 9.390625 -3.59375 L 9.421875 -3.21875 L 9.296875 -2.171875 L 9.21875 -2.09375 L 9.21875 -2.03125 C 8.988281 -2.195312 8.578125 -2.363281 7.984375 -2.53125 L 7.90625 -2.453125 L 7.84375 -2.46875 L 7.21875 -2.609375 L 7.140625 -2.53125 L 7.140625 -2.609375 L 6.28125 -2.5625 C 5.0625 -4.78125 3.75 -6.253906 2.34375 -6.984375 L 2.265625 -6.984375 L 2.265625 -6.921875 C 2.753906 -6.617188 2.992188 -6.425781 2.984375 -6.34375 L 2.96875 -6.125 C 2.875 -5.363281 2.617188 -4.5625 2.203125 -3.71875 L 2.125 -3.71875 C 1.28125 -4.382812 0.785156 -4.867188 0.640625 -5.171875 L 0.59375 -5.390625 L 0.671875 -5.4375 C 0.753906 -6.125 0.46875 -7.203125 -0.1875 -8.671875 L -1.234375 -10.203125 C 0.242188 -10.242188 0.988281 -10.3125 1 -10.40625 C 3.1875 -9.257812 4.910156 -7.882812 6.171875 -6.28125 L 7.1875 -4.953125 L 7.25 -4.953125 L 7.265625 -5.03125 L 7.234375 -5.453125 L 7.3125 -5.515625 L 7.3125 -5.59375 L 7.28125 -5.953125 L 7.390625 -6.21875 L 7.3125 -6.234375 L 7.40625 -6.4375 C 7.65625 -8.726562 8.566406 -11.195312 10.140625 -13.84375 C 10.160156 -14.164062 10.691406 -14.296875 11.734375 -14.234375 L 12.53125 -14.296875 L 12.53125 -14.234375 C 12.144531 -13.773438 11.628906 -12.710938 10.984375 -11.046875 Z M 10.546875 -9.734375 "/></g></g></g><g fill="#000000" fill-opacity="1"><g transform="translate(114.271924, 179.70418)"><g><path d="M 12.1875 -12.1875 L 10.671875 -9.359375 L 9.5625 -7.5625 L 6.734375 -7.28125 L 6.6875 -7.359375 L 6.703125 -7.5 C 7.421875 -8.113281 8.144531 -9.128906 8.875 -10.546875 L 8.953125 -10.609375 C 9.296875 -11.421875 9.5625 -11.914062 9.75 -12.09375 Z M 12.515625 1.953125 C 11.203125 2.648438 10.476562 3.21875 10.34375 3.65625 L 10.203125 3.640625 L 8.1875 3.0625 L 8.21875 2.9375 L 8.1875 2.5 C 8.863281 1.0625 9.257812 -0.175781 9.375 -1.21875 C 9.445312 -1.945312 9.265625 -2.6875 8.828125 -3.4375 L 8 -3.71875 L 8 -3.65625 L 7.796875 -3.75 L 7.8125 -3.953125 C 7.820312 -4.035156 8.582031 -4.238281 10.09375 -4.5625 C 10.84375 -4.28125 11.382812 -3.796875 11.71875 -3.109375 C 11.832031 -2.492188 11.859375 -1.875 11.796875 -1.25 C 11.703125 -0.445312 11.394531 0.398438 10.875 1.296875 C 11.726562 0.828125 12.75 -0.015625 13.9375 -1.234375 C 16 -3.179688 17.171875 -4.601562 17.453125 -5.5 L 17.46875 -5.5625 C 17.425781 -5.757812 17.222656 -5.875 16.859375 -5.90625 L 16.515625 -5.953125 L 16.078125 -5.9375 L 16.015625 -6 L 15.953125 -6.015625 C 12.847656 -5.734375 10.046875 -5.300781 7.546875 -4.71875 C 2.929688 -3.0625 0.0664062 -2.289062 -1.046875 -2.40625 C -1.453125 -2.457031 -1.722656 -2.609375 -1.859375 -2.859375 L -1.9375 -2.875 L -1.859375 -3.578125 L -1.671875 -3.984375 C -1.515625 -4.460938 -1.164062 -5.019531 -0.625 -5.65625 C -0.539062 -6.007812 0.46875 -7.039062 2.40625 -8.75 C 4.84375 -10.863281 6.144531 -11.910156 6.3125 -11.890625 L 8.890625 -12.046875 L 8.875 -11.828125 C 8.414062 -11.753906 6.882812 -10.757812 4.28125 -8.84375 C 2.164062 -7.09375 0.8125 -5.804688 0.21875 -4.984375 L 0.21875 -4.84375 C 0.238281 -4.695312 0.363281 -4.613281 0.59375 -4.59375 C 1.507812 -4.5 2.523438 -4.601562 3.640625 -4.90625 L 3.6875 -4.828125 L 3.765625 -4.828125 C 9.015625 -5.878906 12.703125 -6.550781 14.828125 -6.84375 L 17.234375 -6.796875 L 17.59375 -6.765625 L 18.640625 -6.515625 C 19.347656 -6.085938 19.710938 -5.5 19.734375 -4.75 C 19.523438 -3.53125 17.117188 -1.296875 12.515625 1.953125 Z M 12.515625 1.953125 "/></g></g></g><g fill="#000000" fill-opacity="1"><g transform="translate(131.332388, 179.70418)"><g><path d="M 2.046875 -11.3125 C 2.578125 -11.019531 3.195312 -10.832031 3.90625 -10.75 L 3.90625 -10.8125 L 3.984375 -10.75 L 4.046875 -10.75 L 5.1875 -10.703125 C 5.925781 -9.003906 7.015625 -7.191406 8.453125 -5.265625 L 9.671875 -4.078125 C 11.015625 -3.128906 11.910156 -2.628906 12.359375 -2.578125 L 12.359375 -2.4375 C 11.960938 -2.476562 11.210938 -2.390625 10.109375 -2.171875 C 9.035156 -2.429688 7.832031 -3.160156 6.5 -4.359375 C 5.5625 -5.429688 4.785156 -6.628906 4.171875 -7.953125 C 3.796875 -8.441406 3.617188 -8.742188 3.640625 -8.859375 L 3.484375 -8.875 L 3.40625 -8.09375 L 3.078125 -6.359375 L 4.296875 -6.375 L 4.359375 -6.359375 C 4.710938 -6.316406 5.082031 -5.992188 5.46875 -5.390625 L 5.53125 -5.375 L 5.515625 -5.09375 C 3.523438 -5.144531 2.492188 -4.851562 2.421875 -4.21875 L 1.703125 -2.734375 L 1.875 -2.421875 L 1.765625 -2.21875 L 0.953125 -2.375 L 0.859375 -2.390625 L -1.546875 -2.5 L -1.53125 -2.640625 C -0.875 -3.335938 -0.335938 -4.085938 0.078125 -4.890625 L 0.015625 -5.828125 L 0.625 -6.046875 L 1.53125 -9.09375 L 1.453125 -9.09375 L 1.53125 -9.15625 L 1.703125 -10.84375 L 1.671875 -11.21875 Z M 2.046875 -11.3125 "/></g></g></g><g fill="#000000" fill-opacity="1"><g transform="translate(139.923695, 179.70418)"><g><path d="M 12.1875 -12.1875 L 10.671875 -9.359375 L 9.5625 -7.5625 L 6.734375 -7.28125 L 6.6875 -7.359375 L 6.703125 -7.5 C 7.421875 -8.113281 8.144531 -9.128906 8.875 -10.546875 L 8.953125 -10.609375 C 9.296875 -11.421875 9.5625 -11.914062 9.75 -12.09375 Z M 12.515625 1.953125 C 11.203125 2.648438 10.476562 3.21875 10.34375 3.65625 L 10.203125 3.640625 L 8.1875 3.0625 L 8.21875 2.9375 L 8.1875 2.5 C 8.863281 1.0625 9.257812 -0.175781 9.375 -1.21875 C 9.445312 -1.945312 9.265625 -2.6875 8.828125 -3.4375 L 8 -3.71875 L 8 -3.65625 L 7.796875 -3.75 L 7.8125 -3.953125 C 7.820312 -4.035156 8.582031 -4.238281 10.09375 -4.5625 C 10.84375 -4.28125 11.382812 -3.796875 11.71875 -3.109375 C 11.832031 -2.492188 11.859375 -1.875 11.796875 -1.25 C 11.703125 -0.445312 11.394531 0.398438 10.875 1.296875 C 11.726562 0.828125 12.75 -0.015625 13.9375 -1.234375 C 16 -3.179688 17.171875 -4.601562 17.453125 -5.5 L 17.46875 -5.5625 C 17.425781 -5.757812 17.222656 -5.875 16.859375 -5.90625 L 16.515625 -5.953125 L 16.078125 -5.9375 L 16.015625 -6 L 15.953125 -6.015625 C 12.847656 -5.734375 10.046875 -5.300781 7.546875 -4.71875 C 2.929688 -3.0625 0.0664062 -2.289062 -1.046875 -2.40625 C -1.453125 -2.457031 -1.722656 -2.609375 -1.859375 -2.859375 L -1.9375 -2.875 L -1.859375 -3.578125 L -1.671875 -3.984375 C -1.515625 -4.460938 -1.164062 -5.019531 -0.625 -5.65625 C -0.539062 -6.007812 0.46875 -7.039062 2.40625 -8.75 C 4.84375 -10.863281 6.144531 -11.910156 6.3125 -11.890625 L 8.890625 -12.046875 L 8.875 -11.828125 C 8.414062 -11.753906 6.882812 -10.757812 4.28125 -8.84375 C 2.164062 -7.09375 0.8125 -5.804688 0.21875 -4.984375 L 0.21875 -4.84375 C 0.238281 -4.695312 0.363281 -4.613281 0.59375 -4.59375 C 1.507812 -4.5 2.523438 -4.601562 3.640625 -4.90625 L 3.6875 -4.828125 L 3.765625 -4.828125 C 9.015625 -5.878906 12.703125 -6.550781 14.828125 -6.84375 L 17.234375 -6.796875 L 17.59375 -6.765625 L 18.640625 -6.515625 C 19.347656 -6.085938 19.710938 -5.5 19.734375 -4.75 C 19.523438 -3.53125 17.117188 -1.296875 12.515625 1.953125 Z M 12.515625 1.953125 "/></g></g></g><g fill="#000000" fill-opacity="1"><g transform="translate(156.984159, 179.70418)"><g/></g></g><g fill="#000000" fill-opacity="1"><g transform="translate(166.165861, 179.70418)"><g><path d="M 5.765625 -11.25 C 6.242188 -11.25 7.125 -11.015625 8.40625 -10.546875 L 7.28125 -10.34375 C 5.789062 -10.695312 5.046875 -10.96875 5.046875 -11.15625 L 5.046875 -11.25 Z M 3.828125 -10.953125 C 4.359375 -10.953125 5.273438 -10.644531 6.578125 -10.03125 L 6.578125 -9.9375 L 4.765625 -9.296875 C 2.878906 -8.148438 2.019531 -6.925781 2.1875 -5.625 C 2.28125 -4.976562 2.472656 -4.546875 2.765625 -4.328125 C 3.066406 -4.117188 3.539062 -4.039062 4.1875 -4.09375 C 4.84375 -4.15625 5.5 -4.691406 6.15625 -5.703125 C 6.59375 -5.878906 6.9375 -5.351562 7.1875 -4.125 C 6.46875 -2.914062 5.179688 -2.3125 3.328125 -2.3125 L 3.21875 -2.3125 L 2.203125 -2.625 C 0.710938 -3.363281 -0.03125 -4.648438 -0.03125 -6.484375 C -0.03125 -8.347656 1.253906 -9.835938 3.828125 -10.953125 Z M 3.828125 -10.953125 "/></g></g></g><g fill="#000000" fill-opacity="1"><g transform="translate(173.678163, 179.70418)"><g><path d="M 2.4375 -7.21875 C 2.457031 -6.238281 2.507812 -5.363281 2.59375 -4.59375 L 2.921875 -3.578125 L 3.046875 -3.609375 L 3.015625 -3.734375 L 5.015625 -3.921875 L 5.015625 -3.859375 C 4.753906 -3.335938 4.582031 -2.804688 4.5 -2.265625 L 4.15625 -2.203125 C 3.738281 -2.128906 3.164062 -1.835938 2.4375 -1.328125 C 1.976562 -1.253906 1.453125 -1.9375 0.859375 -3.375 L 0.546875 -4.46875 L 0.59375 -4.546875 L 0.453125 -4.875 L 0.4375 -5.015625 L 0.515625 -5.09375 L 0.421875 -5.15625 L 0.25 -6.5 L 0.25 -6.578125 L 0.234375 -7.921875 L 2.65625 -8.421875 Z M 1.765625 -9.28125 C 0.765625 -9.15625 0.203125 -9.515625 0.078125 -10.359375 C -0.140625 -11.035156 0.128906 -11.398438 0.890625 -11.453125 L 1.34375 -11.40625 C 1.851562 -11.53125 2.207031 -11.175781 2.40625 -10.34375 C 2.46875 -9.726562 2.253906 -9.375 1.765625 -9.28125 Z M 1.765625 -9.28125 "/></g></g></g><g fill="#000000" fill-opacity="1"><g transform="translate(178.095965, 179.70418)"><g><path d="M 0.515625 -10.953125 C 1.929688 -10.898438 2.644531 -10.941406 2.65625 -11.078125 C 2.851562 -11.867188 3.082031 -12.25 3.34375 -12.21875 L 5.4375 -12.34375 L 5.421875 -12.28125 L 5.03125 -11.171875 L 5.09375 -11.171875 C 6.863281 -11.316406 8.429688 -11.550781 9.796875 -11.875 L 9.796875 -11.8125 L 12.59375 -12.65625 L 12.65625 -12.5625 L 12.65625 -12.515625 C 12.238281 -11.554688 11.878906 -11.09375 11.578125 -11.125 C 9.628906 -10.40625 7.535156 -9.9375 5.296875 -9.71875 C 4.628906 -9.738281 4.28125 -9.539062 4.25 -9.125 L 3.40625 -7.28125 C 3.15625 -6.332031 2.960938 -5.476562 2.828125 -4.71875 L 2.875 -3.640625 L 3 -3.640625 L 3.015625 -3.78125 L 4.984375 -3.40625 L 4.96875 -3.34375 C 4.5625 -2.914062 4.25 -2.453125 4.03125 -1.953125 L 3.6875 -1.984375 C 3.257812 -2.035156 2.628906 -1.914062 1.796875 -1.625 C 1.335938 -1.675781 1.015625 -2.46875 0.828125 -4 L 0.8125 -5.15625 L 0.890625 -5.21875 L 0.859375 -5.5625 L 0.875 -5.703125 L 0.953125 -5.765625 L 0.890625 -5.859375 L 1.09375 -7.1875 L 1.109375 -7.25 L 1.703125 -9.53125 L 1.296875 -9.65625 L 1.015625 -9.6875 L 0.65625 -9.65625 L 0.515625 -9.671875 L 0.453125 -9.75 L -0.078125 -9.71875 L -0.5 -9.875 L -0.53125 -10.40625 C -0.382812 -10.8125 -0.0351562 -10.992188 0.515625 -10.953125 Z M 0.515625 -10.953125 "/></g></g></g><g fill="#000000" fill-opacity="1"><g transform="translate(183.114345, 179.70418)"><g><path d="M 3.890625 -3.4375 C 3.910156 -3.25 3.929688 -3.03125 3.953125 -2.78125 L 3.984375 -2.703125 C 4.171875 -1.585938 4.441406 -0.722656 4.796875 -0.109375 L 4.625 0.296875 L 2.75 -0.015625 L 2.375 -1.640625 L 2.015625 -3.9375 C 1.742188 -4.195312 1.46875 -4.550781 1.1875 -5 C 0.65625 -6.207031 0.3125 -7.609375 0.15625 -9.203125 C 0 -10.796875 0.03125 -11.71875 0.25 -11.96875 L 0.828125 -12.03125 C 1.765625 -12.113281 2.335938 -11.921875 2.546875 -11.453125 L 2.5625 -11.3125 C 2.1875 -10.132812 2.039062 -9.078125 2.125 -8.140625 L 2.265625 -6.703125 C 2.535156 -5.847656 2.804688 -5.289062 3.078125 -5.03125 L 3.28125 -5.125 C 3.96875 -6.101562 4.269531 -7.050781 4.1875 -7.96875 L 4.03125 -9.5625 L 4.109375 -9.625 L 5.21875 -9.375 C 5.894531 -9.4375 6.25 -9.296875 6.28125 -8.953125 L 6.296875 -8.8125 C 6.367188 -7.988281 6.175781 -6.882812 5.71875 -5.5 C 5.082031 -4.175781 4.472656 -3.488281 3.890625 -3.4375 Z M 3.890625 -3.4375 "/></g></g></g><g fill="#000000" fill-opacity="1"><g transform="translate(189.394962, 179.70418)"><g><path d="M 2.671875 -1.234375 C 1.671875 -1.117188 1.109375 -1.484375 0.984375 -2.328125 C 0.765625 -3.003906 1.035156 -3.363281 1.796875 -3.40625 L 2.25 -3.375 C 2.757812 -3.488281 3.113281 -3.132812 3.3125 -2.3125 C 3.375 -1.6875 3.160156 -1.328125 2.671875 -1.234375 Z M 2.671875 -1.234375 "/></g></g></g></svg>