<svg xmlns="http://www.w3.org/2000/svg" xmlns:xlink="http://www.w3.org/1999/xlink" width="1640" zoomAndPan="magnify" viewBox="0 0 1230 225" height="300" preserveAspectRatio="xMidYMid meet" version="1.0"><defs><g/></defs><g fill="#ffffff" fill-opacity="1"><g transform="translate(57.91651, 146.079968)"><g><path d="M 53.59375 -100.203125 L 55.46875 -99.875 L 57.34375 -99.875 L 57.671875 -99.609375 L 57.9375 -99.875 C 65.15625 -99.875 72.253906 -96.960938 79.234375 -91.140625 C 83.597656 -85.921875 85.78125 -80.570312 85.78125 -75.09375 C 85.78125 -67.832031 81.71875 -61.289062 73.59375 -55.46875 L 70.4375 -53.640625 C 71.507812 -52.210938 72.046875 -50.40625 72.046875 -48.21875 C 71.398438 -45.21875 70.773438 -43.71875 70.171875 -43.71875 L 70.171875 -43.390625 L 70.4375 -43.390625 C 71.582031 -44.210938 73.046875 -44.625 74.828125 -44.625 L 76.0625 -44.625 C 78.457031 -44.625 79.816406 -43.109375 80.140625 -40.078125 C 80.140625 -38.109375 78.265625 -36.300781 74.515625 -34.65625 C 72.648438 -34.832031 70.984375 -35.332031 69.515625 -36.15625 L 69.515625 -35.828125 C 73.703125 -29.179688 75.796875 -23.441406 75.796875 -18.609375 L 75.796875 -16.796875 C 74.898438 -12.285156 73.328125 -8.957031 71.078125 -6.8125 C 66.179688 -2.375 61.90625 -0.15625 58.25 -0.15625 C 52.632812 1.238281 48.054688 1.9375 44.515625 1.9375 L 42.96875 1.9375 C 30.488281 1.9375 22.242188 -2.800781 18.234375 -12.28125 L 17.640625 -17.109375 C 17.640625 -20.753906 18.570312 -24.382812 20.4375 -28 L 20.4375 -28.90625 C 17.71875 -30.195312 16.359375 -32.003906 16.359375 -34.328125 L 16.359375 -34.921875 C 16.359375 -37.066406 17.09375 -38.976562 18.5625 -40.65625 L 18.5625 -40.984375 C 16.34375 -42.660156 14.894531 -44.769531 14.21875 -47.3125 C 2.945312 -50.425781 -2.6875 -56.878906 -2.6875 -66.671875 C -2.6875 -75.722656 -1.128906 -82.070312 1.984375 -85.71875 C 5.992188 -92.550781 11.945312 -95.96875 19.84375 -95.96875 L 21.078125 -95.96875 C 21.796875 -96.570312 23.050781 -96.875 24.84375 -96.875 L 28.59375 -96.875 C 31.269531 -96.875 33.144531 -97.070312 34.21875 -97.46875 L 35.78125 -97.203125 C 41.039062 -97.597656 46.976562 -98.597656 53.59375 -100.203125 Z M 45.4375 -92.375 L 45.4375 -92.640625 L 45.171875 -92.375 L 44.84375 -92.375 L 43.5625 -92.640625 C 42.34375 -92.035156 37.140625 -91.535156 27.953125 -91.140625 L 25.75 -91.453125 C 24.25 -90.890625 21.332031 -90.375 17 -89.90625 C 13.425781 -89.113281 10.191406 -87.003906 7.296875 -83.578125 C 5.148438 -81.460938 3.488281 -75.613281 2.3125 -66.03125 L 2.3125 -65.4375 C 3.195312 -59.789062 4.234375 -56.96875 5.421875 -56.96875 C 6.847656 -54.75 10.191406 -52.941406 15.453125 -51.546875 L 18.234375 -51.546875 C 21.742188 -51.546875 25.085938 -54.066406 28.265625 -59.109375 L 31.375 -59.703125 C 33.269531 -58.484375 34.21875 -55.875 34.21875 -51.875 L 34.484375 -51.546875 C 34.484375 -46.148438 32.625 -38.800781 28.90625 -29.5 C 25.332031 -25.03125 23.546875 -20.597656 23.546875 -16.203125 C 23.546875 -8.648438 28.960938 -4.210938 39.796875 -2.890625 L 41.6875 -2.578125 C 56.695312 -4.078125 64.203125 -6.007812 64.203125 -8.375 C 67.960938 -10.800781 69.84375 -14.210938 69.84375 -18.609375 L 69.84375 -21.34375 C 69.84375 -24.425781 66.085938 -31.363281 58.578125 -42.15625 C 57.972656 -42.269531 56.203125 -45.007812 53.265625 -50.375 C 51.585938 -51.125 50.75 -52.125 50.75 -53.375 L 51.0625 -53.375 C 50.675781 -54.050781 50.375 -55.660156 50.15625 -58.203125 C 50.15625 -59.273438 51.300781 -59.972656 53.59375 -60.296875 C 54.769531 -59.253906 56.953125 -58.445312 60.140625 -57.875 C 68.398438 -57.875 74.140625 -61.304688 77.359375 -68.171875 C 77.671875 -68.171875 78.1875 -69.976562 78.90625 -73.59375 L 78.90625 -74.828125 C 78.90625 -83.515625 75.992188 -88.644531 70.171875 -90.21875 C 64.160156 -92.550781 59.148438 -93.769531 55.140625 -93.875 Z M 24.84375 -89.046875 C 26.476562 -88.191406 27.296875 -87.28125 27.296875 -86.3125 C 27.117188 -83.09375 26.492188 -81.484375 25.421875 -81.484375 L 23.875 -81.484375 C 23.050781 -81.484375 22.53125 -82.984375 22.3125 -85.984375 L 22.640625 -85.984375 L 22.3125 -86.3125 L 22.3125 -87.8125 C 22.3125 -88.414062 23.15625 -88.828125 24.84375 -89.046875 Z M 18.875 -87.8125 C 20.269531 -87.8125 21.203125 -86.8125 21.671875 -84.8125 L 22 -84.484375 C 21.78125 -82.660156 20.847656 -81.75 19.203125 -81.75 L 12.015625 -77.25 C 12.015625 -76.851562 11.28125 -75.941406 9.8125 -74.515625 C 8.8125 -71.679688 7.347656 -70.265625 5.421875 -70.265625 C 4.484375 -70.660156 3.960938 -71.070312 3.859375 -71.5 L 3.859375 -72.6875 C 4.035156 -75.613281 6.128906 -79.15625 10.140625 -83.3125 C 13.285156 -85.707031 16.195312 -87.207031 18.875 -87.8125 Z M 68.28125 -40.984375 L 67.328125 -39.484375 C 67.828125 -38.265625 68.253906 -37.65625 68.609375 -37.65625 L 68.875 -39.75 L 68.875 -40.984375 Z M 68.28125 -40.984375 "/></g></g></g><g fill="#ffffff" fill-opacity="1"><g transform="translate(137.721194, 146.079968)"><g/></g></g><g fill="#ffffff" fill-opacity="1"><g transform="translate(149.337584, 156.378735)"><g><path d="M 33.578125 -88.453125 C 33.578125 -88.066406 33.894531 -87.875 34.53125 -87.875 L 46.984375 -88.453125 C 55.734375 -88.453125 63.828125 -84.332031 71.265625 -76.09375 C 72.085938 -75.132812 72.914062 -74.65625 73.75 -74.65625 C 74.582031 -74.65625 76.128906 -70.347656 78.390625 -61.734375 L 78.109375 -61.4375 L 78.390625 -58.46875 L 78.390625 -57.90625 C 78.390625 -48.257812 77.257812 -40.816406 75 -35.578125 C 75 -34.648438 74.789062 -33.960938 74.375 -33.515625 L 74.375 -32.953125 C 75.613281 -30.296875 76.234375 -27.644531 76.234375 -25 L 75.90625 -22.9375 C 76.957031 -20.476562 77.484375 -18.816406 77.484375 -17.953125 L 77.484375 -17.390625 C 77.484375 -15.242188 76.128906 -13.582031 73.421875 -12.40625 L 73.421875 -11.78125 C 74.054688 -11.082031 74.675781 -9.613281 75.28125 -7.375 L 75 -7.09375 L 75 -6.796875 L 75.28125 -5.65625 C 73.84375 -2.488281 70.9375 -0.90625 66.5625 -0.90625 L 65.03125 -0.90625 C 64.070312 -0.90625 61.675781 -1.703125 57.84375 -3.296875 C 54.175781 -0.941406 49.195312 0.617188 42.90625 1.390625 C 42.90625 1.773438 40.832031 2.078125 36.6875 2.296875 C 32.25 2.296875 28.925781 1.894531 26.71875 1.09375 L 26.4375 1.390625 L 17.71875 -2.96875 C 17.65625 -3.320312 16.828125 -3.910156 15.234375 -4.734375 L 12.40625 -3.875 C 8.726562 -4.644531 6.347656 -5.425781 5.265625 -6.21875 C 2.359375 -8.550781 0.90625 -11.09375 0.90625 -13.84375 L 0.90625 -15.328125 C 1.582031 -18.648438 2.207031 -20.3125 2.78125 -20.3125 C -0.664062 -27.550781 -2.535156 -34.601562 -2.828125 -41.46875 L -2.53125 -41.765625 L -2.53125 -42.046875 L -2.828125 -46.453125 C -2.703125 -48.210938 -2.492188 -49.09375 -2.203125 -49.09375 L -2.53125 -49.375 L -2.53125 -49.65625 C -2.125 -50.363281 -1.804688 -51.738281 -1.578125 -53.78125 C -4.710938 -55.882812 -6.28125 -60.097656 -6.28125 -66.421875 C -6.28125 -69.265625 -4.296875 -72.203125 -0.328125 -75.234375 L 4.9375 -77.296875 C 6.625 -84.160156 10.054688 -87.59375 15.234375 -87.59375 L 15.515625 -87.59375 C 18.390625 -87.59375 20.460938 -86.316406 21.734375 -83.765625 C 27.296875 -86.890625 31.242188 -88.453125 33.578125 -88.453125 Z M 1.203125 -87.25 C 4.328125 -87.25 5.890625 -85.988281 5.890625 -83.46875 L 5.5625 -83.46875 L 5.890625 -82.5625 C 5.890625 -80.644531 5.0625 -79.175781 3.40625 -78.15625 L 0.90625 -78.15625 C -1.800781 -78.664062 -3.15625 -79.75 -3.15625 -81.40625 L -3.15625 -82.28125 C -2.488281 -85.40625 -1.453125 -86.96875 -0.046875 -86.96875 Z M 5.5625 -49.09375 L 5.5625 -44.390625 C 5.96875 -40.367188 6.796875 -35.960938 8.046875 -31.171875 C 8.328125 -28.523438 9.363281 -26.179688 11.15625 -24.140625 C 11.601562 -24.109375 12.640625 -21.953125 14.265625 -17.671875 L 17.390625 -13.546875 L 18.96875 -10.625 C 24.613281 -7.6875 29.59375 -6.21875 33.90625 -6.21875 L 34.8125 -6.21875 C 40.84375 -6.21875 48.519531 -8.28125 57.84375 -12.40625 C 62.28125 -14.695312 65.1875 -17.921875 66.5625 -22.078125 L 67.53125 -26.765625 L 67.53125 -28.546875 L 67.1875 -28.546875 C 65.6875 -27.742188 63.195312 -27.34375 59.71875 -27.34375 L 59.4375 -27.34375 C 56.113281 -27.34375 51.019531 -29.210938 44.15625 -32.953125 L 40.125 -36.15625 L 39.515625 -26.484375 C 38.960938 -25.304688 38.226562 -24.71875 37.3125 -24.71875 L 36.0625 -25.28125 L 35.78125 -25 L 35.4375 -25 C 33.582031 -25 32.65625 -27.054688 32.65625 -31.171875 C 32.65625 -36.316406 32.128906 -41.8125 31.078125 -47.65625 L 31.421875 -47.65625 L 31.078125 -47.9375 L 31.078125 -48.21875 C 31.078125 -49.71875 32.226562 -50.597656 34.53125 -50.859375 L 34.8125 -50.578125 L 35.15625 -50.578125 L 37.640625 -51.140625 C 40.546875 -48.617188 42 -46.175781 42 -43.8125 C 47.101562 -37.332031 51.460938 -34.09375 55.078125 -34.09375 C 61.804688 -34.894531 65.75 -36.957031 66.90625 -40.28125 C 68.976562 -45.382812 70.015625 -51.65625 70.015625 -59.09375 L 70.015625 -61.15625 C 70.015625 -66.488281 68.144531 -70.207031 64.40625 -72.3125 C 59.425781 -77.039062 54.128906 -79.882812 48.515625 -80.84375 L 42.28125 -81.703125 C 37.976562 -81.703125 32.171875 -79.640625 24.859375 -75.515625 C 14.578125 -65.648438 9.289062 -59.585938 9 -57.328125 C 6.707031 -53.335938 5.5625 -50.59375 5.5625 -49.09375 Z M 51.625 -68.765625 L 54.109375 -65.5625 C 55.453125 -66.519531 56.601562 -67 57.5625 -67 L 58.8125 -65.84375 L 58.8125 -64.9375 L 56.609375 -59.953125 L 60.96875 -50.859375 C 60.96875 -50.222656 60.132812 -49.441406 58.46875 -48.515625 C 56.425781 -48.515625 54.972656 -49.789062 54.109375 -52.34375 L 53.828125 -52.34375 C 53.160156 -49.59375 52.007812 -48.21875 50.375 -48.21875 C 49.519531 -48.476562 48.898438 -48.957031 48.515625 -49.65625 C 48.515625 -50.875 49.132812 -53.71875 50.375 -58.1875 C 48.113281 -62.6875 46.660156 -65.238281 46.015625 -65.84375 L 46.015625 -66.421875 C 47.554688 -67.984375 49.425781 -68.765625 51.625 -68.765625 Z M 10.875 -35.875 L 11.78125 -35.875 C 12.320312 -35.289062 13.148438 -35 14.265625 -35 C 18.390625 -26.570312 21.296875 -22.070312 22.984375 -21.5 C 24.773438 -18.757812 27.171875 -16.894531 30.171875 -15.90625 C 30.585938 -15.90625 30.796875 -15.613281 30.796875 -15.03125 L 31.421875 -15.03125 C 31.515625 -15.800781 31.816406 -16.1875 32.328125 -16.1875 L 33.578125 -16.1875 L 35.15625 -14.75 C 34.414062 -11.394531 33.679688 -9.71875 32.953125 -9.71875 L 31.078125 -9.71875 C 30.597656 -9.71875 30.296875 -10.40625 30.171875 -11.78125 L 30.453125 -12.109375 L 30.171875 -12.109375 C 29.023438 -11.117188 27.78125 -10.625 26.4375 -10.625 C 20.5 -14.6875 16.648438 -18.789062 14.890625 -22.9375 C 12.972656 -26.195312 11.519531 -30.125 10.53125 -34.71875 Z M 30.453125 -14.75 L 30.453125 -13.265625 L 30.796875 -13.265625 L 31.078125 -14.75 Z M 30.453125 -14.75 "/></g></g></g><g fill="#ffffff" fill-opacity="1"><g transform="translate(236.093076, 144.444822)"><g><path d="M 14.046875 -93.046875 C 18.660156 -93.046875 22.226562 -91.40625 24.75 -88.125 L 25.15625 -88.125 C 30.894531 -90.945312 35.363281 -92.359375 38.5625 -92.359375 L 39.703125 -92 L 42.78125 -92.359375 L 42.78125 -92 L 43.9375 -92.359375 C 49.050781 -92.359375 54.796875 -89.429688 61.171875 -83.578125 C 65.785156 -78.628906 68.09375 -73.003906 68.09375 -66.703125 L 68.484375 -66.703125 C 69.953125 -66.703125 71.234375 -64.476562 72.328125 -60.03125 L 72.328125 -58.28125 C 72.328125 -56.820312 71.679688 -54.945312 70.390625 -52.65625 C 77.296875 -36.914062 80.75 -24.257812 80.75 -14.6875 C 80.75 -12.394531 78.835938 -9.226562 75.015625 -5.1875 C 71.828125 -1.695312 68.125 0.046875 63.90625 0.046875 L 61.96875 0.046875 C 53.832031 0.046875 48.203125 -1.460938 45.078125 -4.484375 C 39.597656 -0.0351562 34.367188 2.1875 29.390625 2.1875 L 27.046875 2.1875 C 16.359375 2.1875 8.191406 -2.023438 2.546875 -10.453125 C 0.515625 -13.546875 -0.5 -17.1875 -0.5 -21.375 L -0.890625 -23.109375 L -0.5 -23.46875 L -0.5 -23.8125 L -0.890625 -24.15625 C -0.628906 -28.84375 1.007812 -34.585938 4.03125 -41.390625 L 4.828125 -44.1875 C 2.472656 -44.1875 0.445312 -46.0625 -1.25 -49.8125 L -1.6875 -53.703125 L -1.6875 -54.390625 C -1.6875 -60.367188 -0.144531 -64.585938 2.9375 -67.046875 L 2.9375 -69.140625 C 2.9375 -71.859375 3.816406 -74.195312 5.578125 -76.15625 C 3.554688 -76.15625 1.78125 -78.75 0.25 -83.9375 C 2.070312 -89.550781 5.128906 -92.359375 9.421875 -92.359375 Z M 14.796875 -65.65625 L 15.140625 -65.296875 L 15.140625 -64.953125 L 12.109375 -47.015625 L 6.375 -29.09375 C 6.375 -16.632812 9.066406 -9.007812 14.453125 -6.21875 C 18.960938 -4.132812 23.296875 -3.09375 27.453125 -3.09375 L 27.84375 -3.4375 L 28.1875 -3.4375 L 29.390625 -3.09375 C 36.523438 -4.1875 40.09375 -5.945312 40.09375 -8.375 C 41.03125 -8.375 41.925781 -10.363281 42.78125 -14.34375 C 42.78125 -23.082031 40.09375 -30.109375 34.71875 -35.421875 C 34.882812 -36.816406 35.285156 -37.515625 35.921875 -37.515625 L 35.515625 -37.859375 L 35.515625 -38.90625 C 35.515625 -39.769531 39.847656 -40.597656 48.515625 -41.390625 L 49.65625 -41.390625 C 51.65625 -41.390625 52.9375 -40.8125 53.5 -39.65625 L 53.5 -37.515625 C 54.257812 -37.515625 54.640625 -36.929688 54.640625 -35.765625 L 43.140625 -34.015625 C 46.992188 -28.078125 48.921875 -22.332031 48.921875 -16.78125 L 48.921875 -15.734375 L 47.765625 -10.453125 C 47.765625 -8.492188 52.5 -7.082031 61.96875 -6.21875 C 68.601562 -7.78125 71.921875 -10.238281 71.921875 -13.59375 C 72.691406 -15.125 73.078125 -17.003906 73.078125 -19.234375 L 73.078125 -19.921875 C 73.078125 -24.203125 69.753906 -34.992188 63.109375 -52.296875 L 60.828125 -72.671875 C 60.453125 -72.671875 59.9375 -74.550781 59.28125 -78.3125 C 56.257812 -82.519531 53.566406 -84.625 51.203125 -84.625 C 49.078125 -86.019531 46.65625 -86.71875 43.9375 -86.71875 C 34.863281 -86.71875 26.175781 -83.679688 17.875 -77.609375 C 15.820312 -72.890625 14.796875 -68.90625 14.796875 -65.65625 Z M 41.640625 -63.859375 C 43.429688 -63.554688 44.328125 -63.09375 44.328125 -62.46875 L 43.9375 -61.421875 L 44.328125 -59.328125 L 42.046875 -57.1875 L 45.875 -51.953125 L 45.875 -50.515625 C 45.875 -50.046875 44.960938 -49.695312 43.140625 -49.46875 L 42.78125 -49.8125 L 42.390625 -49.8125 L 42.046875 -49.46875 L 41.640625 -49.46875 C 40.804688 -49.5625 39.644531 -50.390625 38.15625 -51.953125 C 36.5 -50.523438 35.101562 -49.8125 33.96875 -49.8125 L 32.03125 -51.5625 L 32.03125 -51.953125 L 35.921875 -57.1875 L 33.578125 -60.71875 C 33.835938 -62.582031 34.21875 -63.515625 34.71875 -63.515625 L 37.015625 -63.515625 L 38.953125 -61.765625 C 39.585938 -62.796875 40.484375 -63.492188 41.640625 -63.859375 Z M 11.703125 -31.53125 L 12.90625 -30.484375 L 12.90625 -27.34375 C 12.90625 -22.132812 14.296875 -17.203125 17.078125 -12.546875 L 17.078125 -12.203125 C 17.078125 -11.566406 15.6875 -11.101562 12.90625 -10.8125 C 10.34375 -14.394531 9.0625 -17.796875 9.0625 -21.015625 L 9.0625 -22.0625 C 9.09375 -27.507812 9.972656 -30.664062 11.703125 -31.53125 Z M 18.625 -10.8125 L 19.421875 -9.765625 L 19.421875 -8.375 L 17.484375 -6.921875 L 15.9375 -6.921875 L 15.140625 -7.671875 L 15.546875 -8.71875 L 14.796875 -9.421875 C 14.796875 -10.109375 16.070312 -10.570312 18.625 -10.8125 Z M 18.625 -10.8125 "/></g></g></g><g fill="#ffffff" fill-opacity="1"><g transform="translate(367.75229, 149.550513)"><g><path d="M 14.046875 -93.046875 C 18.660156 -93.046875 22.226562 -91.40625 24.75 -88.125 L 25.15625 -88.125 C 30.894531 -90.945312 35.363281 -92.359375 38.5625 -92.359375 L 39.703125 -92 L 42.78125 -92.359375 L 42.78125 -92 L 43.9375 -92.359375 C 49.050781 -92.359375 54.796875 -89.429688 61.171875 -83.578125 C 65.785156 -78.628906 68.09375 -73.003906 68.09375 -66.703125 L 68.484375 -66.703125 C 69.953125 -66.703125 71.234375 -64.476562 72.328125 -60.03125 L 72.328125 -58.28125 C 72.328125 -56.820312 71.679688 -54.945312 70.390625 -52.65625 C 77.296875 -36.914062 80.75 -24.257812 80.75 -14.6875 C 80.75 -12.394531 78.835938 -9.226562 75.015625 -5.1875 C 71.828125 -1.695312 68.125 0.046875 63.90625 0.046875 L 61.96875 0.046875 C 53.832031 0.046875 48.203125 -1.460938 45.078125 -4.484375 C 39.597656 -0.0351562 34.367188 2.1875 29.390625 2.1875 L 27.046875 2.1875 C 16.359375 2.1875 8.191406 -2.023438 2.546875 -10.453125 C 0.515625 -13.546875 -0.5 -17.1875 -0.5 -21.375 L -0.890625 -23.109375 L -0.5 -23.46875 L -0.5 -23.8125 L -0.890625 -24.15625 C -0.628906 -28.84375 1.007812 -34.585938 4.03125 -41.390625 L 4.828125 -44.1875 C 2.472656 -44.1875 0.445312 -46.0625 -1.25 -49.8125 L -1.6875 -53.703125 L -1.6875 -54.390625 C -1.6875 -60.367188 -0.144531 -64.585938 2.9375 -67.046875 L 2.9375 -69.140625 C 2.9375 -71.859375 3.816406 -74.195312 5.578125 -76.15625 C 3.554688 -76.15625 1.78125 -78.75 0.25 -83.9375 C 2.070312 -89.550781 5.128906 -92.359375 9.421875 -92.359375 Z M 14.796875 -65.65625 L 15.140625 -65.296875 L 15.140625 -64.953125 L 12.109375 -47.015625 L 6.375 -29.09375 C 6.375 -16.632812 9.066406 -9.007812 14.453125 -6.21875 C 18.960938 -4.132812 23.296875 -3.09375 27.453125 -3.09375 L 27.84375 -3.4375 L 28.1875 -3.4375 L 29.390625 -3.09375 C 36.523438 -4.1875 40.09375 -5.945312 40.09375 -8.375 C 41.03125 -8.375 41.925781 -10.363281 42.78125 -14.34375 C 42.78125 -23.082031 40.09375 -30.109375 34.71875 -35.421875 C 34.882812 -36.816406 35.285156 -37.515625 35.921875 -37.515625 L 35.515625 -37.859375 L 35.515625 -38.90625 C 35.515625 -39.769531 39.847656 -40.597656 48.515625 -41.390625 L 49.65625 -41.390625 C 51.65625 -41.390625 52.9375 -40.8125 53.5 -39.65625 L 53.5 -37.515625 C 54.257812 -37.515625 54.640625 -36.929688 54.640625 -35.765625 L 43.140625 -34.015625 C 46.992188 -28.078125 48.921875 -22.332031 48.921875 -16.78125 L 48.921875 -15.734375 L 47.765625 -10.453125 C 47.765625 -8.492188 52.5 -7.082031 61.96875 -6.21875 C 68.601562 -7.78125 71.921875 -10.238281 71.921875 -13.59375 C 72.691406 -15.125 73.078125 -17.003906 73.078125 -19.234375 L 73.078125 -19.921875 C 73.078125 -24.203125 69.753906 -34.992188 63.109375 -52.296875 L 60.828125 -72.671875 C 60.453125 -72.671875 59.9375 -74.550781 59.28125 -78.3125 C 56.257812 -82.519531 53.566406 -84.625 51.203125 -84.625 C 49.078125 -86.019531 46.65625 -86.71875 43.9375 -86.71875 C 34.863281 -86.71875 26.175781 -83.679688 17.875 -77.609375 C 15.820312 -72.890625 14.796875 -68.90625 14.796875 -65.65625 Z M 41.640625 -63.859375 C 43.429688 -63.554688 44.328125 -63.09375 44.328125 -62.46875 L 43.9375 -61.421875 L 44.328125 -59.328125 L 42.046875 -57.1875 L 45.875 -51.953125 L 45.875 -50.515625 C 45.875 -50.046875 44.960938 -49.695312 43.140625 -49.46875 L 42.78125 -49.8125 L 42.390625 -49.8125 L 42.046875 -49.46875 L 41.640625 -49.46875 C 40.804688 -49.5625 39.644531 -50.390625 38.15625 -51.953125 C 36.5 -50.523438 35.101562 -49.8125 33.96875 -49.8125 L 32.03125 -51.5625 L 32.03125 -51.953125 L 35.921875 -57.1875 L 33.578125 -60.71875 C 33.835938 -62.582031 34.21875 -63.515625 34.71875 -63.515625 L 37.015625 -63.515625 L 38.953125 -61.765625 C 39.585938 -62.796875 40.484375 -63.492188 41.640625 -63.859375 Z M 11.703125 -31.53125 L 12.90625 -30.484375 L 12.90625 -27.34375 C 12.90625 -22.132812 14.296875 -17.203125 17.078125 -12.546875 L 17.078125 -12.203125 C 17.078125 -11.566406 15.6875 -11.101562 12.90625 -10.8125 C 10.34375 -14.394531 9.0625 -17.796875 9.0625 -21.015625 L 9.0625 -22.0625 C 9.09375 -27.507812 9.972656 -30.664062 11.703125 -31.53125 Z M 18.625 -10.8125 L 19.421875 -9.765625 L 19.421875 -8.375 L 17.484375 -6.921875 L 15.9375 -6.921875 L 15.140625 -7.671875 L 15.546875 -8.71875 L 14.796875 -9.421875 C 14.796875 -10.109375 16.070312 -10.570312 18.625 -10.8125 Z M 18.625 -10.8125 "/></g></g></g><g fill="#ffffff" fill-opacity="1"><g transform="translate(453.130294, 157.780712)"><g><path d="M 51.078125 -89.96875 C 59.460938 -89.96875 64.960938 -84.84375 67.578125 -74.59375 L 67.578125 -72.84375 C 70.503906 -72.84375 72.664062 -70.910156 74.0625 -67.046875 L 74.0625 -63.3125 L 73.1875 -59.875 C 74.925781 -58.882812 75.796875 -56.953125 75.796875 -54.078125 C 75.796875 -51.628906 74.632812 -49.46875 72.3125 -47.59375 C 76.050781 -41.4375 77.921875 -37.097656 77.921875 -34.578125 L 77.921875 -29.796875 C 75.347656 -21.960938 73.332031 -16.945312 71.875 -14.75 C 72.550781 -14.75 73.28125 -13.15625 74.0625 -9.96875 L 73.1875 -8.609375 L 73.625 -8.265625 L 73.625 -7.9375 C 72.101562 -4.0625 69.648438 -2.125 66.265625 -2.125 L 65.828125 -2.125 L 60.171875 -2.8125 C 60.171875 -1.769531 54.976562 -0.1875 44.59375 1.9375 L 38.109375 2.65625 L 36.8125 2.65625 L 16.453125 -1.109375 C 6.898438 -1.109375 2.125 -4.523438 2.125 -11.359375 L 0.4375 -16.5 C 1.019531 -24.976562 1.726562 -31.457031 2.5625 -35.9375 C 2.5625 -38.488281 0.835938 -46.019531 -2.609375 -58.53125 L -3.046875 -62.640625 C -3.046875 -72.023438 0.707031 -78.617188 8.21875 -82.421875 L 46.34375 -89.625 L 46.78125 -89.296875 L 47.203125 -89.296875 Z M 3.875 -64 C 3.875 -59.675781 5.035156 -53.398438 7.359375 -45.171875 L 8.21875 -36.28125 L 6.921875 -24.671875 L 7.78125 -21.625 L 7.359375 -21.28125 C 7.359375 -18.1875 9.660156 -14.1875 14.265625 -9.28125 C 15.203125 -8.15625 17.507812 -7.59375 21.1875 -7.59375 L 38.984375 -3.484375 L 40.671875 -3.484375 C 47.734375 -3.484375 55.394531 -6.335938 63.65625 -12.046875 C 68.550781 -18.429688 71 -24.007812 71 -28.78125 C 71 -40.0625 67.242188 -47.125 59.734375 -49.96875 L 49.765625 -51.328125 C 44.316406 -51.328125 37.820312 -48.019531 30.28125 -41.40625 L 28.59375 -38.015625 L 29.015625 -34.921875 C 27.921875 -33.210938 26.90625 -32.195312 25.96875 -31.875 L 25.546875 -31.875 C 22.929688 -32.257812 21.625 -32.710938 21.625 -33.234375 L 21.625 -37.34375 C 21.625 -43.988281 28.410156 -50.128906 41.984375 -55.765625 C 46.722656 -57.085938 50.914062 -57.894531 54.5625 -58.1875 C 57.269531 -62.601562 59.140625 -66.359375 60.171875 -69.453125 L 59.734375 -69.796875 L 60.171875 -71.15625 C 60.171875 -77.507812 57.863281 -81.617188 53.25 -83.484375 L 48.953125 -83.484375 C 43.398438 -83.484375 32.707031 -81.535156 16.875 -77.640625 C 10.78125 -77.640625 6.878906 -74.910156 5.171875 -69.453125 C 4.492188 -69.265625 4.0625 -67.445312 3.875 -64 Z M 39.421875 -75.265625 L 41.109375 -75.265625 L 42.859375 -73.90625 L 42.859375 -72.5 L 40.25 -67.765625 C 43.726562 -65.285156 45.46875 -63.445312 45.46875 -62.25 L 45.46875 -60.890625 C 45.207031 -60.179688 43.609375 -59.394531 40.671875 -58.53125 C 39.992188 -58.53125 38.5625 -59.546875 36.375 -61.578125 C 34.925781 -59.222656 33.617188 -57.867188 32.453125 -57.515625 L 32.015625 -57.515625 C 30.410156 -57.515625 29.410156 -58.078125 29.015625 -59.203125 L 32.890625 -66.359375 L 29.015625 -69.453125 L 29.015625 -70.140625 C 29.015625 -71.617188 30.304688 -72.519531 32.890625 -72.84375 L 35.9375 -71.484375 C 37.0625 -73.585938 38.222656 -74.847656 39.421875 -75.265625 Z M 47.203125 -48.609375 C 57.460938 -48.609375 63.816406 -45.984375 66.265625 -40.734375 L 66.703125 -37.34375 C 65.179688 -36.175781 63.875 -35.59375 62.78125 -35.59375 C 62.132812 -35.59375 61.265625 -37.660156 60.171875 -41.796875 C 56.234375 -45.210938 51.1875 -46.921875 45.03125 -46.921875 L 45.03125 -47.59375 C 45.03125 -48.113281 45.753906 -48.453125 47.203125 -48.609375 Z M 43.734375 -36.28125 C 45.765625 -34.40625 46.78125 -32.9375 46.78125 -31.875 C 48.519531 -33.90625 50.242188 -34.921875 51.953125 -34.921875 L 54.5625 -32.546875 L 54.5625 -31.875 C 54.5625 -31.132812 53.253906 -29.070312 50.640625 -25.6875 L 50.640625 -25.34375 C 50.640625 -24.4375 51.65625 -22.726562 53.6875 -20.21875 L 53.6875 -19.546875 C 53.6875 -19.054688 52.238281 -18.265625 49.34375 -17.171875 C 48.4375 -17.171875 47.289062 -17.625 45.90625 -18.53125 C 43.613281 -16.71875 42.015625 -15.8125 41.109375 -15.8125 C 39.109375 -17.132812 38.109375 -18.488281 38.109375 -19.875 L 41.984375 -25.34375 L 38.546875 -34.25 L 38.546875 -34.578125 C 39.742188 -35.710938 41.472656 -36.28125 43.734375 -36.28125 Z M 69.265625 -35.59375 L 70.140625 -35.59375 L 70.140625 -35.265625 C 69.847656 -32.066406 67.976562 -30.46875 64.53125 -30.46875 L 64.09375 -30.46875 L 62.78125 -31.53125 L 62.78125 -31.875 C 63.6875 -34.132812 64.703125 -35.265625 65.828125 -35.265625 Z M 69.265625 -35.59375 "/></g></g></g><g fill="#ffffff" fill-opacity="1"><g transform="translate(535.931931, 151.604389)"><g><path d="M 26.703125 -94.875 C 34.484375 -94.875 40.691406 -92.847656 45.328125 -88.796875 C 48.617188 -92.109375 52.257812 -93.765625 56.25 -93.765625 L 60.5625 -94.625 C 65.90625 -94.050781 70.101562 -93.035156 73.15625 -91.578125 C 78.90625 -87.753906 81.78125 -84.050781 81.78125 -80.46875 C 82.15625 -80.46875 82.441406 -77.691406 82.640625 -72.140625 C 82.640625 -66.179688 80.832031 -59.257812 77.21875 -51.375 L 77.46875 -51.125 C 78.988281 -50.101562 79.75 -48.238281 79.75 -45.53125 C 79.75 -43.539062 79.09375 -41.054688 77.78125 -38.078125 C 80.445312 -34.691406 81.78125 -30.171875 81.78125 -24.515625 L 81.484375 -24.515625 L 81.78125 -24.21875 L 81.78125 -20.359375 L 81.484375 -20.046875 L 81.78125 -19.796875 C 81.78125 -14.722656 79.476562 -11.117188 74.875 -8.984375 C 72.4375 -8.066406 69.289062 -7.425781 65.4375 -7.0625 L 65.125 -7.0625 C 63.332031 -7.0625 61.421875 -7.601562 59.390625 -8.6875 C 54.785156 -5.738281 46.273438 -2.875 33.859375 -0.09375 C 31.179688 0.613281 28.691406 1.066406 26.390625 1.265625 L 26.390625 0.96875 L 26.09375 1.265625 C 20.300781 1.265625 14.566406 -1.035156 8.890625 -5.640625 C 5.835938 -9.429688 4.3125 -13.132812 4.3125 -16.75 C 4.882812 -23.382812 5.75 -27.71875 6.90625 -29.75 C 4.601562 -32.082031 3.453125 -34.03125 3.453125 -35.59375 L 3.453125 -37.828125 C 3.453125 -39.210938 4.113281 -41.613281 5.4375 -45.03125 L 5.4375 -45.28125 C 1.539062 -48.875 -0.84375 -52.5625 -1.71875 -56.34375 C -2.164062 -56.34375 -2.742188 -58.9375 -3.453125 -64.125 C -2.234375 -73.1875 -1 -77.71875 0.25 -77.71875 C 2.382812 -81.34375 5.160156 -84.578125 8.578125 -87.421875 C 16.429688 -92.390625 22.472656 -94.875 26.703125 -94.875 Z M 3.703125 -64.125 L 4.015625 -63.859375 L 4.015625 -63.5625 L 3.703125 -63.3125 C 3.703125 -57.113281 6.003906 -52.390625 10.609375 -49.140625 C 12.804688 -49.140625 14.054688 -48.597656 14.359375 -47.515625 C 16.054688 -47.003906 16.90625 -46.34375 16.90625 -45.53125 L 18.375 -44.171875 L 18.375 -42.484375 C 16.238281 -40.054688 15.171875 -37.195312 15.171875 -33.90625 C 13.285156 -27.851562 11.867188 -24.164062 10.921875 -22.84375 C 10.921875 -21.726562 10.71875 -20.984375 10.3125 -20.609375 L 10.3125 -17.5625 C 10.3125 -12.113281 13.375 -8.140625 19.5 -5.640625 L 25.53125 -4.5625 C 36.257812 -4.5625 47.9375 -8.8125 60.5625 -17.3125 C 65.132812 -21.164062 67.421875 -25.226562 67.421875 -29.5 L 67.71875 -31.984375 L 66 -42.796875 C 67.71875 -48.453125 70.019531 -54.816406 72.90625 -61.890625 C 75.207031 -68.753906 76.359375 -72.644531 76.359375 -73.5625 L 76.359375 -75.484375 C 76.359375 -82.597656 72.800781 -87.117188 65.6875 -89.046875 L 63.40625 -89.34375 C 58.019531 -89.34375 53.4375 -87.6875 49.65625 -84.375 L 49.65625 -84.0625 C 51.175781 -78.070312 51.9375 -74.097656 51.9375 -72.140625 L 51.9375 -66.90625 C 50.613281 -58.820312 48.226562 -50.410156 44.78125 -41.671875 L 41.328125 -34.21875 L 42.484375 -34.21875 L 46.5 -35.28125 L 46.75 -35.03125 L 47.0625 -35.03125 L 47.921875 -35.28125 C 48.765625 -35.28125 49.710938 -34.738281 50.765625 -33.65625 L 50.765625 -32.234375 C 50.765625 -31.085938 46.851562 -29.882812 39.03125 -28.625 L 35.03125 -27.265625 L 33.859375 -27.265625 C 32.710938 -27.265625 31.953125 -27.820312 31.578125 -28.9375 C 31.578125 -29.582031 32.914062 -32.253906 35.59375 -36.953125 C 41.71875 -47.617188 44.78125 -56.960938 44.78125 -64.984375 C 44.78125 -77.941406 41.71875 -85.773438 35.59375 -88.484375 C 35.25 -88.992188 33.421875 -89.550781 30.109375 -90.15625 L 26.953125 -90.15625 C 23.097656 -90.15625 17.9375 -87.851562 11.46875 -83.25 C 6.289062 -75.5 3.703125 -69.125 3.703125 -64.125 Z M 15.78125 -84.375 L 17.203125 -84.375 C 19.710938 -82.945312 20.96875 -81.554688 20.96875 -80.203125 L 20.109375 -79.34375 C 17.191406 -79.34375 15.363281 -80.359375 14.625 -82.390625 C 14.894531 -83.710938 15.28125 -84.375 15.78125 -84.375 Z M 12.34375 -81.328125 C 14.8125 -80.578125 16.046875 -79.832031 16.046875 -79.09375 L 16.046875 -77.71875 C 11.066406 -73.5625 8.578125 -68.382812 8.578125 -62.1875 L 8.578125 -61.890625 L 7.71875 -61.078125 L 6.296875 -61.078125 C 5.859375 -61.078125 5.484375 -62.09375 5.171875 -64.125 C 5.578125 -69.195312 6.425781 -73.171875 7.71875 -76.046875 C 9.675781 -79.398438 11.21875 -81.160156 12.34375 -81.328125 Z M 12.34375 -81.328125 "/></g></g></g><g fill="#ffffff" fill-opacity="1"><g transform="translate(626.381587, 151.684093)"><g><path d="M 49.5625 -89.078125 C 62.425781 -89.078125 70.742188 -84.285156 74.515625 -74.703125 C 75.179688 -72.378906 75.628906 -68.976562 75.859375 -64.5 C 75.859375 -59.144531 74.195312 -53.71875 70.875 -48.21875 L 70.875 -47.984375 C 73.300781 -46.265625 74.515625 -44.414062 74.515625 -42.4375 C 74.515625 -40.289062 73.078125 -38.273438 70.203125 -36.390625 C 71.765625 -33.679688 72.546875 -29.898438 72.546875 -25.046875 L 72.84375 -24.234375 C 72.84375 -12.160156 67.523438 -4.53125 56.890625 -1.34375 C 53.253906 -0.0625 46.039062 1.132812 35.25 2.25 C 19.03125 2.25 7.710938 -1.34375 1.296875 -8.53125 C -0.910156 -12.769531 -2.015625 -16.628906 -2.015625 -20.109375 C -2.015625 -25.828125 -0.128906 -30.503906 3.640625 -34.140625 L 3.640625 -35 C 1.878906 -37.144531 1 -40.644531 1 -45.5 L 1 -46.59375 L 1.296875 -47.703125 L 1 -48.796875 L 1 -50.71875 C 1 -53.050781 2.210938 -56.640625 4.640625 -61.484375 L 4.3125 -61.484375 C 2.519531 -62.546875 1.625 -63.550781 1.625 -64.5 L 1.625 -66.1875 C 1.625 -68.132812 3.734375 -70.800781 7.953125 -74.1875 C 7.304688 -75.363281 6.984375 -76.460938 6.984375 -77.484375 C 6.984375 -80.515625 10.304688 -83.644531 16.953125 -86.875 C 18.960938 -87.601562 21.628906 -88.144531 24.953125 -88.5 C 27.566406 -88.5 30.773438 -87.6875 34.578125 -86.0625 C 41.628906 -88.070312 46.625 -89.078125 49.5625 -89.078125 Z M 7.328125 -47.703125 L 7.328125 -44.390625 C 7.328125 -38.578125 10.3125 -34.523438 16.28125 -32.234375 L 19.96875 -31.703125 C 23.539062 -31.703125 27.421875 -32.976562 31.609375 -35.53125 L 33.28125 -35.53125 C 34.5 -35.53125 35.378906 -34.988281 35.921875 -33.90625 L 35.921875 -32.796875 C 32.753906 -27.085938 30.976562 -23.5 30.59375 -22.03125 C 28.84375 -21.289062 27.410156 -20.921875 26.296875 -20.921875 C 26.296875 -21.210938 25.625 -21.582031 24.28125 -22.03125 L 24.28125 -23.125 C 24.28125 -24.050781 24.953125 -25.8125 26.296875 -28.40625 L 25.953125 -28.40625 C 23.523438 -27.820312 21.195312 -27.53125 18.96875 -27.53125 C 15.738281 -27.53125 12.066406 -28.550781 7.953125 -30.59375 L 7.65625 -30.59375 C 5.644531 -28.101562 4.640625 -25.34375 4.640625 -22.3125 L 4.640625 -20.921875 C 4.640625 -13.648438 6.972656 -9.054688 11.640625 -7.140625 C 16.804688 -3.816406 24.785156 -2.15625 35.578125 -2.15625 C 39.828125 -2.15625 46.148438 -3.175781 54.546875 -5.21875 C 62.304688 -7.9375 66.1875 -13.269531 66.1875 -21.21875 C 66.1875 -30.15625 64.75 -35.660156 61.875 -37.734375 C 61.875 -38.148438 61.203125 -38.882812 59.859375 -39.9375 C 54.691406 -38.113281 50.269531 -37.203125 46.59375 -37.203125 L 46.265625 -37.203125 C 40.898438 -37.203125 36.015625 -38.671875 31.609375 -41.609375 C 27.390625 -45.566406 25.28125 -49.335938 25.28125 -52.921875 C 25.28125 -60.097656 29.382812 -65.253906 37.59375 -68.390625 L 39.609375 -68.671875 C 42.484375 -68.546875 43.921875 -68.082031 43.921875 -67.28125 L 43.921875 -67 C 43.410156 -66.289062 41.300781 -65.1875 37.59375 -63.6875 C 33.601562 -60.207031 31.609375 -56.710938 31.609375 -53.203125 C 31.609375 -49.117188 34.273438 -45.71875 39.609375 -43 C 41.972656 -42.070312 44.734375 -41.609375 47.890625 -41.609375 L 48.890625 -41.609375 C 57.765625 -43.554688 62.203125 -45.488281 62.203125 -47.40625 C 66.640625 -51.84375 68.859375 -57.175781 68.859375 -63.40625 L 68.859375 -65.078125 L 69.203125 -65.375 L 68.859375 -65.609375 L 68.859375 -65.890625 L 69.203125 -68.09375 C 68.523438 -72.757812 67.3125 -76.351562 65.5625 -78.875 C 61.570312 -83.09375 56.796875 -85.203125 51.234375 -85.203125 L 47.890625 -85.203125 C 40.765625 -84.460938 32.445312 -80.691406 22.9375 -73.890625 C 12.53125 -65.140625 7.328125 -56.410156 7.328125 -47.703125 Z M 60.203125 -27.25 C 60.203125 -26.894531 60.535156 -26.71875 61.203125 -26.71875 L 61.53125 -26.4375 L 61.53125 -26.140625 C 61.125 -24.515625 60.25 -23.703125 58.90625 -23.703125 L 59.234375 -23.421875 L 59.234375 -23.125 L 61.203125 -23.703125 C 61.867188 -23.035156 62.203125 -22.378906 62.203125 -21.734375 L 62.203125 -21.453125 C 62.203125 -14.816406 58.660156 -9.582031 51.578125 -5.75 C 51.578125 -5.394531 51.019531 -5.21875 49.90625 -5.21875 C 48.5625 -5.632812 47.890625 -6.003906 47.890625 -6.328125 L 47.890625 -6.84375 C 51.753906 -9.65625 54.53125 -13.054688 56.21875 -17.046875 L 56.5625 -18.4375 L 56.21875 -22.03125 C 56.726562 -22.03125 57.066406 -22.492188 57.234375 -23.421875 L 56.890625 -23.421875 C 55.867188 -23.765625 55.3125 -24.128906 55.21875 -24.515625 L 55.21875 -25.046875 C 56.332031 -26.515625 57.992188 -27.25 60.203125 -27.25 Z M 60.203125 -27.25 "/></g></g></g><g fill="#ffffff" fill-opacity="1"><g transform="translate(713.44679, 156.378735)"><g><path d="M 33.578125 -88.453125 C 33.578125 -88.066406 33.894531 -87.875 34.53125 -87.875 L 46.984375 -88.453125 C 55.734375 -88.453125 63.828125 -84.332031 71.265625 -76.09375 C 72.085938 -75.132812 72.914062 -74.65625 73.75 -74.65625 C 74.582031 -74.65625 76.128906 -70.347656 78.390625 -61.734375 L 78.109375 -61.4375 L 78.390625 -58.46875 L 78.390625 -57.90625 C 78.390625 -48.257812 77.257812 -40.816406 75 -35.578125 C 75 -34.648438 74.789062 -33.960938 74.375 -33.515625 L 74.375 -32.953125 C 75.613281 -30.296875 76.234375 -27.644531 76.234375 -25 L 75.90625 -22.9375 C 76.957031 -20.476562 77.484375 -18.816406 77.484375 -17.953125 L 77.484375 -17.390625 C 77.484375 -15.242188 76.128906 -13.582031 73.421875 -12.40625 L 73.421875 -11.78125 C 74.054688 -11.082031 74.675781 -9.613281 75.28125 -7.375 L 75 -7.09375 L 75 -6.796875 L 75.28125 -5.65625 C 73.84375 -2.488281 70.9375 -0.90625 66.5625 -0.90625 L 65.03125 -0.90625 C 64.070312 -0.90625 61.675781 -1.703125 57.84375 -3.296875 C 54.175781 -0.941406 49.195312 0.617188 42.90625 1.390625 C 42.90625 1.773438 40.832031 2.078125 36.6875 2.296875 C 32.25 2.296875 28.925781 1.894531 26.71875 1.09375 L 26.4375 1.390625 L 17.71875 -2.96875 C 17.65625 -3.320312 16.828125 -3.910156 15.234375 -4.734375 L 12.40625 -3.875 C 8.726562 -4.644531 6.347656 -5.425781 5.265625 -6.21875 C 2.359375 -8.550781 0.90625 -11.09375 0.90625 -13.84375 L 0.90625 -15.328125 C 1.582031 -18.648438 2.207031 -20.3125 2.78125 -20.3125 C -0.664062 -27.550781 -2.535156 -34.601562 -2.828125 -41.46875 L -2.53125 -41.765625 L -2.53125 -42.046875 L -2.828125 -46.453125 C -2.703125 -48.210938 -2.492188 -49.09375 -2.203125 -49.09375 L -2.53125 -49.375 L -2.53125 -49.65625 C -2.125 -50.363281 -1.804688 -51.738281 -1.578125 -53.78125 C -4.710938 -55.882812 -6.28125 -60.097656 -6.28125 -66.421875 C -6.28125 -69.265625 -4.296875 -72.203125 -0.328125 -75.234375 L 4.9375 -77.296875 C 6.625 -84.160156 10.054688 -87.59375 15.234375 -87.59375 L 15.515625 -87.59375 C 18.390625 -87.59375 20.460938 -86.316406 21.734375 -83.765625 C 27.296875 -86.890625 31.242188 -88.453125 33.578125 -88.453125 Z M 1.203125 -87.25 C 4.328125 -87.25 5.890625 -85.988281 5.890625 -83.46875 L 5.5625 -83.46875 L 5.890625 -82.5625 C 5.890625 -80.644531 5.0625 -79.175781 3.40625 -78.15625 L 0.90625 -78.15625 C -1.800781 -78.664062 -3.15625 -79.75 -3.15625 -81.40625 L -3.15625 -82.28125 C -2.488281 -85.40625 -1.453125 -86.96875 -0.046875 -86.96875 Z M 5.5625 -49.09375 L 5.5625 -44.390625 C 5.96875 -40.367188 6.796875 -35.960938 8.046875 -31.171875 C 8.328125 -28.523438 9.363281 -26.179688 11.15625 -24.140625 C 11.601562 -24.109375 12.640625 -21.953125 14.265625 -17.671875 L 17.390625 -13.546875 L 18.96875 -10.625 C 24.613281 -7.6875 29.59375 -6.21875 33.90625 -6.21875 L 34.8125 -6.21875 C 40.84375 -6.21875 48.519531 -8.28125 57.84375 -12.40625 C 62.28125 -14.695312 65.1875 -17.921875 66.5625 -22.078125 L 67.53125 -26.765625 L 67.53125 -28.546875 L 67.1875 -28.546875 C 65.6875 -27.742188 63.195312 -27.34375 59.71875 -27.34375 L 59.4375 -27.34375 C 56.113281 -27.34375 51.019531 -29.210938 44.15625 -32.953125 L 40.125 -36.15625 L 39.515625 -26.484375 C 38.960938 -25.304688 38.226562 -24.71875 37.3125 -24.71875 L 36.0625 -25.28125 L 35.78125 -25 L 35.4375 -25 C 33.582031 -25 32.65625 -27.054688 32.65625 -31.171875 C 32.65625 -36.316406 32.128906 -41.8125 31.078125 -47.65625 L 31.421875 -47.65625 L 31.078125 -47.9375 L 31.078125 -48.21875 C 31.078125 -49.71875 32.226562 -50.597656 34.53125 -50.859375 L 34.8125 -50.578125 L 35.15625 -50.578125 L 37.640625 -51.140625 C 40.546875 -48.617188 42 -46.175781 42 -43.8125 C 47.101562 -37.332031 51.460938 -34.09375 55.078125 -34.09375 C 61.804688 -34.894531 65.75 -36.957031 66.90625 -40.28125 C 68.976562 -45.382812 70.015625 -51.65625 70.015625 -59.09375 L 70.015625 -61.15625 C 70.015625 -66.488281 68.144531 -70.207031 64.40625 -72.3125 C 59.425781 -77.039062 54.128906 -79.882812 48.515625 -80.84375 L 42.28125 -81.703125 C 37.976562 -81.703125 32.171875 -79.640625 24.859375 -75.515625 C 14.578125 -65.648438 9.289062 -59.585938 9 -57.328125 C 6.707031 -53.335938 5.5625 -50.59375 5.5625 -49.09375 Z M 51.625 -68.765625 L 54.109375 -65.5625 C 55.453125 -66.519531 56.601562 -67 57.5625 -67 L 58.8125 -65.84375 L 58.8125 -64.9375 L 56.609375 -59.953125 L 60.96875 -50.859375 C 60.96875 -50.222656 60.132812 -49.441406 58.46875 -48.515625 C 56.425781 -48.515625 54.972656 -49.789062 54.109375 -52.34375 L 53.828125 -52.34375 C 53.160156 -49.59375 52.007812 -48.21875 50.375 -48.21875 C 49.519531 -48.476562 48.898438 -48.957031 48.515625 -49.65625 C 48.515625 -50.875 49.132812 -53.71875 50.375 -58.1875 C 48.113281 -62.6875 46.660156 -65.238281 46.015625 -65.84375 L 46.015625 -66.421875 C 47.554688 -67.984375 49.425781 -68.765625 51.625 -68.765625 Z M 10.875 -35.875 L 11.78125 -35.875 C 12.320312 -35.289062 13.148438 -35 14.265625 -35 C 18.390625 -26.570312 21.296875 -22.070312 22.984375 -21.5 C 24.773438 -18.757812 27.171875 -16.894531 30.171875 -15.90625 C 30.585938 -15.90625 30.796875 -15.613281 30.796875 -15.03125 L 31.421875 -15.03125 C 31.515625 -15.800781 31.816406 -16.1875 32.328125 -16.1875 L 33.578125 -16.1875 L 35.15625 -14.75 C 34.414062 -11.394531 33.679688 -9.71875 32.953125 -9.71875 L 31.078125 -9.71875 C 30.597656 -9.71875 30.296875 -10.40625 30.171875 -11.78125 L 30.453125 -12.109375 L 30.171875 -12.109375 C 29.023438 -11.117188 27.78125 -10.625 26.4375 -10.625 C 20.5 -14.6875 16.648438 -18.789062 14.890625 -22.9375 C 12.972656 -26.195312 11.519531 -30.125 10.53125 -34.71875 Z M 30.453125 -14.75 L 30.453125 -13.265625 L 30.796875 -13.265625 L 31.078125 -14.75 Z M 30.453125 -14.75 "/></g></g></g><g fill="#ffffff" fill-opacity="1"><g transform="translate(800.076635, 157.653985)"><g><path d="M 27.578125 -89.078125 C 33.710938 -88.023438 37.894531 -86.378906 40.125 -84.140625 C 42.90625 -81.359375 45.144531 -78.085938 46.84375 -74.328125 C 48.59375 -74.328125 50.125 -73.015625 51.4375 -70.390625 C 52.613281 -73.460938 54.445312 -75 56.9375 -75 C 59.75 -75 61.796875 -73.144531 63.078125 -69.4375 C 63.078125 -67.457031 60.9375 -65.71875 56.65625 -64.21875 C 54.894531 -64.21875 53.265625 -64.757812 51.765625 -65.84375 L 51.4375 -61.921875 C 55.164062 -61.921875 58.34375 -59.734375 60.96875 -55.359375 C 60.96875 -52.421875 62.082031 -50.234375 64.3125 -48.796875 C 70.03125 -41.929688 72.890625 -35.5 72.890625 -29.5 C 72.890625 -17.65625 69.21875 -8.828125 61.875 -3.015625 C 61.132812 -3.015625 58.976562 -2.140625 55.40625 -0.390625 C 53.175781 0.410156 49.710938 1.179688 45.015625 1.921875 L 45.015625 1.578125 L 44.734375 1.921875 L 26.34375 0.234375 L 25.09375 0.578125 L 23.5625 0.234375 L 22.03125 0.578125 L 17.484375 0.234375 L 17.140625 0.234375 L 11.015625 1.25 C 3.671875 1.25 0 -3.21875 0 -12.15625 C 0 -17.300781 1.53125 -24.164062 4.59375 -32.75 C 2.550781 -33.519531 1.53125 -34.832031 1.53125 -36.6875 L 1.53125 -37.6875 C 1.53125 -40.945312 2.757812 -44.332031 5.21875 -47.84375 C 4.769531 -47.84375 4.257812 -52.742188 3.6875 -62.546875 C 3.6875 -64.078125 4.195312 -66.691406 5.21875 -70.390625 L 4.890625 -72.359375 C 5.585938 -75.773438 8.046875 -79.703125 12.265625 -84.140625 C 15.097656 -86.347656 18.160156 -87.453125 21.453125 -87.453125 C 21.453125 -87.929688 23.492188 -88.472656 27.578125 -89.078125 Z M 15.953125 -78.59375 L 15.609375 -78.921875 C 14.773438 -78.921875 12.84375 -75.757812 9.8125 -69.4375 L 8.578125 -64.5 L 11.921875 -43.921875 L 12.265625 -40.953125 L 11.921875 -39.984375 L 12.265625 -39.65625 C 11.847656 -36.363281 9.800781 -27.421875 6.125 -12.828125 L 6.125 -11.828125 C 6.125 -7.035156 8.054688 -4.640625 11.921875 -4.640625 L 11.921875 -4.3125 C 15.179688 -5.175781 20.195312 -5.832031 26.96875 -6.28125 L 45.296875 -3.96875 C 52.546875 -5.21875 58.164062 -7.40625 62.15625 -10.53125 C 65.03125 -14.207031 66.46875 -17.59375 66.46875 -20.6875 L 66.765625 -20.96875 L 66.46875 -21.3125 L 66.765625 -22.9375 L 66.765625 -24.28125 C 66.765625 -33.632812 64.207031 -39.734375 59.09375 -42.578125 C 54.207031 -46.722656 49.929688 -48.796875 46.265625 -48.796875 C 39.460938 -48.796875 34.65625 -45.207031 31.84375 -38.03125 L 31.5625 -36.390625 L 31.5625 -34.09375 C 31.5625 -30.84375 32.882812 -27.347656 35.53125 -23.609375 C 35.53125 -23.035156 36.550781 -22.269531 38.59375 -21.3125 L 38.890625 -20.96875 L 38.890625 -20.6875 C 38.472656 -18.925781 37.753906 -18.046875 36.734375 -18.046875 C 34.492188 -18.335938 31.84375 -20.082031 28.78125 -23.28125 L 27.25 -26.25 L 26.34375 -38.359375 C 26.34375 -41.679688 28.382812 -45.273438 32.46875 -49.140625 C 37.769531 -52.421875 40.421875 -54.609375 40.421875 -55.703125 C 41.242188 -57.265625 41.65625 -59.878906 41.65625 -63.546875 L 41.65625 -68.140625 C 41.65625 -71.785156 39.820312 -75.8125 36.15625 -80.21875 C 34.875 -81.332031 33.644531 -81.890625 32.46875 -81.890625 L 30.59375 -81.890625 L 29.40625 -82.84375 L 24.515625 -82.84375 C 21.835938 -82.84375 18.984375 -81.425781 15.953125 -78.59375 Z M 63.40625 -63.890625 C 64.6875 -63.890625 65.597656 -63.34375 66.140625 -62.25 L 66.140625 -60.578125 C 66.140625 -58.859375 65.117188 -58 63.078125 -58 C 61.703125 -58 60.675781 -58.539062 60 -59.625 C 60 -61.664062 61.132812 -63.085938 63.40625 -63.890625 Z M 56.359375 -42.578125 L 57.28125 -42.578125 C 58.070312 -42.222656 58.46875 -41.472656 58.46875 -40.328125 C 58.46875 -38.859375 57.351562 -37.867188 55.125 -37.359375 L 54.5 -37.359375 L 53.921875 -38.03125 L 53.921875 -39.984375 C 54.429688 -41.140625 55.242188 -42.003906 56.359375 -42.578125 Z M 58.46875 -39.65625 L 59.09375 -39.65625 L 59.4375 -39.3125 C 60.875 -38.582031 61.988281 -37.273438 62.78125 -35.390625 C 63.800781 -32.191406 64.3125 -28.375 64.3125 -23.9375 C 63.550781 -17.625 62.113281 -14.46875 60 -14.46875 L 58.46875 -14.46875 L 58.46875 -15.421875 C 59.90625 -18.929688 60.625 -21.550781 60.625 -23.28125 C 60.46875 -27.332031 59.238281 -31.367188 56.9375 -35.390625 L 56.65625 -35.390625 Z M 58.46875 -39.65625 "/></g></g></g><g fill="#ffffff" fill-opacity="1"><g transform="translate(883.351195, 145.442762)"><g><path d="M 23.9375 -89.125 L 24.140625 -88.984375 L 24.328125 -88.984375 L 26.046875 -89.125 L 26.625 -89.125 L 26.8125 -88.984375 L 27.015625 -89.125 L 27.390625 -89.125 L 27.578125 -88.984375 L 28.15625 -89.125 L 28.34375 -88.984375 L 28.546875 -88.984375 L 28.734375 -89.125 L 28.921875 -89.125 L 30.65625 -88.78125 L 30.84375 -88.984375 C 33.394531 -88.816406 34.671875 -88.640625 34.671875 -88.453125 L 34.859375 -88.640625 C 41.597656 -87.773438 45.878906 -86.929688 47.703125 -86.109375 C 55.109375 -83.773438 58.8125 -78.695312 58.8125 -70.875 L 58.8125 -68.1875 C 57.6875 -62.25 56.535156 -58.5 55.359375 -56.9375 C 55.003906 -56.75 54.175781 -55.410156 52.875 -52.921875 C 53.726562 -52.921875 55.003906 -50.570312 56.703125 -45.875 L 56.890625 -44.734375 C 56.890625 -41.316406 56.0625 -38.347656 54.40625 -35.828125 L 54.40625 -35.671875 C 56.957031 -34.203125 58.234375 -32.800781 58.234375 -31.46875 C 58.484375 -31.46875 58.609375 -30.632812 58.609375 -28.96875 L 58.609375 -27.96875 L 58.8125 -27.296875 L 57.65625 -22.40625 L 57.84375 -21.59375 L 57.65625 -21.40625 L 57.65625 -21.265625 L 57.84375 -20.734375 C 57.84375 -20.410156 57.65625 -20.25 57.28125 -20.25 L 57.28125 -19.390625 L 57.46875 -19.59375 L 57.84375 -19.59375 L 57.84375 -19.0625 L 58.046875 -18.390625 L 57.84375 -17.71875 C 58.351562 -17.71875 58.609375 -17.609375 58.609375 -17.390625 L 58.421875 -17.234375 L 58.421875 -17.046875 L 57.84375 -17.234375 L 57.65625 -17.234375 L 57.65625 -17.046875 C 58.164062 -17.046875 58.421875 -16.820312 58.421875 -16.375 L 59 -16.375 C 58.875 -15.613281 58.679688 -15.234375 58.421875 -15.234375 L 58.609375 -15.03125 L 58.609375 -14.890625 C 58.609375 -14.671875 58.421875 -14.5625 58.046875 -14.5625 L 58.234375 -13.703125 C 57.335938 -13.347656 56.890625 -12.898438 56.890625 -12.359375 L 57.078125 -12.21875 L 57.078125 -12.015625 C 57.078125 -11.054688 56.441406 -10.113281 55.171875 -9.1875 C 54.273438 -7.625 51.910156 -5.660156 48.078125 -3.296875 C 43.191406 -0.972656 39.804688 0.1875 37.921875 0.1875 C 34.953125 0.726562 31.25 1.222656 26.8125 1.671875 L 26.625 1.53125 L 26.4375 1.53125 L 24.328125 1.875 L 24.328125 1.671875 C 23.753906 1.929688 22.925781 2.0625 21.84375 2.0625 L 21.078125 2.0625 C 16.347656 2.0625 12.453125 0.988281 9.390625 -1.15625 C 6.515625 -2.394531 4.660156 -3.84375 3.828125 -5.5 C 2.679688 -7.957031 2.109375 -9.859375 2.109375 -11.203125 L 2.484375 -12.359375 L 2.296875 -13.03125 L 3.828125 -19.734375 L 3.828125 -20.921875 L 4.015625 -21.078125 C 3.441406 -24.359375 2.359375 -26.925781 0.765625 -28.78125 C -0.316406 -30.3125 -1.46875 -32.992188 -2.6875 -36.828125 L -2.484375 -36.828125 L -2.6875 -37.015625 L -2.6875 -38.6875 C -2.6875 -40 -2.046875 -41.675781 -0.765625 -43.71875 C 0.546875 -46.625 1.375 -48.191406 1.71875 -48.421875 L 1.921875 -48.5625 L 1.921875 -48.75 C -0.640625 -50.820312 -1.921875 -53.28125 -1.921875 -56.125 L -2.484375 -59.28125 L -2.296875 -59.484375 L -2.484375 -60.296875 L -2.484375 -61.96875 C -2.234375 -64.96875 -1.722656 -67.378906 -0.953125 -69.203125 L 0.390625 -71.875 C -1.273438 -73.601562 -2.109375 -75.394531 -2.109375 -77.25 L -2.109375 -77.921875 C -1.628906 -80.242188 -0.351562 -82.410156 1.71875 -84.421875 C 3.988281 -86.210938 6.671875 -87.109375 9.765625 -87.109375 C 11.804688 -86.828125 12.828125 -86.378906 12.828125 -85.765625 L 13.40625 -85.765625 C 16.914062 -87.773438 19.984375 -88.78125 22.609375 -88.78125 Z M 4.59375 -69.53125 L 4.78125 -69.34375 L 4.78125 -69.203125 L 4.015625 -66.859375 L 4.21875 -66.328125 C 3.832031 -66.328125 3.640625 -65.320312 3.640625 -63.3125 L 3.453125 -63.3125 L 3.640625 -63.171875 L 2.875 -60.296875 L 2.875 -59.484375 C 2.9375 -57.628906 4.210938 -54.660156 6.703125 -50.578125 C 8.742188 -48.691406 11.363281 -47.75 14.5625 -47.75 L 15.140625 -47.75 L 18.765625 -47.890625 L 19.34375 -47.75 L 19.921875 -47.890625 L 20.109375 -47.75 L 21.078125 -47.890625 L 22.03125 -47.890625 C 34.644531 -47.890625 42.5625 -49.789062 45.78125 -53.59375 C 49.351562 -55.945312 51.140625 -57.796875 51.140625 -59.140625 C 52.421875 -61.472656 53.0625 -62.972656 53.0625 -63.640625 L 53.0625 -67.1875 C 53.0625 -70.539062 52.039062 -73.609375 50 -76.390625 C 47 -78.847656 44.0625 -80.8125 41.1875 -82.28125 L 41.1875 -82.609375 L 41.5625 -82.609375 L 46.171875 -80.265625 L 46.171875 -80.59375 C 42.816406 -82.707031 40.003906 -83.828125 37.734375 -83.953125 L 37.15625 -83.765625 L 35.625 -84.09375 L 29.3125 -84.09375 C 22.539062 -83.644531 18.257812 -82.972656 16.46875 -82.078125 C 13.375 -80.578125 11.648438 -79.632812 11.296875 -79.25 C 9.960938 -78.101562 8.367188 -75.757812 6.515625 -72.21875 Z M 13.984375 -76.046875 L 14.75 -75.046875 L 14.75 -74.375 C 13.757812 -73.570312 13.1875 -72.40625 13.03125 -70.875 L 12.265625 -70.015625 L 12.453125 -69.53125 C 10.503906 -67.78125 9.484375 -66.101562 9.390625 -64.5 L 9.578125 -64.3125 L 9.390625 -63.5 L 9.390625 -62.640625 L 9.578125 -61.96875 L 9.390625 -61.296875 L 9.390625 -61.15625 C 9.773438 -61.15625 9.96875 -61.039062 9.96875 -60.8125 L 9.96875 -60.484375 L 9.578125 -60.484375 L 9.578125 -60.15625 C 10.085938 -60.082031 10.34375 -59.90625 10.34375 -59.625 L 9.765625 -59.140625 L 11.875 -56.125 C 11.332031 -55.257812 10.695312 -54.75 9.96875 -54.59375 L 9.390625 -53.921875 L 9.578125 -53.78125 L 10.15625 -53.59375 L 10.15625 -53.4375 L 12.0625 -54.453125 L 12.453125 -54.453125 C 13.148438 -54.453125 13.722656 -54.003906 14.171875 -53.109375 C 14.171875 -51.992188 13.34375 -50.8125 11.6875 -49.5625 C 9.257812 -49.820312 8.046875 -50.332031 8.046875 -51.09375 C 8.140625 -51.601562 8.585938 -52.210938 9.390625 -52.921875 C 9.390625 -53.203125 8.554688 -53.488281 6.890625 -53.78125 L 6.328125 -53.59375 L 6.328125 -53.78125 C 5.554688 -55.15625 4.785156 -58.109375 4.015625 -62.640625 C 4.015625 -65.035156 5.804688 -68.453125 9.390625 -72.890625 C 11.367188 -74.992188 12.898438 -76.046875 13.984375 -76.046875 Z M 33.90625 -69.34375 L 33.90625 -68.859375 L 33.515625 -68.859375 L 33.140625 -69.203125 L 33.328125 -69.34375 Z M 29.890625 -43.859375 L 29.6875 -44.0625 L 29.5 -44.0625 L 21.84375 -42.859375 L 21.265625 -43.046875 L 19.53125 -42.859375 L 18.578125 -42.859375 L 18.390625 -43.046875 L 18.203125 -42.859375 L 15.328125 -43.046875 L 14.5625 -43.046875 L 13.796875 -43.203125 L 13.59375 -43.046875 L 13.40625 -43.046875 C 10.46875 -43.398438 8.234375 -44.007812 6.703125 -44.875 L 6.125 -45.40625 L 5.9375 -45.40625 C 5.9375 -45.113281 5.171875 -44.265625 3.640625 -42.859375 C 3.378906 -40.554688 3.125 -39.28125 2.875 -39.03125 L 3.0625 -38.84375 L 2.875 -37.6875 L 2.875 -36.34375 L 2.6875 -36.15625 L 2.6875 -36.015625 C 2.9375 -36.015625 3.191406 -35.117188 3.453125 -33.328125 C 3.828125 -32.398438 6.0625 -29.832031 10.15625 -25.625 C 10.914062 -24.0625 11.296875 -22.765625 11.296875 -21.734375 L 11.296875 -21.59375 C 11.296875 -20.601562 10.914062 -19.3125 10.15625 -17.71875 L 10.34375 -17.578125 L 10.34375 -17.390625 C 8.8125 -14.003906 8.046875 -11.429688 8.046875 -9.671875 C 8.046875 -7.691406 8.617188 -6.414062 9.765625 -5.84375 C 14.492188 -4.5 19.921875 -3.828125 26.046875 -3.828125 L 27.390625 -3.828125 L 28.15625 -3.640625 L 28.34375 -3.828125 L 28.546875 -3.828125 L 28.734375 -3.640625 L 30.265625 -3.96875 L 30.453125 -3.828125 L 30.65625 -3.828125 L 39.84375 -5.171875 C 39.84375 -5.359375 40.863281 -5.742188 42.90625 -6.328125 C 47.882812 -8.460938 50.953125 -10.867188 52.109375 -13.546875 L 52.109375 -13.703125 L 51.90625 -14.5625 L 52.296875 -14.890625 L 52.296875 -15.5625 C 48.753906 -20.289062 46.710938 -25.367188 46.171875 -30.796875 C 46.929688 -33.347656 48.015625 -35.914062 49.421875 -38.5 L 50.765625 -44.390625 C 50.765625 -46.054688 50.378906 -47.734375 49.609375 -49.421875 L 49.234375 -49.421875 C 46.546875 -47.628906 44.691406 -46.734375 43.671875 -46.734375 C 43.671875 -46.253906 39.078125 -45.296875 29.890625 -43.859375 Z M 57.28125 -15.375 L 57.078125 -14.03125 L 57.078125 -13.890625 L 57.28125 -13.890625 C 57.375 -14.554688 57.5 -14.890625 57.65625 -14.890625 L 57.46875 -15.375 Z M 57.28125 -15.375 "/></g></g></g><g fill="#ffffff" fill-opacity="1"><g transform="translate(949.065668, 156.378735)"><g><path d="M 32.234375 -89.171875 L 32.421875 -89.171875 C 38.617188 -89.171875 42.992188 -88.5625 45.546875 -87.34375 L 53.6875 -86.15625 C 59.945312 -84.050781 64.523438 -80.472656 67.421875 -75.421875 C 68.734375 -73.671875 69.867188 -71.164062 70.828125 -67.90625 C 74.660156 -59.601562 76.578125 -53.570312 76.578125 -49.8125 C 76.859375 -49.226562 77.320312 -45.9375 77.96875 -39.9375 L 77.765625 -38.9375 L 77.765625 -37.59375 L 77.96875 -36.734375 L 76.578125 -27.0625 C 76.421875 -26.257812 76.226562 -25.859375 76 -25.859375 L 76.1875 -25.71875 L 76.1875 -25.53125 L 75.8125 -24.046875 L 75.8125 -23.84375 C 77.789062 -21.96875 78.78125 -20.359375 78.78125 -19.015625 L 78.78125 -18.828125 L 78.59375 -18.671875 L 78.78125 -18.484375 C 78.78125 -12.359375 75.601562 -9.296875 69.25 -9.296875 L 69.015625 -9.296875 L 66.046875 -9.765625 C 62.785156 -6.960938 59.523438 -5.175781 56.265625 -4.40625 C 50.617188 -1.789062 45.59375 -0.335938 41.1875 -0.046875 L 40.375 0.234375 L 40.171875 0.09375 L 39.984375 0.09375 L 35.78125 0.578125 C 35.644531 0.921875 35.257812 1.09375 34.625 1.09375 L 32.03125 1.09375 C 27.15625 0.65625 23.503906 -0.0546875 21.078125 -1.046875 C 17.585938 -2.898438 14.875 -5.757812 12.9375 -9.625 C 11.59375 -12.820312 10.921875 -16.285156 10.921875 -20.015625 L 10.921875 -20.359375 C 9.835938 -20.835938 8.382812 -21.21875 6.5625 -21.5 C 6.113281 -22.582031 5.316406 -23.875 4.171875 -25.375 L 3.359375 -27.734375 L 3.359375 -29.890625 C 3.359375 -31.003906 3.628906 -32.054688 4.171875 -33.046875 L 3.96875 -33.234375 C 3.96875 -34.222656 5.085938 -36.796875 7.328125 -40.953125 C 4.804688 -43.210938 3.546875 -45.378906 3.546875 -47.453125 L 3.546875 -49.65625 C 3.960938 -51.476562 4.820312 -53.203125 6.125 -54.828125 L 6.125 -55.03125 C 3.351562 -60.457031 1.96875 -63.789062 1.96875 -65.03125 C 1.582031 -65.539062 1.179688 -67.328125 0.765625 -70.390625 L 0.765625 -72.40625 L 0.578125 -73.078125 C 1.753906 -78.117188 2.953125 -80.640625 4.171875 -80.640625 C 4.171875 -81.148438 4.632812 -81.710938 5.5625 -82.328125 L 5.5625 -82.46875 L 5.359375 -83.328125 C 6.578125 -83.546875 8.03125 -84.328125 9.71875 -85.671875 C 15.976562 -87.773438 21.210938 -88.828125 25.421875 -88.828125 L 26.046875 -88.6875 L 28.640625 -89.03125 L 28.640625 -88.828125 C 29.304688 -89.054688 30.503906 -89.171875 32.234375 -89.171875 Z M 32.421875 -85 L 29.640625 -85 C 28.398438 -85 26.003906 -84.441406 22.453125 -83.328125 L 20.25 -83.46875 C 16.164062 -83.019531 13.265625 -82.300781 11.546875 -81.3125 C 8.578125 -78.914062 6.914062 -76.796875 6.5625 -74.953125 L 6.5625 -74.75 L 6.75 -73.078125 L 6.75 -72.9375 C 7.707031 -72.488281 8.441406 -72.265625 8.953125 -72.265625 L 9.90625 -72.40625 L 10.34375 -72.078125 C 10.34375 -72.972656 11 -74.535156 12.3125 -76.765625 C 13.519531 -78.390625 15.976562 -79.617188 19.6875 -80.453125 L 19.875 -80.453125 L 21.453125 -80.125 L 21.640625 -80.3125 L 21.890625 -80.3125 C 22.335938 -80.21875 22.734375 -79.882812 23.078125 -79.3125 L 23.078125 -78.78125 C 22.660156 -77.789062 21.003906 -76.671875 18.109375 -75.421875 C 16.085938 -74.117188 15.078125 -72.664062 15.078125 -71.0625 L 15.078125 -70.734375 C 15.078125 -67.472656 16.40625 -63.785156 19.0625 -59.671875 L 19.0625 -59.1875 C 18.96875 -58.90625 18.039062 -58.347656 16.28125 -57.515625 L 15.515625 -57.515625 C 14.171875 -58.054688 13.5 -59.0625 13.5 -60.53125 C 11.238281 -62.320312 10.109375 -65.675781 10.109375 -70.59375 L 10.34375 -71.734375 C 9.925781 -71.421875 9.191406 -71.195312 8.140625 -71.0625 L 7.328125 -71.265625 L 6.9375 -71.265625 L 7.953125 -67.578125 L 7.765625 -67.375 L 7.765625 -67.234375 C 8.140625 -66.597656 8.664062 -64.75 9.34375 -61.6875 C 14.507812 -53.382812 17.09375 -47.859375 17.09375 -45.109375 L 17.484375 -44.78125 L 17.28125 -44.640625 L 17.671875 -43.296875 L 17.671875 -38.265625 L 16.46875 -25.859375 L 16.46875 -22.515625 L 17.484375 -18 C 18.753906 -14.070312 20.539062 -11.054688 22.84375 -8.953125 C 22.84375 -8.160156 25.363281 -6.929688 30.40625 -5.265625 C 31.8125 -4.691406 33.9375 -4.296875 36.78125 -4.078125 L 50.140625 -7.421875 L 59.484375 -10.78125 C 61.328125 -11.632812 62.585938 -12.640625 63.265625 -13.796875 C 65.878906 -17.335938 68.335938 -22.09375 70.640625 -28.0625 L 71.40625 -31.375 L 71.21875 -31.5625 L 71.21875 -31.703125 C 71.757812 -33.867188 72.09375 -35.941406 72.21875 -37.921875 L 71.59375 -39.40625 L 71.828125 -39.40625 L 71.59375 -39.609375 L 71.59375 -39.75 L 71.21875 -48.328125 L 69.625 -53.34375 C 69.625 -54.71875 68.09375 -58.726562 65.03125 -65.375 C 65.03125 -66.90625 63.832031 -69.425781 61.4375 -72.9375 L 59.484375 -76.765625 L 58.46875 -76.625 C 55.28125 -79.332031 52.96875 -80.785156 51.53125 -80.984375 C 48.5 -82.390625 45.910156 -83.28125 43.765625 -83.65625 C 41.054688 -84.332031 37.863281 -84.828125 34.1875 -85.140625 Z M 36.96875 -59.328125 L 37.203125 -59.328125 C 38.191406 -59.328125 39.117188 -58.050781 39.984375 -55.5 L 42.953125 -49.140625 L 43.15625 -49.140625 C 44.007812 -54.398438 44.867188 -57.03125 45.734375 -57.03125 C 46.335938 -57.570312 47.132812 -57.84375 48.125 -57.84375 C 48.925781 -57.625 49.328125 -57.179688 49.328125 -56.515625 L 49.140625 -56.515625 L 49.90625 -54.15625 C 49.90625 -52.59375 48.847656 -48.90625 46.734375 -43.09375 L 46.359375 -41.421875 C 47.671875 -38.453125 49.394531 -35.164062 51.53125 -31.5625 L 52.109375 -30.03125 L 52.109375 -29.359375 C 51.085938 -28.367188 50.429688 -27.875 50.140625 -27.875 C 48.128906 -28 47.125 -28.78125 47.125 -30.21875 L 44.34375 -35.25 L 44.15625 -35.25 C 42.65625 -31.894531 41.601562 -30.21875 41 -30.21875 C 40.832031 -29.863281 40.429688 -29.6875 39.796875 -29.6875 L 39.5625 -29.6875 C 38.375 -29.914062 37.78125 -30.140625 37.78125 -30.359375 L 37.78125 -30.546875 L 37.96875 -30.703125 L 37.78125 -30.890625 L 37.78125 -31.03125 L 37.96875 -31.890625 C 37.71875 -31.921875 37.460938 -32.191406 37.203125 -32.703125 C 37.585938 -34.171875 38.769531 -37.191406 40.75 -41.765625 C 37.6875 -47.285156 35.5 -52.148438 34.1875 -56.359375 L 34.390625 -56.359375 L 34.1875 -56.515625 L 34.1875 -56.703125 L 34.390625 -56.84375 L 34.390625 -57.03125 L 34.1875 -57.515625 C 34.863281 -58.378906 35.789062 -58.984375 36.96875 -59.328125 Z M 21.453125 -58.1875 L 22.078125 -58.1875 C 22.742188 -57.894531 23.078125 -57.445312 23.078125 -56.84375 C 23.078125 -55.757812 21.609375 -54.707031 18.671875 -53.6875 L 18.109375 -53.6875 C 16.890625 -53.6875 16.28125 -54.132812 16.28125 -55.03125 C 16.28125 -55.632812 17.144531 -56.300781 18.875 -57.03125 C 18.90625 -57.320312 19.765625 -57.707031 21.453125 -58.1875 Z M 21.453125 -58.1875 "/></g></g></g><g fill="#ffffff" fill-opacity="1"><g transform="translate(1033.732211, 145.442762)"><g><path d="M 44.96875 -89.265625 L 45.109375 -89.125 L 45.296875 -89.125 L 49.421875 -89.265625 C 54.273438 -89.265625 59.207031 -88.320312 64.21875 -86.4375 C 69.320312 -83.5 72.59375 -79.71875 74.03125 -75.09375 L 74.375 -71.109375 L 74.234375 -69.828125 L 74.375 -69.625 L 74.375 -69.484375 L 74.234375 -69.296875 L 74.234375 -69.15625 L 74.5625 -67.8125 L 74.375 -67.8125 L 74.5625 -67.671875 L 74.5625 -67.328125 L 74.234375 -67.328125 L 74.375 -66.515625 L 74.234375 -66.046875 L 74.5625 -65.703125 L 74.5625 -65.375 C 74.5625 -65.144531 74.320312 -65.03125 73.84375 -65.03125 L 74.234375 -64.5625 L 74.03125 -64.359375 L 74.03125 -64.21875 L 74.234375 -64.03125 L 74.234375 -63.890625 C 73.492188 -61.203125 72.882812 -59.378906 72.40625 -58.421875 C 74.070312 -57.628906 74.90625 -56.753906 74.90625 -55.796875 L 74.90625 -54.78125 C 74.90625 -51.625 73.242188 -50.046875 69.921875 -50.046875 L 68.34375 -50.53125 L 67.765625 -49.515625 L 67.765625 -49.375 C 68.429688 -49.375 69.035156 -48.492188 69.578125 -46.734375 L 71.171875 -46.734375 C 71.804688 -46.734375 72.9375 -46.175781 74.5625 -45.0625 C 75.101562 -44.332031 75.519531 -43.023438 75.8125 -41.140625 C 75.332031 -38.390625 74.914062 -37.015625 74.5625 -37.015625 L 74.5625 -36.828125 C 76.570312 -33.734375 77.578125 -31.320312 77.578125 -29.59375 L 78.484375 -23.796875 L 78.484375 -20.015625 L 78.296875 -19.34375 L 78.484375 -19.203125 C 77.367188 -13.265625 76.300781 -10.296875 75.28125 -10.296875 L 74.90625 -8.8125 C 69.34375 -4.3125 64.644531 -1.390625 60.8125 -0.046875 C 54.65625 1.265625 50.734375 1.921875 49.046875 1.921875 L 48.328125 1.921875 L 48.171875 1.71875 L 47.984375 1.921875 L 47.796875 1.921875 L 47.65625 1.71875 L 47.453125 1.921875 L 42.28125 1.390625 L 41.375 1.578125 L 38.6875 1.390625 L 34.765625 1.578125 L 34.765625 1.390625 L 34.625 1.578125 L 34.4375 1.578125 L 34.234375 1.390625 L 33.71875 1.390625 L 33.71875 1.578125 C 21.457031 1.578125 13.363281 0.539062 9.4375 -1.53125 C 1.488281 -5.070312 -2.484375 -9.476562 -2.484375 -14.75 L -2.484375 -15.5625 L -2.6875 -16.234375 L -2.109375 -19.203125 L -2.296875 -19.34375 L -2.109375 -20.15625 L -2.109375 -20.5 L -2.296875 -20.6875 L -2.296875 -20.828125 L -1.96875 -20.828125 L -1.96875 -20.5 L -1.765625 -20.5 C -1.640625 -21.644531 -1.46875 -22.363281 -1.25 -22.65625 L -1.390625 -23.328125 L -1.25 -23.46875 L -0.859375 -23.46875 L -0.859375 -23.125 C -0.441406 -23.351562 0.5 -25.015625 1.96875 -28.109375 L 4.984375 -31.703125 C 4.179688 -31.703125 3.460938 -32.976562 2.828125 -35.53125 L 2.828125 -37.828125 L 1.578125 -37.640625 C -1.128906 -39.941406 -2.484375 -41.601562 -2.484375 -42.625 L -2.6875 -42.765625 L -2.6875 -43.578125 C -2.6875 -44.597656 -2.207031 -45.8125 -1.25 -47.21875 C -1.050781 -48.019531 0.191406 -48.960938 2.484375 -50.046875 C 1.273438 -52.210938 0.445312 -55.566406 0 -60.109375 C 0 -61.503906 -0.238281 -62.203125 -0.71875 -62.203125 C -0.71875 -63.003906 -0.300781 -64.78125 0.53125 -67.53125 C 0.53125 -68.644531 2.316406 -71.4375 5.890625 -75.90625 C 7.898438 -78.175781 10.148438 -80.046875 12.640625 -81.515625 C 15.253906 -83.234375 18.703125 -84.71875 22.984375 -85.96875 L 29.265625 -87.453125 L 36.015625 -88.78125 L 36.015625 -88.59375 C 36.015625 -88.789062 38.867188 -88.96875 44.578125 -89.125 L 44.78125 -89.265625 Z M 43.71875 -84.328125 L 43.53125 -84.484375 L 42.09375 -84.484375 L 41.5625 -84.140625 L 41.375 -84.140625 L 41.1875 -84.328125 L 35.671875 -83.46875 L 34.953125 -83.46875 C 27.835938 -81.394531 23.625 -79.972656 22.3125 -79.203125 C 15.414062 -76.078125 11.007812 -72.566406 9.09375 -68.671875 C 7.21875 -64.585938 6.210938 -61.394531 6.078125 -59.09375 L 6.078125 -58.28125 C 6.078125 -53.425781 7.019531 -49.847656 8.90625 -47.546875 C 11.113281 -44.421875 13.664062 -41.945312 16.5625 -40.125 C 17.6875 -40.476562 19.890625 -42.078125 23.171875 -44.921875 L 24.953125 -46.21875 C 24.953125 -46.46875 26.257812 -47.628906 28.875 -49.703125 L 33.515625 -54.78125 L 33.515625 -54.984375 L 27.625 -53.828125 C 26.738281 -53.828125 25.910156 -54.707031 25.140625 -56.46875 C 25.140625 -57.101562 28.347656 -58.519531 34.765625 -60.71875 C 37.578125 -60.945312 39.671875 -61.394531 41.046875 -62.0625 C 43.179688 -62.0625 44.25 -61.007812 44.25 -58.90625 C 44.03125 -58.90625 43.726562 -58.472656 43.34375 -57.609375 C 42.988281 -57.609375 40.671875 -55.46875 36.390625 -51.1875 C 35.273438 -49.34375 31.175781 -45.5 24.09375 -39.65625 C 23.195312 -39.144531 18.914062 -35.726562 11.25 -29.40625 C 5.539062 -23.75 2.6875 -19.023438 2.6875 -15.234375 L 3.203125 -12.734375 L 3.015625 -12.734375 C 5.378906 -8.234375 7.882812 -5.984375 10.53125 -5.984375 C 10.53125 -5.765625 12.671875 -5.382812 16.953125 -4.84375 L 23.890625 -3.875 L 24.09375 -4.015625 L 24.953125 -3.875 L 30.84375 -3.6875 L 41.1875 -5.03125 L 41.375 -4.84375 L 41.5625 -4.84375 L 45.296875 -5.171875 L 45.5 -5.03125 C 53.832031 -5.03125 61.253906 -7.101562 67.765625 -11.25 C 70.503906 -12.945312 72.351562 -15.148438 73.3125 -17.859375 C 73.601562 -17.859375 73.910156 -19.117188 74.234375 -21.640625 C 74.234375 -25.890625 72.679688 -30.34375 69.578125 -35 C 67.410156 -37.5625 64.253906 -39.320312 60.109375 -40.28125 C 57.898438 -40.851562 56.171875 -41.140625 54.921875 -41.140625 L 54.59375 -41.140625 C 46.257812 -41.140625 38.882812 -38.378906 32.46875 -32.859375 C 29.65625 -30.296875 28.171875 -28.109375 28.015625 -26.296875 C 28.015625 -23.003906 29.800781 -20.800781 33.375 -19.6875 C 33.882812 -19.363281 35.832031 -18.753906 39.21875 -17.859375 L 40.328125 -15.421875 C 40.128906 -15.421875 39.953125 -15.085938 39.796875 -14.421875 C 39.316406 -14.421875 38.898438 -14.257812 38.546875 -13.9375 C 32.128906 -15.820312 28.015625 -17.625 26.203125 -19.34375 C 23.960938 -21.039062 22.84375 -22.796875 22.84375 -24.609375 L 22.65625 -25.28125 L 22.84375 -26.296875 L 22.65625 -26.765625 L 22.84375 -26.765625 L 22.65625 -27.25 C 23.769531 -31.65625 25.734375 -35.007812 28.546875 -37.3125 C 29.722656 -39.09375 33.890625 -41.179688 41.046875 -43.578125 L 41.1875 -43.4375 L 42.28125 -43.765625 L 42.4375 -43.578125 L 42.625 -43.578125 L 45.5 -44.390625 L 45.5 -44.25 L 47.984375 -44.921875 L 49.234375 -44.734375 L 53.15625 -44.921875 L 53.34375 -44.734375 L 53.5 -44.734375 L 54.40625 -44.921875 L 59.046875 -44.390625 C 59.046875 -44.710938 61.25 -48.128906 65.65625 -54.640625 C 68.144531 -59.140625 69.390625 -62.71875 69.390625 -65.375 L 70.109375 -71.640625 C 69.785156 -76.367188 68.957031 -78.734375 67.625 -78.734375 C 66.789062 -79.847656 63.34375 -81.378906 57.28125 -83.328125 C 54.5 -84.222656 51.335938 -84.671875 47.796875 -84.671875 L 44.0625 -84.671875 Z M -0.71875 -61.25 L -0.328125 -60.921875 L -0.859375 -60.71875 L -1.046875 -60.921875 L -1.046875 -61.0625 L -0.859375 -61.25 Z M 65.125 -34.53125 C 67.238281 -33.925781 69.140625 -32.328125 70.828125 -29.734375 C 71.785156 -27.566406 72.265625 -26.242188 72.265625 -25.765625 L 72.078125 -25.625 L 72.078125 -25.484375 L 72.265625 -25.28125 C 70.890625 -19.03125 69.867188 -15.90625 69.203125 -15.90625 L 68.34375 -15.421875 L 68.671875 -14.421875 C 68.671875 -13.390625 68.144531 -12.734375 67.09375 -12.453125 C 63.863281 -13.597656 61.945312 -14.585938 61.34375 -15.421875 C 62.019531 -16.410156 62.5625 -16.953125 62.96875 -17.046875 L 63.6875 -17.046875 C 64.269531 -17.046875 64.863281 -16.882812 65.46875 -16.5625 L 65.46875 -16.90625 C 65.082031 -16.90625 64.726562 -17.175781 64.40625 -17.71875 L 64.40625 -18.53125 C 64.507812 -18.914062 65.101562 -19.347656 66.1875 -19.828125 C 66.882812 -20.367188 67.234375 -21.804688 67.234375 -24.140625 L 67.09375 -24.28125 L 67.09375 -24.46875 L 67.234375 -24.953125 L 66.703125 -28.25 L 66.90625 -28.25 C 66.90625 -29.8125 65.59375 -31.25 62.96875 -32.5625 L 62.96875 -33.1875 C 62.96875 -34.082031 63.6875 -34.53125 65.125 -34.53125 Z M 65.65625 -16.5625 L 65.65625 -16.375 L 67.234375 -15.90625 L 67.421875 -15.90625 L 67.421875 -16.046875 L 67.09375 -16.046875 C 67.09375 -16.390625 66.960938 -16.5625 66.703125 -16.5625 Z M 69.578125 -15.421875 L 69.921875 -15.421875 L 70.109375 -14.5625 L 70.109375 -14.421875 L 69.734375 -14.078125 L 69.578125 -14.21875 Z M 69.578125 -15.421875 "/></g></g></g><g fill="#ffffff" fill-opacity="1"><g transform="translate(1118.237541, 151.684093)"><g><path d="M 33.578125 -88.453125 C 33.578125 -88.066406 33.894531 -87.875 34.53125 -87.875 L 46.984375 -88.453125 C 55.734375 -88.453125 63.828125 -84.332031 71.265625 -76.09375 C 72.085938 -75.132812 72.914062 -74.65625 73.75 -74.65625 C 74.582031 -74.65625 76.128906 -70.347656 78.390625 -61.734375 L 78.109375 -61.4375 L 78.390625 -58.46875 L 78.390625 -57.90625 C 78.390625 -48.257812 77.257812 -40.816406 75 -35.578125 C 75 -34.648438 74.789062 -33.960938 74.375 -33.515625 L 74.375 -32.953125 C 75.613281 -30.296875 76.234375 -27.644531 76.234375 -25 L 75.90625 -22.9375 C 76.957031 -20.476562 77.484375 -18.816406 77.484375 -17.953125 L 77.484375 -17.390625 C 77.484375 -15.242188 76.128906 -13.582031 73.421875 -12.40625 L 73.421875 -11.78125 C 74.054688 -11.082031 74.675781 -9.613281 75.28125 -7.375 L 75 -7.09375 L 75 -6.796875 L 75.28125 -5.65625 C 73.84375 -2.488281 70.9375 -0.90625 66.5625 -0.90625 L 65.03125 -0.90625 C 64.070312 -0.90625 61.675781 -1.703125 57.84375 -3.296875 C 54.175781 -0.941406 49.195312 0.617188 42.90625 1.390625 C 42.90625 1.773438 40.832031 2.078125 36.6875 2.296875 C 32.25 2.296875 28.925781 1.894531 26.71875 1.09375 L 26.4375 1.390625 L 17.71875 -2.96875 C 17.65625 -3.320312 16.828125 -3.910156 15.234375 -4.734375 L 12.40625 -3.875 C 8.726562 -4.644531 6.347656 -5.425781 5.265625 -6.21875 C 2.359375 -8.550781 0.90625 -11.09375 0.90625 -13.84375 L 0.90625 -15.328125 C 1.582031 -18.648438 2.207031 -20.3125 2.78125 -20.3125 C -0.664062 -27.550781 -2.535156 -34.601562 -2.828125 -41.46875 L -2.53125 -41.765625 L -2.53125 -42.046875 L -2.828125 -46.453125 C -2.703125 -48.210938 -2.492188 -49.09375 -2.203125 -49.09375 L -2.53125 -49.375 L -2.53125 -49.65625 C -2.125 -50.363281 -1.804688 -51.738281 -1.578125 -53.78125 C -4.710938 -55.882812 -6.28125 -60.097656 -6.28125 -66.421875 C -6.28125 -69.265625 -4.296875 -72.203125 -0.328125 -75.234375 L 4.9375 -77.296875 C 6.625 -84.160156 10.054688 -87.59375 15.234375 -87.59375 L 15.515625 -87.59375 C 18.390625 -87.59375 20.460938 -86.316406 21.734375 -83.765625 C 27.296875 -86.890625 31.242188 -88.453125 33.578125 -88.453125 Z M 1.203125 -87.25 C 4.328125 -87.25 5.890625 -85.988281 5.890625 -83.46875 L 5.5625 -83.46875 L 5.890625 -82.5625 C 5.890625 -80.644531 5.0625 -79.175781 3.40625 -78.15625 L 0.90625 -78.15625 C -1.800781 -78.664062 -3.15625 -79.75 -3.15625 -81.40625 L -3.15625 -82.28125 C -2.488281 -85.40625 -1.453125 -86.96875 -0.046875 -86.96875 Z M 5.5625 -49.09375 L 5.5625 -44.390625 C 5.96875 -40.367188 6.796875 -35.960938 8.046875 -31.171875 C 8.328125 -28.523438 9.363281 -26.179688 11.15625 -24.140625 C 11.601562 -24.109375 12.640625 -21.953125 14.265625 -17.671875 L 17.390625 -13.546875 L 18.96875 -10.625 C 24.613281 -7.6875 29.59375 -6.21875 33.90625 -6.21875 L 34.8125 -6.21875 C 40.84375 -6.21875 48.519531 -8.28125 57.84375 -12.40625 C 62.28125 -14.695312 65.1875 -17.921875 66.5625 -22.078125 L 67.53125 -26.765625 L 67.53125 -28.546875 L 67.1875 -28.546875 C 65.6875 -27.742188 63.195312 -27.34375 59.71875 -27.34375 L 59.4375 -27.34375 C 56.113281 -27.34375 51.019531 -29.210938 44.15625 -32.953125 L 40.125 -36.15625 L 39.515625 -26.484375 C 38.960938 -25.304688 38.226562 -24.71875 37.3125 -24.71875 L 36.0625 -25.28125 L 35.78125 -25 L 35.4375 -25 C 33.582031 -25 32.65625 -27.054688 32.65625 -31.171875 C 32.65625 -36.316406 32.128906 -41.8125 31.078125 -47.65625 L 31.421875 -47.65625 L 31.078125 -47.9375 L 31.078125 -48.21875 C 31.078125 -49.71875 32.226562 -50.597656 34.53125 -50.859375 L 34.8125 -50.578125 L 35.15625 -50.578125 L 37.640625 -51.140625 C 40.546875 -48.617188 42 -46.175781 42 -43.8125 C 47.101562 -37.332031 51.460938 -34.09375 55.078125 -34.09375 C 61.804688 -34.894531 65.75 -36.957031 66.90625 -40.28125 C 68.976562 -45.382812 70.015625 -51.65625 70.015625 -59.09375 L 70.015625 -61.15625 C 70.015625 -66.488281 68.144531 -70.207031 64.40625 -72.3125 C 59.425781 -77.039062 54.128906 -79.882812 48.515625 -80.84375 L 42.28125 -81.703125 C 37.976562 -81.703125 32.171875 -79.640625 24.859375 -75.515625 C 14.578125 -65.648438 9.289062 -59.585938 9 -57.328125 C 6.707031 -53.335938 5.5625 -50.59375 5.5625 -49.09375 Z M 51.625 -68.765625 L 54.109375 -65.5625 C 55.453125 -66.519531 56.601562 -67 57.5625 -67 L 58.8125 -65.84375 L 58.8125 -64.9375 L 56.609375 -59.953125 L 60.96875 -50.859375 C 60.96875 -50.222656 60.132812 -49.441406 58.46875 -48.515625 C 56.425781 -48.515625 54.972656 -49.789062 54.109375 -52.34375 L 53.828125 -52.34375 C 53.160156 -49.59375 52.007812 -48.21875 50.375 -48.21875 C 49.519531 -48.476562 48.898438 -48.957031 48.515625 -49.65625 C 48.515625 -50.875 49.132812 -53.71875 50.375 -58.1875 C 48.113281 -62.6875 46.660156 -65.238281 46.015625 -65.84375 L 46.015625 -66.421875 C 47.554688 -67.984375 49.425781 -68.765625 51.625 -68.765625 Z M 10.875 -35.875 L 11.78125 -35.875 C 12.320312 -35.289062 13.148438 -35 14.265625 -35 C 18.390625 -26.570312 21.296875 -22.070312 22.984375 -21.5 C 24.773438 -18.757812 27.171875 -16.894531 30.171875 -15.90625 C 30.585938 -15.90625 30.796875 -15.613281 30.796875 -15.03125 L 31.421875 -15.03125 C 31.515625 -15.800781 31.816406 -16.1875 32.328125 -16.1875 L 33.578125 -16.1875 L 35.15625 -14.75 C 34.414062 -11.394531 33.679688 -9.71875 32.953125 -9.71875 L 31.078125 -9.71875 C 30.597656 -9.71875 30.296875 -10.40625 30.171875 -11.78125 L 30.453125 -12.109375 L 30.171875 -12.109375 C 29.023438 -11.117188 27.78125 -10.625 26.4375 -10.625 C 20.5 -14.6875 16.648438 -18.789062 14.890625 -22.9375 C 12.972656 -26.195312 11.519531 -30.125 10.53125 -34.71875 Z M 30.453125 -14.75 L 30.453125 -13.265625 L 30.796875 -13.265625 L 31.078125 -14.75 Z M 30.453125 -14.75 "/></g></g></g></svg>