<svg xmlns="http://www.w3.org/2000/svg" xmlns:xlink="http://www.w3.org/1999/xlink" width="1080" zoomAndPan="magnify" viewBox="0 0 810 809.999993" height="1080" preserveAspectRatio="xMidYMid meet" version="1.0"><defs><g/></defs><g fill="#ffffff" fill-opacity="1"><g transform="translate(115.432615, 430.266181)"><g><path d="M 34.75 -52.542969 C 26.273438 -53.613281 17.792969 -53.765625 9.242188 -52.925781 C 1.984375 -52.164062 1.910156 -40.707031 9.242188 -41.46875 C 11.53125 -41.699219 13.746094 -41.851562 15.960938 -41.929688 C 15.273438 -30.777344 14.664062 -19.550781 13.976562 -8.402344 C 13.519531 -1.070312 24.972656 -1.070312 25.433594 -8.402344 C 26.121094 -19.550781 26.730469 -30.625 27.417969 -41.777344 C 29.863281 -41.621094 32.304688 -41.394531 34.75 -41.089844 C 42.082031 -40.171875 42.003906 -51.628906 34.75 -52.542969 Z M 34.75 -52.542969 "/></g></g></g><g fill="#ffffff" fill-opacity="1"><g transform="translate(159.498718, 430.266181)"><g><path d="M 31.847656 -16.113281 C 26.578125 -16.265625 21.308594 -16.113281 16.113281 -15.578125 C 16.496094 -18.480469 16.953125 -21.382812 17.335938 -24.363281 C 19.933594 -24.363281 22.53125 -24.210938 25.125 -23.980469 C 28.257812 -23.675781 30.855469 -26.808594 30.855469 -29.707031 C 30.855469 -33.070312 28.257812 -35.132812 25.125 -35.4375 C 23.140625 -35.589844 21.15625 -35.742188 19.09375 -35.742188 C 19.550781 -38.722656 20.085938 -41.699219 20.542969 -44.601562 C 24.4375 -44.601562 28.257812 -44.523438 32.152344 -44.21875 C 39.484375 -43.761719 39.484375 -55.21875 32.152344 -55.675781 C 26.652344 -56.058594 21.078125 -56.132812 15.578125 -55.980469 C 13.441406 -55.90625 11.914062 -54.835938 10.996094 -53.460938 C 10.617188 -52.851562 10.308594 -52.085938 10.15625 -51.167969 C 7.636719 -37.195312 5.574219 -23.140625 3.820312 -9.011719 C 3.285156 -4.964844 7.867188 -2.980469 11.074219 -3.511719 C 17.949219 -4.582031 24.898438 -4.886719 31.847656 -4.660156 C 39.179688 -4.351562 39.179688 -15.808594 31.847656 -16.113281 Z M 31.847656 -16.113281 "/></g></g></g><g fill="#ffffff" fill-opacity="1"><g transform="translate(200.968214, 430.266181)"><g><path d="M 39.484375 -33.375 C 39.253906 -40.019531 39.101562 -57.433594 27.800781 -52.621094 C 20.46875 -49.488281 14.894531 -39.941406 11.761719 -32.992188 C 7.636719 -23.75 5.652344 -13.898438 3.894531 -3.894531 C 2.597656 3.285156 13.59375 6.414062 14.894531 -0.839844 C 15.578125 -4.734375 16.265625 -8.554688 17.109375 -12.371094 L 28.5625 -11.992188 C 28.714844 -8.9375 28.792969 -5.878906 28.867188 -2.824219 C 29.023438 4.507812 40.476562 4.507812 40.25 -2.824219 C 40.019531 -12.984375 39.867188 -23.21875 39.484375 -33.375 Z M 20.316406 -23.75 C 20.46875 -24.132812 20.621094 -24.59375 20.773438 -24.972656 C 22.070312 -28.410156 23.75 -31.695312 25.738281 -34.75 C 26.425781 -35.820312 27.1875 -36.734375 27.953125 -37.726562 C 28.027344 -36.199219 27.953125 -34.671875 28.027344 -33.375 C 28.179688 -30.089844 28.257812 -26.730469 28.335938 -23.445312 C 25.660156 -23.523438 22.988281 -23.597656 20.316406 -23.75 Z M 20.316406 -23.75 "/></g></g></g><g fill="#ffffff" fill-opacity="1"><g transform="translate(245.110695, 430.266181)"><g/></g></g><g fill="#ffffff" fill-opacity="1"><g transform="translate(268.327506, 430.266181)"><g><path d="M 39.484375 -33.449219 C 39.253906 -40.09375 39.101562 -57.507812 27.800781 -52.695312 C 20.46875 -49.566406 14.894531 -40.019531 11.761719 -33.144531 C 7.636719 -23.828125 5.652344 -13.976562 3.894531 -4.046875 C 2.597656 3.207031 13.59375 6.261719 14.894531 -0.992188 C 15.578125 -4.8125 16.265625 -8.707031 17.109375 -12.523438 L 28.5625 -12.066406 C 28.714844 -9.011719 28.792969 -5.957031 28.867188 -2.980469 C 29.023438 4.429688 40.476562 4.429688 40.25 -2.980469 C 40.019531 -13.136719 39.867188 -23.292969 39.484375 -33.449219 Z M 20.773438 -25.125 C 22.070312 -28.488281 23.75 -31.847656 25.738281 -34.824219 C 26.425781 -35.894531 27.1875 -36.886719 27.953125 -37.804688 C 28.027344 -36.277344 27.953125 -34.75 28.027344 -33.449219 C 28.179688 -30.167969 28.257812 -26.882812 28.335938 -23.523438 C 25.660156 -23.597656 22.988281 -23.75 20.316406 -23.828125 C 20.46875 -24.285156 20.621094 -24.667969 20.773438 -25.125 Z M 20.773438 -25.125 "/></g></g></g><g fill="#ffffff" fill-opacity="1"><g transform="translate(312.469975, 430.266181)"><g><path d="M 46.894531 -41.699219 C 44.144531 -54.453125 25.507812 -59.265625 14.816406 -55.292969 C 14.585938 -55.21875 14.433594 -55.140625 14.28125 -55.066406 C 11.683594 -55.292969 8.402344 -53.613281 8.019531 -50.863281 C 6.566406 -39.867188 4.125 -28.410156 3.820312 -17.261719 C 3.511719 -7.027344 12.066406 -1.832031 21.535156 -2.980469 C 30.472656 -4.046875 39.867188 -11.148438 39.714844 -20.773438 C 39.636719 -23.445312 38.949219 -25.660156 37.804688 -27.417969 C 43.835938 -30.320312 48.34375 -34.902344 46.894531 -41.699219 Z M 26.652344 -17.414062 C 24.820312 -15.425781 18.175781 -12.296875 15.65625 -14.894531 C 14.664062 -15.886719 15.351562 -18.480469 15.503906 -19.855469 C 15.578125 -21.15625 15.808594 -22.53125 15.960938 -23.828125 C 16.648438 -23.523438 17.488281 -23.292969 18.40625 -23.292969 C 18.789062 -23.292969 19.167969 -23.292969 19.550781 -23.292969 C 23.675781 -23.292969 31.3125 -22.605469 26.652344 -17.414062 Z M 29.175781 -36.351562 C 26.042969 -35.285156 22.910156 -34.824219 19.628906 -34.75 C 19.246094 -34.75 18.789062 -34.75 18.40625 -34.75 C 18.023438 -34.75 17.71875 -34.671875 17.335938 -34.671875 C 17.792969 -37.957031 18.253906 -41.242188 18.636719 -44.523438 C 21.613281 -45.441406 24.363281 -45.59375 27.417969 -44.753906 C 28.640625 -44.371094 35.742188 -41.929688 35.511719 -39.714844 C 35.4375 -38.644531 30.472656 -36.8125 29.175781 -36.351562 Z M 29.175781 -36.351562 "/></g></g></g><g fill="#ffffff" fill-opacity="1"><g transform="translate(363.485857, 430.266181)"><g><path d="M 44.601562 -43.304688 C 43.683594 -50.558594 32.230469 -50.636719 33.144531 -43.304688 C 34.214844 -34.980469 32.992188 -20.925781 24.058594 -16.726562 C 14.433594 -12.144531 15.121094 -39.5625 15.425781 -44.066406 C 15.960938 -51.398438 4.507812 -51.398438 3.972656 -44.066406 C 3.054688 -31.160156 4.429688 -1.527344 24.515625 -4.886719 C 40.78125 -7.636719 46.359375 -29.554688 44.601562 -43.304688 Z M 44.601562 -43.304688 "/></g></g></g><g fill="#ffffff" fill-opacity="1"><g transform="translate(412.210586, 430.266181)"><g><path d="M 28.410156 -32.992188 C 26.425781 -34.292969 21.84375 -35.511719 20.925781 -37.957031 C 19.550781 -41.699219 24.667969 -44.371094 27.265625 -45.519531 C 33.910156 -48.648438 28.105469 -58.578125 21.460938 -55.445312 C 11.226562 -50.636719 4.125 -36.964844 14.359375 -28.179688 C 17.949219 -24.972656 25.050781 -23.75 25.8125 -18.175781 C 26.121094 -15.734375 24.972656 -13.59375 22.835938 -12.679688 C 21.382812 -11.992188 16.039062 -11.148438 14.816406 -12.832031 C 10.386719 -18.636719 0.457031 -12.984375 4.886719 -7.101562 C 13.898438 4.8125 35.4375 -0.152344 37.117188 -15.503906 C 37.878906 -22.453125 34.214844 -29.097656 28.410156 -32.992188 Z M 28.410156 -32.992188 "/></g></g></g><g fill="#ffffff" fill-opacity="1"><g transform="translate(453.298215, 430.266181)"><g><path d="M 31.847656 -16.113281 C 26.578125 -16.265625 21.308594 -16.113281 16.113281 -15.578125 C 16.496094 -18.480469 16.953125 -21.382812 17.335938 -24.363281 C 19.933594 -24.363281 22.53125 -24.210938 25.125 -23.980469 C 28.257812 -23.675781 30.855469 -26.808594 30.855469 -29.707031 C 30.855469 -33.070312 28.257812 -35.132812 25.125 -35.4375 C 23.140625 -35.589844 21.15625 -35.742188 19.09375 -35.742188 C 19.550781 -38.722656 20.085938 -41.699219 20.542969 -44.601562 C 24.4375 -44.601562 28.257812 -44.523438 32.152344 -44.21875 C 39.484375 -43.761719 39.484375 -55.21875 32.152344 -55.675781 C 26.652344 -56.058594 21.078125 -56.132812 15.578125 -55.980469 C 13.441406 -55.90625 11.914062 -54.835938 10.996094 -53.460938 C 10.617188 -52.851562 10.308594 -52.085938 10.15625 -51.167969 C 7.636719 -37.195312 5.574219 -23.140625 3.820312 -9.011719 C 3.285156 -4.964844 7.867188 -2.980469 11.074219 -3.511719 C 17.949219 -4.582031 24.898438 -4.886719 31.847656 -4.660156 C 39.179688 -4.351562 39.179688 -15.808594 31.847656 -16.113281 Z M 31.847656 -16.113281 "/></g></g></g><g fill="#ffffff" fill-opacity="1"><g transform="translate(494.767711, 430.266181)"><g><path d="M 33.605469 -24.667969 C 27.648438 -24.210938 21.765625 -23.371094 15.960938 -22.070312 C 16.953125 -31.542969 17.871094 -40.9375 18.789062 -50.328125 C 19.476562 -57.660156 8.019531 -57.585938 7.332031 -50.328125 C 6.1875 -38.414062 4.964844 -26.5 3.820312 -14.585938 C 3.4375 -10.84375 7.789062 -8.09375 11.074219 -9.089844 C 18.480469 -11.226562 25.964844 -12.601562 33.605469 -13.210938 C 40.9375 -13.746094 41.011719 -25.203125 33.605469 -24.667969 Z M 33.605469 -24.667969 "/></g></g></g><g fill="#ffffff" fill-opacity="1"><g transform="translate(537.764627, 430.266181)"><g><path d="M 7.253906 -46.96875 C 5.726562 -33.222656 4.582031 -19.398438 3.820312 -5.5 C 3.359375 1.832031 14.816406 1.832031 15.273438 -5.5 C 16.039062 -19.398438 17.183594 -33.222656 18.710938 -46.96875 C 19.476562 -54.300781 8.019531 -54.222656 7.253906 -46.96875 Z M 7.253906 -46.96875 "/></g></g></g><g fill="#ffffff" fill-opacity="1"><g transform="translate(560.37046, 430.266181)"><g><path d="M 32.992188 -47.199219 C 28.257812 -51.476562 22.605469 -53.460938 16.496094 -54.605469 C 15.886719 -54.757812 15.199219 -54.835938 14.585938 -54.988281 C 10.921875 -55.597656 6.109375 -55.675781 5.804688 -50.941406 C 4.8125 -37.039062 4.199219 -23.140625 3.820312 -9.242188 C 3.742188 -6.796875 5.804688 -4.582031 8.171875 -4.277344 C 9.929688 -3.972656 11.761719 -4.507812 13.519531 -5.039062 C 19.628906 -7.101562 27.035156 -9.46875 32 -13.671875 C 36.507812 -17.566406 39.867188 -22.757812 40.554688 -28.714844 C 41.394531 -35.820312 38.1875 -42.539062 32.992188 -47.199219 Z M 28.714844 -28.027344 C 26.578125 -21.996094 21.078125 -19.78125 15.425781 -17.949219 C 15.734375 -26.273438 16.191406 -34.597656 16.648438 -42.84375 C 23.75 -41.316406 31.695312 -36.351562 28.714844 -28.027344 Z M 28.714844 -28.027344 "/></g></g></g><g fill="#ffffff" fill-opacity="1"><g transform="translate(604.971151, 430.266181)"><g><path d="M 38.722656 -23.828125 C 33.070312 -23.523438 27.417969 -23.292969 21.765625 -23.066406 C 29.023438 -31.160156 37.195312 -38.566406 43.152344 -47.734375 C 45.746094 -51.628906 42.308594 -56.058594 38.261719 -56.363281 C 30.703125 -56.898438 23.21875 -57.203125 15.734375 -57.203125 C 8.324219 -57.203125 8.324219 -45.746094 15.734375 -45.746094 C 19.550781 -45.746094 23.445312 -45.671875 27.265625 -45.519531 C 19.855469 -36.8125 11.148438 -29.175781 4.582031 -19.628906 C 2.214844 -16.113281 5.421875 -10.84375 9.546875 -11.074219 C 19.246094 -11.457031 29.023438 -11.914062 38.722656 -12.371094 C 46.050781 -12.679688 46.050781 -24.132812 38.722656 -23.828125 Z M 38.722656 -23.828125 "/></g></g></g><g fill="#ffffff" fill-opacity="1"><g transform="translate(653.084902, 430.266181)"><g><path d="M 31.847656 -16.113281 C 26.578125 -16.265625 21.308594 -16.113281 16.113281 -15.578125 C 16.496094 -18.480469 16.953125 -21.382812 17.335938 -24.363281 C 19.933594 -24.363281 22.53125 -24.210938 25.125 -23.980469 C 28.257812 -23.675781 30.855469 -26.808594 30.855469 -29.707031 C 30.855469 -33.070312 28.257812 -35.132812 25.125 -35.4375 C 23.140625 -35.589844 21.15625 -35.742188 19.09375 -35.742188 C 19.550781 -38.722656 20.085938 -41.699219 20.542969 -44.601562 C 24.4375 -44.601562 28.257812 -44.523438 32.152344 -44.21875 C 39.484375 -43.761719 39.484375 -55.21875 32.152344 -55.675781 C 26.652344 -56.058594 21.078125 -56.132812 15.578125 -55.980469 C 13.441406 -55.90625 11.914062 -54.835938 10.996094 -53.460938 C 10.617188 -52.851562 10.308594 -52.085938 10.15625 -51.167969 C 7.636719 -37.195312 5.574219 -23.140625 3.820312 -9.011719 C 3.285156 -4.964844 7.867188 -2.980469 11.074219 -3.511719 C 17.949219 -4.582031 24.898438 -4.886719 31.847656 -4.660156 C 39.179688 -4.351562 39.179688 -15.808594 31.847656 -16.113281 Z M 31.847656 -16.113281 "/></g></g></g></svg>