<svg xmlns="http://www.w3.org/2000/svg" xmlns:xlink="http://www.w3.org/1999/xlink" width="1640" zoomAndPan="magnify" viewBox="0 0 1230 225" height="300" preserveAspectRatio="xMidYMid meet" version="1.0"><defs><g/></defs><g fill="#ffffff" fill-opacity="1"><g transform="translate(47.346557, 138.000004)"><g><path d="M 38.5625 -45.375 C 42.875 -37.957031 44.703125 -31.132812 44.046875 -24.90625 L 44.015625 -24.640625 L 44.28125 -24.328125 L 43.96875 -24.109375 L 43.78125 -22.546875 C 43.25 -17.578125 41.910156 -13.210938 39.765625 -9.453125 L 36.859375 -9.765625 L 36.625 -10.0625 L 36.359375 -10.0625 L 36.328125 -9.796875 L 36.09375 -10.109375 L 28.6875 -10.375 L 21.953125 -21.6875 C 21.671875 -18.90625 19.601562 -15.15625 15.75 -10.4375 C 14.457031 -9.15625 12.375 -8.675781 9.5 -9 C 5.4375 -9.4375 2.585938 -14.15625 0.953125 -23.15625 C 0.515625 -25.9375 0.335938 -28.523438 0.421875 -30.921875 L 8.78125 -32.125 L 9 -31.859375 L 8.9375 -31.03125 L 8.40625 -28.71875 L 8.59375 -27.921875 L 8.328125 -27.703125 L 8.28125 -27.390625 C 8.6875 -20.628906 9.457031 -17.203125 10.59375 -17.109375 C 10.539062 -16.546875 10.992188 -15.875 11.953125 -15.09375 C 13.867188 -17.96875 14.992188 -20.929688 15.328125 -23.984375 L 15.515625 -25.84375 C 15.921875 -29.550781 15.390625 -33.675781 13.921875 -38.21875 L 14 -38.71875 C 15.007812 -40.195312 16.835938 -40.800781 19.484375 -40.53125 L 23.203125 -40.375 L 28.375 -27.09375 C 30.644531 -22.019531 32.171875 -18.941406 32.953125 -17.859375 L 33.421875 -17.25 C 34.117188 -18.96875 34.875 -21.820312 35.6875 -25.8125 L 35.453125 -26.640625 L 35.765625 -26.828125 C 35.984375 -30.742188 34.910156 -35.550781 32.546875 -41.25 L 30.28125 -44.953125 L 30.3125 -45.1875 Z M 38.5625 -45.375 "/></g></g></g><g fill="#ffffff" fill-opacity="1"><g transform="translate(92.792268, 138.000004)"><g><path d="M 40.453125 -20.171875 C 31.671875 -19.003906 23.835938 -15.960938 16.953125 -11.046875 L 13.125 -7.75 L 6.28125 -8.484375 C 5.957031 -8.503906 5.816406 -8.789062 5.859375 -9.34375 L 6.171875 -9.53125 C 6.578125 -16.039062 6.132812 -19.359375 4.84375 -19.484375 L 2.65625 -21.3125 L 2.6875 -21.609375 C 2.707031 -21.859375 3.453125 -22.210938 4.921875 -22.671875 L 4.953125 -23.203125 C 5.035156 -23.722656 4.34375 -25.472656 2.875 -28.453125 L 0.1875 -28.1875 L -0.1875 -29.59375 L 0.109375 -29.78125 L 0.15625 -30.078125 L 0.109375 -32.46875 L 0.15625 -32.703125 L 0.75 -33.1875 L 0.984375 -32.890625 C 3.878906 -32.554688 9.644531 -33.523438 18.28125 -35.796875 C 25.820312 -38.441406 29.992188 -40.382812 30.796875 -41.625 L 33.484375 -37.078125 L 33.453125 -36.5625 C 26.441406 -32.375 18.394531 -29.882812 9.3125 -29.09375 L 9.265625 -28.53125 L 11.015625 -25.203125 L 11.546875 -25.125 C 20.628906 -28.40625 26.191406 -29.929688 28.234375 -29.703125 L 30.796875 -26.796875 L 30.796875 -26.53125 C 30.617188 -26.25 27.984375 -25.65625 22.890625 -24.75 L 12.21875 -21.609375 C 12.394531 -20.117188 12.828125 -18.40625 13.515625 -16.46875 C 19.335938 -19.945312 27.382812 -22.429688 37.65625 -23.921875 L 41.921875 -24.515625 C 43.710938 -24.085938 44.394531 -22.828125 43.96875 -20.734375 L 41.921875 -20.28125 Z M 40.453125 -20.171875 "/></g></g></g><g fill="#ffffff" fill-opacity="1"><g transform="translate(127.491451, 138.000004)"><g><path d="M 10.40625 -34.09375 C 10.476562 -33.539062 10.554688 -32.960938 10.640625 -32.359375 C 11.597656 -28.722656 12.226562 -24.597656 12.53125 -19.984375 L 18.84375 -19.796875 C 22.019531 -20.097656 23.847656 -20.816406 24.328125 -21.953125 C 24.554688 -24.097656 23.132812 -25.890625 20.0625 -27.328125 C 20.082031 -27.597656 19.25 -28.125 17.5625 -28.90625 C 14.582031 -30.800781 12.195312 -32.53125 10.40625 -34.09375 Z M 32.203125 -18.359375 C 32.660156 -18.304688 33.238281 -18.226562 33.9375 -18.125 L 37.796875 -16.125 C 39.492188 -14.9375 40.492188 -13.75 40.796875 -12.5625 C 41.898438 -10.695312 41.863281 -8.691406 40.6875 -6.546875 C 40.050781 -3.140625 32.519531 1.625 18.09375 7.75 C 17.207031 8.207031 16.6875 8.703125 16.53125 9.234375 C 13 7.671875 11.3125 6.648438 11.46875 6.171875 L 11.65625 5.484375 C 14.101562 1.628906 15.617188 -1.253906 16.203125 -3.171875 C 17.460938 -7.441406 16.675781 -9.992188 13.84375 -10.828125 L 13.65625 -11.46875 C 17.113281 -11.875 19.082031 -12 19.5625 -11.84375 C 22.789062 -10.226562 23.828125 -7.46875 22.671875 -3.5625 L 21.984375 -1.25 C 21.703125 -0.363281 21.460938 0.0859375 21.265625 0.109375 L 21.234375 0.296875 C 21.890625 0.503906 23.265625 -0.195312 25.359375 -1.8125 L 28.375 -3.25 C 30.375 -4.539062 31.863281 -6.257812 32.84375 -8.40625 C 33.019531 -9.757812 32.90625 -10.503906 32.5 -10.640625 C 31.625 -13.304688 28.710938 -15.332031 23.765625 -16.71875 C 23.640625 -16.695312 23.523438 -16.6875 23.421875 -16.6875 L 15.546875 -16.765625 L 12.671875 -16.390625 C 12.898438 -10.859375 12.835938 -5.734375 12.484375 -1.015625 L 9.53125 -1.8125 L 5.796875 -1.8125 L 5.828125 -7.953125 C 6.460938 -19.023438 4.46875 -30.414062 -0.15625 -42.125 L -0.15625 -42.3125 C -1.113281 -44.707031 -1.921875 -46.519531 -2.578125 -47.75 L -2.53125 -48.28125 C -2.332031 -49.976562 0.328125 -50.835938 5.453125 -50.859375 C 7.140625 -50.679688 8.222656 -49.226562 8.703125 -46.5 L 9.046875 -46.46875 C 13.109375 -39.6875 20.648438 -32.695312 31.671875 -25.5 C 33.441406 -24.113281 34.628906 -22.753906 35.234375 -21.421875 C 35.078125 -20.160156 34.066406 -19.140625 32.203125 -18.359375 Z M 32.203125 -18.359375 "/></g></g></g><g fill="#ffffff" fill-opacity="1"><g transform="translate(201.354912, 138.000004)"><g><path d="M 5.328125 -27.59375 L 5.40625 -28.609375 L 5.484375 -31.25 L 5.71875 -31.21875 C 5.664062 -37.320312 4.726562 -43.335938 2.90625 -49.265625 C 0.988281 -54.460938 -1.210938 -59.484375 -3.703125 -64.328125 L -3.671875 -64.859375 C -3.472656 -66.546875 -0.8125 -67.40625 4.3125 -67.4375 C 6 -67.257812 7.082031 -65.804688 7.5625 -63.078125 L 10.03125 -58.84375 C 15.800781 -51.320312 20.492188 -46.398438 24.109375 -44.078125 C 29.609375 -39.035156 38.941406 -33.097656 52.109375 -26.265625 C 53.867188 -24.878906 55.054688 -23.515625 55.671875 -22.171875 C 55.285156 -18.867188 46.210938 -17.617188 28.453125 -18.421875 C 20.890625 -17.722656 15.40625 -16.726562 12 -15.4375 C 9.90625 -16.375 8.351562 -16.90625 7.34375 -17.03125 L 2.390625 -17.5625 L 2.421875 -17.78125 L 3.484375 -20.328125 L 4.734375 -24.703125 Z M 6.78125 -50.75 L 6.703125 -50.484375 C 9.703125 -47.703125 11.300781 -45.316406 11.5 -43.328125 C 13.394531 -37.878906 14.003906 -31.898438 13.328125 -25.390625 L 13.203125 -24.0625 C 16.253906 -26.207031 19.394531 -27.546875 22.625 -28.078125 L 27.65625 -25.4375 L 27.546875 -24.671875 C 26.285156 -24.773438 22.613281 -23.488281 16.53125 -20.8125 L 16.5 -20.546875 L 16.765625 -20.515625 L 28.828125 -21.875 L 28.796875 -21.609375 L 34.4375 -22.0625 L 34.390625 -21.796875 C 39.316406 -21.796875 42.285156 -22.265625 43.296875 -23.203125 C 43.515625 -25.335938 37.757812 -29.320312 26.03125 -35.15625 C 26.0625 -35.4375 25.226562 -35.96875 23.53125 -36.75 C 18.289062 -40.101562 13.195312 -44.453125 8.25 -49.796875 Z M 25.84375 -28.53125 L 30.921875 -26.15625 L 30.796875 -25.359375 L 30.015625 -25.4375 L 28.953125 -25.3125 L 23.609375 -27.703125 L 23.6875 -28.53125 Z M 25.84375 -28.53125 "/></g></g></g><g fill="#ffffff" fill-opacity="1"><g transform="translate(255.503797, 138.000004)"><g><path d="M 40.453125 -20.171875 C 31.671875 -19.003906 23.835938 -15.960938 16.953125 -11.046875 L 13.125 -7.75 L 6.28125 -8.484375 C 5.957031 -8.503906 5.816406 -8.789062 5.859375 -9.34375 L 6.171875 -9.53125 C 6.578125 -16.039062 6.132812 -19.359375 4.84375 -19.484375 L 2.65625 -21.3125 L 2.6875 -21.609375 C 2.707031 -21.859375 3.453125 -22.210938 4.921875 -22.671875 L 4.953125 -23.203125 C 5.035156 -23.722656 4.34375 -25.472656 2.875 -28.453125 L 0.1875 -28.1875 L -0.1875 -29.59375 L 0.109375 -29.78125 L 0.15625 -30.078125 L 0.109375 -32.46875 L 0.15625 -32.703125 L 0.75 -33.1875 L 0.984375 -32.890625 C 3.878906 -32.554688 9.644531 -33.523438 18.28125 -35.796875 C 25.820312 -38.441406 29.992188 -40.382812 30.796875 -41.625 L 33.484375 -37.078125 L 33.453125 -36.5625 C 26.441406 -32.375 18.394531 -29.882812 9.3125 -29.09375 L 9.265625 -28.53125 L 11.015625 -25.203125 L 11.546875 -25.125 C 20.628906 -28.40625 26.191406 -29.929688 28.234375 -29.703125 L 30.796875 -26.796875 L 30.796875 -26.53125 C 30.617188 -26.25 27.984375 -25.65625 22.890625 -24.75 L 12.21875 -21.609375 C 12.394531 -20.117188 12.828125 -18.40625 13.515625 -16.46875 C 19.335938 -19.945312 27.382812 -22.429688 37.65625 -23.921875 L 41.921875 -24.515625 C 43.710938 -24.085938 44.394531 -22.828125 43.96875 -20.734375 L 41.921875 -20.28125 Z M 40.453125 -20.171875 "/></g></g></g><g fill="#ffffff" fill-opacity="1"><g transform="translate(290.202991, 138.000004)"><g><path d="M 23.953125 -44.578125 C 26.453125 -42.734375 28.5625 -37.828125 30.28125 -29.859375 L 30.609375 -23.796875 L 30.46875 -22.75 C 29.332031 -13.988281 27.398438 -8.941406 24.671875 -7.609375 L 20.65625 -8.4375 C 17.070312 -8.8125 15.257812 -8.847656 15.21875 -8.546875 C 13.957031 -9.609375 12.320312 -11.785156 10.3125 -15.078125 C 8.300781 -18.367188 4.890625 -25.78125 0.078125 -37.3125 L 0.15625 -37.796875 C 1.03125 -39.515625 3.195312 -40.160156 6.65625 -39.734375 L 8.8125 -39.4375 C 8.9375 -38.394531 10.363281 -34.5 13.09375 -27.75 C 15.820312 -21.007812 17.765625 -17.09375 18.921875 -16 L 19.75 -15.890625 C 20.789062 -18.335938 21.394531 -20.269531 21.5625 -21.6875 L 22.328125 -27.59375 C 22.703125 -30.539062 21.113281 -35.9375 17.5625 -43.78125 L 17.59375 -44.046875 Z M 23.953125 -44.578125 "/></g></g></g><g fill="#ffffff" fill-opacity="1"><g transform="translate(321.458727, 138.000004)"><g><path d="M 40.453125 -20.171875 C 31.671875 -19.003906 23.835938 -15.960938 16.953125 -11.046875 L 13.125 -7.75 L 6.28125 -8.484375 C 5.957031 -8.503906 5.816406 -8.789062 5.859375 -9.34375 L 6.171875 -9.53125 C 6.578125 -16.039062 6.132812 -19.359375 4.84375 -19.484375 L 2.65625 -21.3125 L 2.6875 -21.609375 C 2.707031 -21.859375 3.453125 -22.210938 4.921875 -22.671875 L 4.953125 -23.203125 C 5.035156 -23.722656 4.34375 -25.472656 2.875 -28.453125 L 0.1875 -28.1875 L -0.1875 -29.59375 L 0.109375 -29.78125 L 0.15625 -30.078125 L 0.109375 -32.46875 L 0.15625 -32.703125 L 0.75 -33.1875 L 0.984375 -32.890625 C 3.878906 -32.554688 9.644531 -33.523438 18.28125 -35.796875 C 25.820312 -38.441406 29.992188 -40.382812 30.796875 -41.625 L 33.484375 -37.078125 L 33.453125 -36.5625 C 26.441406 -32.375 18.394531 -29.882812 9.3125 -29.09375 L 9.265625 -28.53125 L 11.015625 -25.203125 L 11.546875 -25.125 C 20.628906 -28.40625 26.191406 -29.929688 28.234375 -29.703125 L 30.796875 -26.796875 L 30.796875 -26.53125 C 30.617188 -26.25 27.984375 -25.65625 22.890625 -24.75 L 12.21875 -21.609375 C 12.394531 -20.117188 12.828125 -18.40625 13.515625 -16.46875 C 19.335938 -19.945312 27.382812 -22.429688 37.65625 -23.921875 L 41.921875 -24.515625 C 43.710938 -24.085938 44.394531 -22.828125 43.96875 -20.734375 L 41.921875 -20.28125 Z M 40.453125 -20.171875 "/></g></g></g><g fill="#ffffff" fill-opacity="1"><g transform="translate(356.157899, 138.000004)"><g><path d="M 3.0625 -20.4375 L 1.734375 -33.21875 C 1.359375 -35.875 0.929688 -38.347656 0.453125 -40.640625 C -0.0976562 -44.273438 -1.046875 -46.960938 -2.390625 -48.703125 L -2.390625 -48.921875 L 0.5625 -48.625 C 4.445312 -48.675781 6.40625 -48.097656 6.4375 -46.890625 C 9.1875 -39.566406 10.828125 -31.644531 11.359375 -23.125 L 11.65625 -22.328125 L 11.390625 -22.28125 L 11.734375 -21.3125 L 11.578125 -19.9375 L 11.578125 -19.671875 L 11.84375 -19.40625 L 11.65625 -17.859375 L 11.578125 -13.203125 L 11.390625 -8.4375 L 9.125 -8.4375 L 8.859375 -8.40625 L 8.546875 -8.671875 C 6.328125 -8.160156 4.773438 -7.628906 3.890625 -7.078125 L 3.890625 -7.296875 L 3.59375 -7.5625 L 3.328125 -11.5 L 3.5625 -12.859375 L 3.25 -13.09375 L 3.40625 -14.640625 L 3.40625 -14.953125 L 3.140625 -15.21875 L 3.375 -16 C 3.269531 -17.519531 3.164062 -19 3.0625 -20.4375 Z M 3.0625 -20.4375 "/></g></g></g><g fill="#ffffff" fill-opacity="1"><g transform="translate(368.872101, 138.000004)"><g><path d="M 15.359375 -14.6875 C 13.265625 -13.070312 10.90625 -12.53125 8.28125 -13.0625 C 4.726562 -13.4375 2.09375 -16.019531 0.375 -20.8125 C -0.03125 -22.019531 -0.128906 -23.519531 0.078125 -25.3125 C 0.347656 -27.757812 1.722656 -29.929688 4.203125 -31.828125 L 4.46875 -31.75 C 7.289062 -30.1875 8.648438 -28.8125 8.546875 -27.625 L 6.46875 -23.3125 C 6.21875 -20.84375 7.328125 -18.785156 9.796875 -17.140625 C 11.234375 -17.796875 11.773438 -19.507812 11.421875 -22.28125 C 10.390625 -26.78125 8.613281 -30.0625 6.09375 -32.125 C 3.71875 -33.082031 2.554688 -33.738281 2.609375 -34.09375 C 2.640625 -34.375 5.085938 -34.976562 9.953125 -35.90625 L 10.484375 -35.875 C 15.328125 -32.945312 18.140625 -29.566406 18.921875 -25.734375 L 19.21875 -23.578125 L 18.953125 -23.578125 C 19.285156 -20.097656 18.085938 -17.132812 15.359375 -14.6875 Z M 4.546875 -37.34375 L 6.125 -37.15625 L 6.359375 -36.859375 L 6.65625 -37.078125 L 7.421875 -37.015625 L 7.6875 -36.75 L 7.953125 -36.703125 L 8.21875 -36.890625 L 8.4375 -36.671875 L 8.40625 -36.40625 L 1.625 -34.734375 L -0.234375 -35.1875 L -2.265625 -35.421875 L -2.234375 -35.90625 Z M 4.546875 -37.34375 "/></g></g></g><g fill="#ffffff" fill-opacity="1"><g transform="translate(390.630043, 138.000004)"><g><path d="M 10.40625 -34.09375 C 10.476562 -33.539062 10.554688 -32.960938 10.640625 -32.359375 C 11.597656 -28.722656 12.226562 -24.597656 12.53125 -19.984375 L 18.84375 -19.796875 C 22.019531 -20.097656 23.847656 -20.816406 24.328125 -21.953125 C 24.554688 -24.097656 23.132812 -25.890625 20.0625 -27.328125 C 20.082031 -27.597656 19.25 -28.125 17.5625 -28.90625 C 14.582031 -30.800781 12.195312 -32.53125 10.40625 -34.09375 Z M 12.671875 -16.390625 C 12.898438 -10.859375 12.835938 -5.734375 12.484375 -1.015625 L 9.53125 -1.8125 L 5.796875 -1.8125 L 5.828125 -7.953125 C 6.460938 -19.023438 4.46875 -30.414062 -0.15625 -42.125 L -0.15625 -42.3125 C -1.113281 -44.707031 -1.921875 -46.519531 -2.578125 -47.75 L -2.53125 -48.28125 C -2.332031 -49.976562 0.328125 -50.835938 5.453125 -50.859375 C 7.140625 -50.679688 8.222656 -49.226562 8.703125 -46.5 L 9.046875 -46.46875 C 13.109375 -39.6875 20.648438 -32.695312 31.671875 -25.5 C 33.441406 -24.113281 34.628906 -22.753906 35.234375 -21.421875 C 34.929688 -18.816406 30.992188 -17.238281 23.421875 -16.6875 L 15.546875 -16.765625 Z M 12.671875 -16.390625 "/></g></g></g><g fill="#ffffff" fill-opacity="1"><g transform="translate(427.145552, 138.000004)"><g><path d="M 40.453125 -20.171875 C 31.671875 -19.003906 23.835938 -15.960938 16.953125 -11.046875 L 13.125 -7.75 L 6.28125 -8.484375 C 5.957031 -8.503906 5.816406 -8.789062 5.859375 -9.34375 L 6.171875 -9.53125 C 6.578125 -16.039062 6.132812 -19.359375 4.84375 -19.484375 L 2.65625 -21.3125 L 2.6875 -21.609375 C 2.707031 -21.859375 3.453125 -22.210938 4.921875 -22.671875 L 4.953125 -23.203125 C 5.035156 -23.722656 4.34375 -25.472656 2.875 -28.453125 L 0.1875 -28.1875 L -0.1875 -29.59375 L 0.109375 -29.78125 L 0.15625 -30.078125 L 0.109375 -32.46875 L 0.15625 -32.703125 L 0.75 -33.1875 L 0.984375 -32.890625 C 3.878906 -32.554688 9.644531 -33.523438 18.28125 -35.796875 C 25.820312 -38.441406 29.992188 -40.382812 30.796875 -41.625 L 33.484375 -37.078125 L 33.453125 -36.5625 C 26.441406 -32.375 18.394531 -29.882812 9.3125 -29.09375 L 9.265625 -28.53125 L 11.015625 -25.203125 L 11.546875 -25.125 C 20.628906 -28.40625 26.191406 -29.929688 28.234375 -29.703125 L 30.796875 -26.796875 L 30.796875 -26.53125 C 30.617188 -26.25 27.984375 -25.65625 22.890625 -24.75 L 12.21875 -21.609375 C 12.394531 -20.117188 12.828125 -18.40625 13.515625 -16.46875 C 19.335938 -19.945312 27.382812 -22.429688 37.65625 -23.921875 L 41.921875 -24.515625 C 43.710938 -24.085938 44.394531 -22.828125 43.96875 -20.734375 L 41.921875 -20.28125 Z M 40.453125 -20.171875 "/></g></g></g><g fill="#ffffff" fill-opacity="1"><g transform="translate(461.844723, 138.000004)"><g><path d="M 10.40625 -34.09375 C 10.476562 -33.539062 10.554688 -32.960938 10.640625 -32.359375 C 11.597656 -28.722656 12.226562 -24.597656 12.53125 -19.984375 L 18.84375 -19.796875 C 22.019531 -20.097656 23.847656 -20.816406 24.328125 -21.953125 C 24.554688 -24.097656 23.132812 -25.890625 20.0625 -27.328125 C 20.082031 -27.597656 19.25 -28.125 17.5625 -28.90625 C 14.582031 -30.800781 12.195312 -32.53125 10.40625 -34.09375 Z M 12.671875 -16.390625 C 12.773438 -12.378906 12.648438 -8.015625 12.296875 -3.296875 L 9.34375 -4.09375 L 5.59375 -4.09375 L 5.640625 -10.21875 C 6.398438 -19.78125 4.46875 -30.414062 -0.15625 -42.125 L -0.15625 -42.3125 C -1.113281 -44.707031 -1.921875 -46.519531 -2.578125 -47.75 L -2.53125 -48.28125 C -2.332031 -49.976562 0.328125 -50.835938 5.453125 -50.859375 C 7.140625 -50.679688 8.222656 -49.226562 8.703125 -46.5 L 9.046875 -46.46875 C 13.109375 -39.6875 20.648438 -32.695312 31.671875 -25.5 C 33.441406 -24.113281 34.628906 -22.753906 35.234375 -21.421875 C 34.929688 -18.816406 30.992188 -17.238281 23.421875 -16.6875 C 24.378906 -14.164062 25.453125 -11.601562 26.640625 -9 C 29.085938 -4.289062 31.898438 -0.00390625 35.078125 3.859375 C 40.828125 10.117188 45.734375 13.816406 49.796875 14.953125 L 49.765625 15.21875 L 49.453125 15.484375 L 49.234375 15.171875 L 47.34375 15.21875 L 46.3125 15.140625 L 41.0625 14.828125 C 36.414062 13.828125 31.554688 10.472656 26.484375 4.765625 C 21.546875 -2.015625 18.445312 -7.648438 17.1875 -12.140625 C 16.195312 -14.367188 15.648438 -15.910156 15.546875 -16.765625 Z M 12.671875 -16.390625 "/></g></g></g><g fill="#ffffff" fill-opacity="1"><g transform="translate(532.4918, 138.000004)"><g><path d="M 1.46875 -18.6875 L 1.625 -20.28125 L 1.9375 -20.515625 L 2.046875 -20.78125 L 2.15625 -22.140625 L 2.71875 -23.125 L 2.453125 -23.15625 L 2.953125 -23.953125 C 5.472656 -32.453125 10.566406 -41.625 18.234375 -51.46875 C 18.566406 -52.675781 20.640625 -53.164062 24.453125 -52.9375 L 27.46875 -53.125 L 27.390625 -52.90625 C 25.648438 -51.21875 22.988281 -47.269531 19.40625 -41.0625 L 16.953125 -36.21875 C 15.210938 -32.707031 12.648438 -26.125 9.265625 -16.46875 L 9.3125 -15.671875 L 8.96875 -15.4375 L 8.890625 -15.140625 L 8.671875 -13.546875 L 8.328125 -13.359375 L 8.25 -12 L 7.828125 -9.65625 L 7.5 -9.390625 L 7.453125 -9.15625 C 6.691406 -9.757812 5.015625 -9.835938 2.421875 -9.390625 L 2.046875 -9.125 L 1.8125 -9.203125 L 0.15625 -9.578125 C 0.0703125 -12.328125 0.507812 -15.363281 1.46875 -18.6875 Z M 1.46875 -18.6875 "/></g></g></g><g fill="#ffffff" fill-opacity="1"><g transform="translate(593.187003, 138.000004)"><g><path d="M 45.296875 -45.296875 L 39.703125 -34.8125 L 35.53125 -28.109375 L 25.046875 -27.09375 L 24.859375 -27.359375 L 24.90625 -27.890625 C 27.570312 -30.179688 30.269531 -33.953125 33 -39.203125 L 33.296875 -39.46875 C 34.585938 -42.46875 35.570312 -44.296875 36.25 -44.953125 Z M 46.546875 7.265625 C 41.648438 9.835938 38.953125 11.941406 38.453125 13.578125 L 37.921875 13.515625 L 30.46875 11.390625 L 30.53125 10.90625 L 30.421875 9.265625 C 32.941406 3.941406 34.421875 -0.660156 34.859375 -4.546875 C 35.128906 -7.242188 34.457031 -9.976562 32.84375 -12.75 L 29.75 -13.84375 L 29.75 -13.625 L 28.984375 -13.96875 L 29.0625 -14.71875 C 29.082031 -15 31.894531 -15.753906 37.5 -16.984375 C 40.320312 -15.929688 42.34375 -14.128906 43.5625 -11.578125 C 44.007812 -9.285156 44.109375 -6.976562 43.859375 -4.65625 C 43.523438 -1.65625 42.390625 1.5 40.453125 4.8125 C 43.609375 3.09375 47.40625 -0.046875 51.84375 -4.609375 C 59.488281 -11.828125 63.84375 -17.101562 64.90625 -20.4375 L 64.96875 -20.703125 C 64.789062 -21.410156 64.023438 -21.835938 62.671875 -21.984375 L 61.375 -22.140625 L 59.75 -22.0625 L 59.5625 -22.328125 L 59.296875 -22.359375 C 47.765625 -21.304688 37.347656 -19.691406 28.046875 -17.515625 C 10.910156 -11.390625 0.265625 -8.539062 -3.890625 -8.96875 C -5.410156 -9.144531 -6.410156 -9.703125 -6.890625 -10.640625 L -7.1875 -10.703125 L -6.890625 -13.328125 L -6.203125 -14.796875 C -5.617188 -16.585938 -4.332031 -18.671875 -2.34375 -21.046875 C -2.019531 -22.359375 1.75 -26.175781 8.96875 -32.5 C 18 -40.375 22.832031 -44.285156 23.46875 -44.234375 L 33.078125 -44.8125 L 33 -43.96875 C 31.28125 -43.71875 25.578125 -40.023438 15.890625 -32.890625 C 8.046875 -26.378906 3.023438 -21.597656 0.828125 -18.546875 L 0.796875 -18.015625 C 0.898438 -17.484375 1.378906 -17.164062 2.234375 -17.0625 C 5.640625 -16.707031 9.398438 -17.097656 13.515625 -18.234375 L 13.734375 -17.96875 L 14 -17.9375 C 33.53125 -21.84375 47.242188 -24.34375 55.140625 -25.4375 L 64.109375 -25.28125 L 65.421875 -25.171875 L 69.28125 -24.21875 C 71.9375 -22.625 73.300781 -20.441406 73.375 -17.671875 C 72.59375 -13.128906 63.648438 -4.816406 46.546875 7.265625 Z M 46.546875 7.265625 "/></g></g></g><g fill="#ffffff" fill-opacity="1"><g transform="translate(656.606632, 138.000004)"><g><path d="M 15.359375 -14.6875 C 13.265625 -13.070312 10.90625 -12.53125 8.28125 -13.0625 C 4.726562 -13.4375 2.09375 -16.019531 0.375 -20.8125 C -0.03125 -22.019531 -0.128906 -23.519531 0.078125 -25.3125 C 0.347656 -27.757812 1.722656 -29.929688 4.203125 -31.828125 L 4.46875 -31.75 C 7.289062 -30.1875 8.648438 -28.8125 8.546875 -27.625 L 6.46875 -23.3125 C 6.21875 -20.84375 7.328125 -18.785156 9.796875 -17.140625 C 11.234375 -17.796875 11.773438 -19.507812 11.421875 -22.28125 C 10.390625 -26.78125 8.613281 -30.0625 6.09375 -32.125 C 3.71875 -33.082031 2.554688 -33.738281 2.609375 -34.09375 C 2.640625 -34.375 5.085938 -34.976562 9.953125 -35.90625 L 10.484375 -35.875 C 15.328125 -32.945312 18.140625 -29.566406 18.921875 -25.734375 L 19.21875 -23.578125 L 18.953125 -23.578125 C 19.285156 -20.097656 18.085938 -17.132812 15.359375 -14.6875 Z M 4.546875 -37.34375 L 6.125 -37.15625 L 6.359375 -36.859375 L 6.65625 -37.078125 L 7.421875 -37.015625 L 7.6875 -36.75 L 7.953125 -36.703125 L 8.21875 -36.890625 L 8.4375 -36.671875 L 8.40625 -36.40625 L 1.625 -34.734375 L -0.234375 -35.1875 L -2.265625 -35.421875 L -2.234375 -35.90625 Z M 4.546875 -37.34375 "/></g></g></g><g fill="#ffffff" fill-opacity="1"><g transform="translate(678.364596, 138.000004)"><g><path d="M 30.84375 -41.65625 L 31.375 -41.625 C 32.957031 -39.25 33.722656 -37.710938 33.671875 -37.015625 C 28.984375 -34.035156 22.351562 -31.625 13.78125 -29.78125 C 10.675781 -29.675781 9.097656 -29.375 9.046875 -28.875 C 8.941406 -27.96875 9.546875 -26.71875 10.859375 -25.125 L 11.65625 -25.046875 C 16.320312 -27.066406 21.769531 -28.695312 28 -29.9375 C 30 -28.394531 31.082031 -27.375 31.25 -26.875 C 30.320312 -26.289062 27.503906 -25.429688 22.796875 -24.296875 C 18.097656 -23.160156 14.632812 -22.300781 12.40625 -21.71875 L 12.109375 -21.1875 L 13.203125 -16.15625 C 13.835938 -10.125 13.472656 -4.941406 12.109375 -0.609375 L 5.453125 -1.21875 L 6.015625 -8.78125 L 6.015625 -10.0625 C 6.316406 -16.425781 5.648438 -19.679688 4.015625 -19.828125 C 2.796875 -20.335938 2.210938 -20.765625 2.265625 -21.109375 L 4.84375 -22.78125 L 4.953125 -23.578125 C 3.992188 -26.148438 3.160156 -27.773438 2.453125 -28.453125 L 0.828125 -28.640625 L 0.53125 -28.375 C -0.175781 -28.582031 -0.46875 -29.351562 -0.34375 -30.6875 L -0.296875 -30.921875 C -0.148438 -32.304688 0.285156 -33.085938 1.015625 -33.265625 L 2.953125 -33.078125 C 11.578125 -33.910156 17.960938 -35.222656 22.109375 -37.015625 C 26.265625 -38.804688 29.175781 -40.351562 30.84375 -41.65625 Z M 30.84375 -41.65625 "/></g></g></g><g fill="#ffffff" fill-opacity="1"><g transform="translate(710.074434, 138.000004)"><g><path d="M 1.890625 -40.71875 C 7.160156 -40.519531 9.820312 -40.671875 9.875 -41.171875 C 10.601562 -44.117188 11.460938 -45.53125 12.453125 -45.40625 L 20.203125 -45.90625 L 20.171875 -45.640625 L 18.6875 -41.546875 L 18.921875 -41.546875 C 25.503906 -42.078125 31.34375 -42.945312 36.4375 -44.15625 L 36.4375 -43.9375 L 46.8125 -47.03125 L 47.078125 -46.734375 L 47.03125 -46.5 C 45.5 -42.945312 44.164062 -41.234375 43.03125 -41.359375 C 35.8125 -38.679688 28.039062 -36.941406 19.71875 -36.140625 C 17.21875 -36.210938 15.90625 -35.476562 15.78125 -33.9375 L 12.640625 -27.09375 C 11.734375 -23.5625 11.023438 -20.382812 10.515625 -17.5625 L 10.671875 -13.546875 L 11.15625 -13.515625 L 11.203125 -14.046875 L 18.5 -12.671875 L 18.46875 -12.453125 C 16.976562 -10.859375 15.816406 -9.128906 14.984375 -7.265625 L 13.703125 -7.375 C 12.140625 -7.550781 9.789062 -7.097656 6.65625 -6.015625 C 4.96875 -6.210938 3.785156 -9.164062 3.109375 -14.875 L 3.03125 -19.140625 L 3.328125 -19.375 L 3.171875 -20.703125 L 3.25 -21.234375 L 3.5625 -21.453125 L 3.328125 -21.765625 L 4.09375 -26.71875 L 4.125 -26.984375 L 6.359375 -35.453125 L 4.84375 -35.90625 L 3.78125 -36.03125 L 2.421875 -35.90625 L 1.890625 -35.953125 L 1.703125 -36.25 L -0.265625 -36.140625 L -1.859375 -36.75 L -1.96875 -38.71875 C -1.4375 -40.226562 -0.148438 -40.894531 1.890625 -40.71875 Z M 1.890625 -40.71875 "/></g></g></g><g fill="#ffffff" fill-opacity="1"><g transform="translate(728.729493, 138.000004)"><g><path d="M 38.5625 -45.375 C 42.875 -37.957031 44.703125 -31.132812 44.046875 -24.90625 L 44.015625 -24.640625 L 44.28125 -24.328125 L 43.96875 -24.109375 L 43.78125 -22.546875 C 43.25 -17.578125 41.910156 -13.210938 39.765625 -9.453125 L 36.859375 -9.765625 L 36.625 -10.0625 L 36.359375 -10.0625 L 36.328125 -9.796875 L 36.09375 -10.109375 L 28.6875 -10.375 L 21.953125 -21.6875 C 21.671875 -18.90625 19.601562 -15.15625 15.75 -10.4375 C 14.457031 -9.15625 12.375 -8.675781 9.5 -9 C 5.4375 -9.4375 2.585938 -14.15625 0.953125 -23.15625 C 0.515625 -25.9375 0.335938 -28.523438 0.421875 -30.921875 L 8.78125 -32.125 L 9 -31.859375 L 8.9375 -31.03125 L 8.40625 -28.71875 L 8.59375 -27.921875 L 8.328125 -27.703125 L 8.28125 -27.390625 C 8.6875 -20.628906 9.457031 -17.203125 10.59375 -17.109375 C 10.539062 -16.546875 10.992188 -15.875 11.953125 -15.09375 C 13.867188 -17.96875 14.992188 -20.929688 15.328125 -23.984375 L 15.515625 -25.84375 C 15.921875 -29.550781 15.390625 -33.675781 13.921875 -38.21875 L 14 -38.71875 C 15.007812 -40.195312 16.835938 -40.800781 19.484375 -40.53125 L 23.203125 -40.375 L 28.375 -27.09375 C 30.644531 -22.019531 32.171875 -18.941406 32.953125 -17.859375 L 33.421875 -17.25 C 34.117188 -18.96875 34.875 -21.820312 35.6875 -25.8125 L 35.453125 -26.640625 L 35.765625 -26.828125 C 35.984375 -30.742188 34.910156 -35.550781 32.546875 -41.25 L 30.28125 -44.953125 L 30.3125 -45.1875 Z M 38.5625 -45.375 "/></g></g></g><g fill="#ffffff" fill-opacity="1"><g transform="translate(774.175215, 138.000004)"><g><path d="M 7.609375 -42.078125 C 9.578125 -40.972656 11.882812 -40.28125 14.53125 -40 L 14.53125 -40.21875 L 14.796875 -40 L 15.0625 -39.96875 L 19.265625 -39.765625 C 22.035156 -33.484375 26.097656 -26.765625 31.453125 -19.609375 L 35.984375 -15.140625 C 40.953125 -11.628906 44.285156 -9.773438 45.984375 -9.578125 L 45.9375 -9.046875 C 44.476562 -9.191406 41.703125 -8.875 37.609375 -8.09375 C 33.597656 -9.050781 29.109375 -11.753906 24.140625 -16.203125 C 20.679688 -20.210938 17.804688 -24.660156 15.515625 -29.546875 C 14.128906 -31.367188 13.460938 -32.503906 13.515625 -32.953125 L 12.984375 -33 L 12.671875 -30.125 L 11.46875 -23.65625 L 15.96875 -23.6875 L 16.203125 -23.65625 C 17.515625 -23.5 18.890625 -22.300781 20.328125 -20.0625 L 20.59375 -19.984375 L 20.515625 -18.953125 C 13.097656 -19.128906 9.257812 -18.035156 9 -15.671875 L 6.3125 -10.140625 L 6.96875 -9 L 6.578125 -8.25 L 3.515625 -8.859375 L 3.21875 -8.890625 L -5.75 -9.3125 L -5.671875 -9.84375 C -3.222656 -12.414062 -1.242188 -15.203125 0.265625 -18.203125 L 0.078125 -21.6875 L 2.3125 -22.484375 L 5.671875 -33.796875 L 5.40625 -33.796875 L 5.671875 -34.0625 L 6.359375 -40.34375 L 6.203125 -41.703125 Z M 7.609375 -42.078125 "/></g></g></g><g fill="#ffffff" fill-opacity="1"><g transform="translate(806.112057, 138.000004)"><g><path d="M 10.40625 -34.09375 C 10.476562 -33.539062 10.554688 -32.960938 10.640625 -32.359375 C 11.597656 -28.722656 12.226562 -24.597656 12.53125 -19.984375 L 18.84375 -19.796875 C 22.019531 -20.097656 23.847656 -20.816406 24.328125 -21.953125 C 24.554688 -24.097656 23.132812 -25.890625 20.0625 -27.328125 C 20.082031 -27.597656 19.25 -28.125 17.5625 -28.90625 C 14.582031 -30.800781 12.195312 -32.53125 10.40625 -34.09375 Z M 12.671875 -16.390625 C 12.773438 -12.378906 12.648438 -8.015625 12.296875 -3.296875 L 9.34375 -4.09375 L 5.59375 -4.09375 L 5.640625 -10.21875 C 6.398438 -19.78125 4.46875 -30.414062 -0.15625 -42.125 L -0.15625 -42.3125 C -1.113281 -44.707031 -1.921875 -46.519531 -2.578125 -47.75 L -2.53125 -48.28125 C -2.332031 -49.976562 0.328125 -50.835938 5.453125 -50.859375 C 7.140625 -50.679688 8.222656 -49.226562 8.703125 -46.5 L 9.046875 -46.46875 C 13.109375 -39.6875 20.648438 -32.695312 31.671875 -25.5 C 33.441406 -24.113281 34.628906 -22.753906 35.234375 -21.421875 C 34.929688 -18.816406 30.992188 -17.238281 23.421875 -16.6875 C 24.378906 -14.164062 25.453125 -11.601562 26.640625 -9 C 29.085938 -4.289062 31.898438 -0.00390625 35.078125 3.859375 C 40.828125 10.117188 45.734375 13.816406 49.796875 14.953125 L 49.765625 15.21875 L 49.453125 15.484375 L 49.234375 15.171875 L 47.34375 15.21875 L 46.3125 15.140625 L 41.0625 14.828125 C 36.414062 13.828125 31.554688 10.472656 26.484375 4.765625 C 21.546875 -2.015625 18.445312 -7.648438 17.1875 -12.140625 C 16.195312 -14.367188 15.648438 -15.910156 15.546875 -16.765625 Z M 12.671875 -16.390625 "/></g></g></g><g fill="#ffffff" fill-opacity="1"><g transform="translate(842.627589, 138.000004)"><g><path d="M 40.453125 -20.171875 C 31.671875 -19.003906 23.835938 -15.960938 16.953125 -11.046875 L 13.125 -7.75 L 6.28125 -8.484375 C 5.957031 -8.503906 5.816406 -8.789062 5.859375 -9.34375 L 6.171875 -9.53125 C 6.578125 -16.039062 6.132812 -19.359375 4.84375 -19.484375 L 2.65625 -21.3125 L 2.6875 -21.609375 C 2.707031 -21.859375 3.453125 -22.210938 4.921875 -22.671875 L 4.953125 -23.203125 C 5.035156 -23.722656 4.34375 -25.472656 2.875 -28.453125 L 0.1875 -28.1875 L -0.1875 -29.59375 L 0.109375 -29.78125 L 0.15625 -30.078125 L 0.109375 -32.46875 L 0.15625 -32.703125 L 0.75 -33.1875 L 0.984375 -32.890625 C 3.878906 -32.554688 9.644531 -33.523438 18.28125 -35.796875 C 25.820312 -38.441406 29.992188 -40.382812 30.796875 -41.625 L 33.484375 -37.078125 L 33.453125 -36.5625 C 26.441406 -32.375 18.394531 -29.882812 9.3125 -29.09375 L 9.265625 -28.53125 L 11.015625 -25.203125 L 11.546875 -25.125 C 20.628906 -28.40625 26.191406 -29.929688 28.234375 -29.703125 L 30.796875 -26.796875 L 30.796875 -26.53125 C 30.617188 -26.25 27.984375 -25.65625 22.890625 -24.75 L 12.21875 -21.609375 C 12.394531 -20.117188 12.828125 -18.40625 13.515625 -16.46875 C 19.335938 -19.945312 27.382812 -22.429688 37.65625 -23.921875 L 41.921875 -24.515625 C 43.710938 -24.085938 44.394531 -22.828125 43.96875 -20.734375 L 41.921875 -20.28125 Z M 40.453125 -20.171875 "/></g></g></g><g fill="#ffffff" fill-opacity="1"><g transform="translate(911.458397, 138.000004)"><g><path d="M 40.453125 -20.171875 C 31.671875 -19.003906 23.835938 -15.960938 16.953125 -11.046875 L 13.125 -7.75 L 6.28125 -8.484375 C 5.957031 -8.503906 5.816406 -8.789062 5.859375 -9.34375 L 6.171875 -9.53125 C 6.578125 -16.039062 6.132812 -19.359375 4.84375 -19.484375 L 2.65625 -21.3125 L 2.6875 -21.609375 C 2.707031 -21.859375 3.453125 -22.210938 4.921875 -22.671875 L 4.953125 -23.203125 C 5.035156 -23.722656 4.34375 -25.472656 2.875 -28.453125 L 0.1875 -28.1875 L -0.1875 -29.59375 L 0.109375 -29.78125 L 0.15625 -30.078125 L 0.109375 -32.46875 L 0.15625 -32.703125 L 0.75 -33.1875 L 0.984375 -32.890625 C 3.878906 -32.554688 9.644531 -33.523438 18.28125 -35.796875 C 25.820312 -38.441406 29.992188 -40.382812 30.796875 -41.625 L 33.484375 -37.078125 L 33.453125 -36.5625 C 26.441406 -32.375 18.394531 -29.882812 9.3125 -29.09375 L 9.265625 -28.53125 L 11.015625 -25.203125 L 11.546875 -25.125 C 20.628906 -28.40625 26.191406 -29.929688 28.234375 -29.703125 L 30.796875 -26.796875 L 30.796875 -26.53125 C 30.617188 -26.25 27.984375 -25.65625 22.890625 -24.75 L 12.21875 -21.609375 C 12.394531 -20.117188 12.828125 -18.40625 13.515625 -16.46875 C 19.335938 -19.945312 27.382812 -22.429688 37.65625 -23.921875 L 41.921875 -24.515625 C 43.710938 -24.085938 44.394531 -22.828125 43.96875 -20.734375 L 41.921875 -20.28125 Z M 40.453125 -20.171875 "/></g></g></g><g fill="#ffffff" fill-opacity="1"><g transform="translate(946.157614, 138.000004)"><g><path d="M 39.234375 -36.21875 C 38.148438 -32.707031 36.816406 -26.125 35.234375 -16.46875 L 35.421875 -15.671875 L 35.125 -15.4375 L 35.125 -15.140625 L 35.1875 -13.546875 L 34.890625 -13.359375 L 35.046875 -12 L 34.59375 -8.0625 L 34.28125 -7.796875 L 34.28125 -7.5625 C 33.425781 -8.175781 31.898438 -8.785156 29.703125 -9.390625 L 29.40625 -9.125 L 29.140625 -9.203125 L 26.828125 -9.6875 L 26.53125 -9.421875 L 26.5625 -9.71875 L 23.34375 -9.53125 C 18.832031 -17.78125 13.953125 -23.253906 8.703125 -25.953125 L 8.4375 -26 L 8.40625 -25.734375 C 10.21875 -24.597656 11.113281 -23.878906 11.09375 -23.578125 L 11.015625 -22.78125 C 10.679688 -19.925781 9.734375 -16.9375 8.171875 -13.8125 L 7.90625 -13.84375 C 4.78125 -16.320312 2.941406 -18.113281 2.390625 -19.21875 L 2.234375 -20.015625 L 2.5 -20.25 C 2.800781 -22.789062 1.726562 -26.785156 -0.71875 -32.234375 L -4.609375 -37.953125 C 0.890625 -38.078125 3.660156 -38.316406 3.703125 -38.671875 C 11.859375 -34.429688 18.28125 -29.320312 22.96875 -23.34375 L 26.71875 -18.421875 L 26.984375 -18.390625 L 27.015625 -18.6875 L 26.90625 -20.28125 L 27.171875 -20.515625 L 27.203125 -20.78125 L 27.09375 -22.140625 L 27.46875 -23.125 L 27.203125 -23.15625 L 27.546875 -23.953125 C 28.484375 -32.453125 31.863281 -41.625 37.6875 -51.46875 C 37.789062 -52.675781 39.769531 -53.164062 43.625 -52.9375 L 46.625 -53.125 L 46.578125 -52.90625 C 45.171875 -51.21875 43.253906 -47.269531 40.828125 -41.0625 Z M 39.234375 -36.21875 "/></g></g></g><g fill="#ffffff" fill-opacity="1"><g transform="translate(984.981374, 138.000004)"><g><path d="M 31.96875 -39.09375 L 27.703125 -38.328125 C 21.992188 -39.671875 19.140625 -40.707031 19.140625 -41.4375 L 19.140625 -41.8125 L 21.875 -41.8125 C 23.6875 -41.8125 27.050781 -40.90625 31.96875 -39.09375 Z M 11.390625 -8.78125 L 11.390625 -8.734375 C 3.566406 -11.585938 -0.34375 -16.519531 -0.34375 -23.53125 C -0.34375 -30.675781 4.585938 -36.394531 14.453125 -40.6875 C 16.472656 -40.6875 19.976562 -39.5 24.96875 -37.125 L 24.96875 -36.78125 C 18.769531 -35.625 14.382812 -33.476562 11.8125 -30.34375 C 9.238281 -27.21875 8 -23.863281 8.09375 -20.28125 C 8.394531 -18.488281 9.195312 -16.957031 10.5 -15.6875 C 11.800781 -14.414062 13.890625 -13.710938 16.765625 -13.578125 C 18.148438 -13.503906 19.207031 -13.671875 19.9375 -14.078125 C 22.0625 -14.878906 23.976562 -15.9375 25.6875 -17.25 C 27.476562 -18.3125 28.375 -19.160156 28.375 -19.796875 L 28.234375 -19.796875 C 27.546875 -19.796875 26.765625 -19.796875 25.890625 -19.796875 L 23.609375 -19.796875 C 19.804688 -19.796875 17.613281 -21.457031 17.03125 -24.78125 C 17.03125 -25.238281 17.671875 -26.96875 18.953125 -29.96875 L 19.484375 -29.625 C 19.484375 -26.851562 21.550781 -25.46875 25.6875 -25.46875 C 27.5625 -25.46875 30.550781 -26.046875 34.65625 -27.203125 L 35.34375 -27.203125 C 35.820312 -27.203125 36.289062 -25.410156 36.75 -21.828125 C 36.238281 -21.828125 35.671875 -21.488281 35.046875 -20.8125 L 29.59375 -14.046875 C 28.40625 -12.453125 26.941406 -11.097656 25.203125 -9.984375 C 23.960938 -9.253906 22.597656 -8.710938 21.109375 -8.359375 L 16.5 -7.953125 C 14.25 -8.046875 12.546875 -8.320312 11.390625 -8.78125 Z M 11.390625 -8.78125 "/></g></g></g><g fill="#ffffff" fill-opacity="1"><g transform="translate(1021.496906, 138.000004)"><g><path d="M 9.078125 -26.875 C 9.160156 -23.207031 9.351562 -19.953125 9.65625 -17.109375 L 10.859375 -13.28125 L 11.359375 -13.390625 L 11.234375 -13.890625 L 18.65625 -14.5625 L 18.65625 -14.34375 C 17.675781 -12.394531 17.03125 -10.414062 16.71875 -8.40625 L 15.4375 -8.171875 C 13.894531 -7.921875 11.765625 -6.847656 9.046875 -4.953125 C 7.359375 -4.679688 5.414062 -7.207031 3.21875 -12.53125 L 2 -16.609375 L 2.234375 -16.921875 L 1.703125 -18.125 L 1.625 -18.65625 L 1.890625 -18.953125 L 1.59375 -19.1875 L 0.953125 -24.1875 L 0.90625 -24.453125 L 0.875 -29.4375 L 9.875 -31.296875 Z M 6.578125 -34.515625 C 2.847656 -34.054688 0.742188 -35.390625 0.265625 -38.515625 C -0.515625 -41.046875 0.492188 -42.398438 3.296875 -42.578125 L 5 -42.421875 C 6.882812 -42.878906 8.207031 -41.566406 8.96875 -38.484375 C 9.195312 -36.160156 8.398438 -34.835938 6.578125 -34.515625 Z M 6.578125 -34.515625 "/></g></g></g><g fill="#ffffff" fill-opacity="1"><g transform="translate(1037.919452, 138.000004)"><g><path d="M 39.234375 -36.21875 C 38.148438 -32.707031 36.816406 -26.125 35.234375 -16.46875 L 35.421875 -15.671875 L 35.125 -15.4375 L 35.125 -15.140625 L 35.1875 -13.546875 L 34.890625 -13.359375 L 35.046875 -12 L 34.59375 -8.0625 L 34.28125 -7.796875 L 34.28125 -7.5625 C 33.425781 -8.175781 31.898438 -8.785156 29.703125 -9.390625 L 29.40625 -9.125 L 29.140625 -9.203125 L 26.828125 -9.6875 L 26.53125 -9.421875 L 26.5625 -9.71875 L 23.34375 -9.53125 C 18.832031 -17.78125 13.953125 -23.253906 8.703125 -25.953125 L 8.4375 -26 L 8.40625 -25.734375 C 10.21875 -24.597656 11.113281 -23.878906 11.09375 -23.578125 L 11.015625 -22.78125 C 10.679688 -19.925781 9.734375 -16.9375 8.171875 -13.8125 L 7.90625 -13.84375 C 4.78125 -16.320312 2.941406 -18.113281 2.390625 -19.21875 L 2.234375 -20.015625 L 2.5 -20.25 C 2.800781 -22.789062 1.726562 -26.785156 -0.71875 -32.234375 L -4.609375 -37.953125 C 0.890625 -38.078125 3.660156 -38.316406 3.703125 -38.671875 C 11.859375 -34.429688 18.28125 -29.320312 22.96875 -23.34375 L 26.71875 -18.421875 L 26.984375 -18.390625 L 27.015625 -18.6875 L 26.90625 -20.28125 L 27.171875 -20.515625 L 27.203125 -20.78125 L 27.09375 -22.140625 L 27.46875 -23.125 L 27.203125 -23.15625 L 27.546875 -23.953125 C 28.484375 -32.453125 31.863281 -41.625 37.6875 -51.46875 C 37.789062 -52.675781 39.769531 -53.164062 43.625 -52.9375 L 46.625 -53.125 L 46.578125 -52.90625 C 45.171875 -51.21875 43.253906 -47.269531 40.828125 -41.0625 Z M 39.234375 -36.21875 "/></g></g></g><g fill="#ffffff" fill-opacity="1"><g transform="translate(1076.743211, 138.000004)"><g><path d="M 40.453125 -20.171875 C 31.671875 -19.003906 23.835938 -15.960938 16.953125 -11.046875 L 13.125 -7.75 L 6.28125 -8.484375 C 5.957031 -8.503906 5.816406 -8.789062 5.859375 -9.34375 L 6.171875 -9.53125 C 6.578125 -16.039062 6.132812 -19.359375 4.84375 -19.484375 L 2.65625 -21.3125 L 2.6875 -21.609375 C 2.707031 -21.859375 3.453125 -22.210938 4.921875 -22.671875 L 4.953125 -23.203125 C 5.035156 -23.722656 4.34375 -25.472656 2.875 -28.453125 L 0.1875 -28.1875 L -0.1875 -29.59375 L 0.109375 -29.78125 L 0.15625 -30.078125 L 0.109375 -32.46875 L 0.15625 -32.703125 L 0.75 -33.1875 L 0.984375 -32.890625 C 3.878906 -32.554688 9.644531 -33.523438 18.28125 -35.796875 C 25.820312 -38.441406 29.992188 -40.382812 30.796875 -41.625 L 33.484375 -37.078125 L 33.453125 -36.5625 C 26.441406 -32.375 18.394531 -29.882812 9.3125 -29.09375 L 9.265625 -28.53125 L 11.015625 -25.203125 L 11.546875 -25.125 C 20.628906 -28.40625 26.191406 -29.929688 28.234375 -29.703125 L 30.796875 -26.796875 L 30.796875 -26.53125 C 30.617188 -26.25 27.984375 -25.65625 22.890625 -24.75 L 12.21875 -21.609375 C 12.394531 -20.117188 12.828125 -18.40625 13.515625 -16.46875 C 19.335938 -19.945312 27.382812 -22.429688 37.65625 -23.921875 L 41.921875 -24.515625 C 43.710938 -24.085938 44.394531 -22.828125 43.96875 -20.734375 L 41.921875 -20.28125 Z M 40.453125 -20.171875 "/></g></g></g><g fill="#ffffff" fill-opacity="1"><g transform="translate(1111.442429, 138.000004)"><g><path d="M 40.453125 -20.171875 C 31.671875 -19.003906 23.835938 -15.960938 16.953125 -11.046875 L 13.125 -7.75 L 6.28125 -8.484375 C 5.957031 -8.503906 5.816406 -8.789062 5.859375 -9.34375 L 6.171875 -9.53125 C 6.578125 -16.039062 6.132812 -19.359375 4.84375 -19.484375 L 2.65625 -21.3125 L 2.6875 -21.609375 C 2.707031 -21.859375 3.453125 -22.210938 4.921875 -22.671875 L 4.953125 -23.203125 C 5.035156 -23.722656 4.34375 -25.472656 2.875 -28.453125 L 0.1875 -28.1875 L -0.1875 -29.59375 L 0.109375 -29.78125 L 0.15625 -30.078125 L 0.109375 -32.46875 L 0.15625 -32.703125 L 0.75 -33.1875 L 0.984375 -32.890625 C 3.878906 -32.554688 9.644531 -33.523438 18.28125 -35.796875 C 25.820312 -38.441406 29.992188 -40.382812 30.796875 -41.625 L 33.484375 -37.078125 L 33.453125 -36.5625 C 26.441406 -32.375 18.394531 -29.882812 9.3125 -29.09375 L 9.265625 -28.53125 L 11.015625 -25.203125 L 11.546875 -25.125 C 20.628906 -28.40625 26.191406 -29.929688 28.234375 -29.703125 L 30.796875 -26.796875 L 30.796875 -26.53125 C 30.617188 -26.25 27.984375 -25.65625 22.890625 -24.75 L 12.21875 -21.609375 C 12.394531 -20.117188 12.828125 -18.40625 13.515625 -16.46875 C 19.335938 -19.945312 27.382812 -22.429688 37.65625 -23.921875 L 41.921875 -24.515625 C 43.710938 -24.085938 44.394531 -22.828125 43.96875 -20.734375 L 41.921875 -20.28125 Z M 40.453125 -20.171875 "/></g></g></g><g fill="#ffffff" fill-opacity="1"><g transform="translate(1146.141646, 138.000004)"><g><path d="M 10.40625 -34.09375 C 10.476562 -33.539062 10.554688 -32.960938 10.640625 -32.359375 C 11.597656 -28.722656 12.226562 -24.597656 12.53125 -19.984375 L 18.84375 -19.796875 C 22.019531 -20.097656 23.847656 -20.816406 24.328125 -21.953125 C 24.554688 -24.097656 23.132812 -25.890625 20.0625 -27.328125 C 20.082031 -27.597656 19.25 -28.125 17.5625 -28.90625 C 14.582031 -30.800781 12.195312 -32.53125 10.40625 -34.09375 Z M 12.671875 -16.390625 C 12.773438 -12.378906 12.648438 -8.015625 12.296875 -3.296875 L 9.34375 -4.09375 L 5.59375 -4.09375 L 5.640625 -10.21875 C 6.398438 -19.78125 4.46875 -30.414062 -0.15625 -42.125 L -0.15625 -42.3125 C -1.113281 -44.707031 -1.921875 -46.519531 -2.578125 -47.75 L -2.53125 -48.28125 C -2.332031 -49.976562 0.328125 -50.835938 5.453125 -50.859375 C 7.140625 -50.679688 8.222656 -49.226562 8.703125 -46.5 L 9.046875 -46.46875 C 13.109375 -39.6875 20.648438 -32.695312 31.671875 -25.5 C 33.441406 -24.113281 34.628906 -22.753906 35.234375 -21.421875 C 34.929688 -18.816406 30.992188 -17.238281 23.421875 -16.6875 C 24.378906 -14.164062 25.453125 -11.601562 26.640625 -9 C 29.085938 -4.289062 31.898438 -0.00390625 35.078125 3.859375 C 40.828125 10.117188 45.734375 13.816406 49.796875 14.953125 L 49.765625 15.21875 L 49.453125 15.484375 L 49.234375 15.171875 L 47.34375 15.21875 L 46.3125 15.140625 L 41.0625 14.828125 C 36.414062 13.828125 31.554688 10.472656 26.484375 4.765625 C 21.546875 -2.015625 18.445312 -7.648438 17.1875 -12.140625 C 16.195312 -14.367188 15.648438 -15.910156 15.546875 -16.765625 Z M 12.671875 -16.390625 "/></g></g></g></svg>